SplineFontDB: 3.2
FontName: SeriousShannsBoldItalic
FullName: Serious Shanns Bold Italic
FamilyName: Serious Shanns Bold Italic
Weight: Bold
Copyright: https://github.com/kaBeech/serious-shanns/blob/main/LICENSE
Version: 6.0.0
ItalicAngle: -12.5
UnderlinePosition: 0
UnderlineWidth: 0
Ascent: 800
Descent: 200
InvalidEm: 0
sfntRevision: 0x00003333
LayerCount: 2
Layer: 0 0 "Back" 1
Layer: 1 0 "Fore" 0
XUID: [1021 45 630387186 10904090]
StyleMap: 0x0040
FSType: 4
OS2Version: 3
OS2_WeightWidthSlopeOnly: 0
OS2_UseTypoMetrics: 0
CreationTime: 1532631502
ModificationTime: 315532800
PfmFamily: 81
TTFWeight: 700
TTFWidth: 5
LineGap: 0
VLineGap: 0
Panose: 0 0 0 0 0 0 0 0 0 0
OS2TypoAscent: 613
OS2TypoAOffset: 0
OS2TypoDescent: -188
OS2TypoDOffset: 0
OS2TypoLinegap: 98
OS2WinAscent: 778
OS2WinAOffset: 0
OS2WinDescent: 308
OS2WinDOffset: 0
HheadAscent: 796
HheadAOffset: 0
HheadDescent: -317
HheadDOffset: 0
OS2SubXSize: 317
OS2SubYSize: 293
OS2SubXOff: 0
OS2SubYOff: 37
OS2SupXSize: 317
OS2SupYSize: 293
OS2SupXOff: 0
OS2SupYOff: 171
OS2StrikeYSize: 0
OS2StrikeYPos: 132
OS2CapHeight: 576
OS2XHeight: 485
OS2Vendor: 'NONE'
OS2CodePages: 00000001.00000000
OS2UnicodeRanges: 00000001.00000000.00000000.00000000
MarkAttachClasses: 1
DEI: 91125
LangName: 1033 "" "" "Normal" "" "" "Version 0.2.0"
Encoding: UnicodeBmp
Compacted: 1
UnicodeInterp: none
NameList: AGL For New Fonts
DisplaySize: -48
AntiAlias: 1
FitToEm: 0
WinInfo: 0 17 8
BeginPrivate: 9
BlueValues 32 [-40 -6 499 523 706 718 765 769]
OtherBlues 11 [-297 -287]
BlueScale 9 0.0291667
BlueShift 1 0
StdHW 5 [111]
StdVW 5 [118]
StemSnapH 33 [100 106 110 111 114 116 119 179]
StemSnapV 5 [118]
ForceBold 4 true
EndPrivate
BeginChars: 65537 121

StartChar: .notdef
Encoding: 65536 -1 0
Width: 590
GlyphClass: 1
Flags: W
HStem: -280 78<108.818 384.818> 683 78<312.818 588.818>
LayerCount: 2
Fore
SplineSet
17.818359375 -280 m 1
 258.818359375 761 l 1
 678.818359375 761 l 1
 438.818359375 -280 l 1
 17.818359375 -280 l 1
312.818359375 683 m 1
 108.818359375 -202 l 1
 384.818359375 -202 l 1
 588.818359375 683 l 1
 312.818359375 683 l 1
EndSplineSet
Validated: 524289
EndChar

StartChar: exclam
Encoding: 33 33 8
Width: 590
GlyphClass: 2
Flags: HMW
HStem: -36.998 179<348.26 424.593 359.26 424.593>
VStem: 300.26 309.998
LayerCount: 2
Fore
SplineSet
530.12890625 738 m 0
 528.795898438 732 519.130859375 694.668945312 501.130859375 626.001953125 c 0
 483.130859375 557.334960938 469.463867188 502.334960938 460.130859375 461.001953125 c 0
 455.463867188 441.668945312 450.963867188 421.501953125 446.630859375 400.501953125 c 0
 442.297851562 379.501953125 438.297851562 361.501953125 434.630859375 346.501953125 c 0
 430.963867188 331.501953125 428.130859375 321.168945312 426.130859375 315.501953125 c 0
 424.130859375 309.834960938 422.297851562 302.66796875 420.630859375 294.000976562 c 0
 418.963867188 285.333984375 417.130859375 277.333984375 415.130859375 270.000976562 c 0
 409.130859375 251.333984375 399.130859375 237.000976562 385.130859375 227.000976562 c 0
 371.797851562 217.66796875 357.797851562 212.66796875 343.130859375 212.000976562 c 2
 340.130859375 212.000976562 l 2
 324.797851562 212.000976562 313.46484375 217.66796875 306.131835938 229.000976562 c 0
 301.686523438 235.66796875 299.46484375 243.96484375 299.46484375 253.891601562 c 0
 299.46484375 258.854492188 300.01953125 264.223632812 301.130859375 270.000976562 c 0
 303.130859375 278.000976562 306.630859375 288.500976562 311.630859375 301.500976562 c 0
 316.630859375 314.500976562 320.130859375 324.000976562 322.130859375 330.000976562 c 0
 324.130859375 336.000976562 326.963867188 346.16796875 330.630859375 360.500976562 c 0
 334.297851562 374.833984375 337.630859375 388.666992188 340.630859375 402 c 0
 343.630859375 415.333007812 347.797851562 435.666015625 353.130859375 462.999023438 c 0
 359.130859375 494.999023438 365.463867188 525.666015625 372.130859375 554.999023438 c 0
 378.797851562 584.33203125 384.297851562 607.33203125 388.630859375 623.999023438 c 0
 392.963867188 640.666015625 398.296875 661.333007812 404.629882812 686 c 0
 410.962890625 710.666992188 415.129882812 727 417.129882812 735 c 0
 422.462890625 756.333007812 431.962890625 772.833007812 445.629882812 784.5 c 0
 459.296875 796.166992188 473.796875 802 489.129882812 802 c 2
 493.129882812 802 l 2
 507.796875 802 518.796875 796.666992188 526.129882812 786 c 0
 530.611328125 779.481445312 532.8515625 770.971679688 532.8515625 760.470703125 c 0
 532.8515625 753.787109375 531.944335938 746.296875 530.12890625 738 c 0
279.130859375 -36.998046875 m 2
 257.130859375 -36.998046875 240.797851562 -28.998046875 230.130859375 -12.998046875 c 0
 221.53515625 -0.3310546875 217.23828125 14.0234375 217.23828125 30.06640625 c 0
 217.23828125 37.666015625 218.202148438 45.64453125 220.130859375 54.001953125 c 0
 225.463867188 78.001953125 239.130859375 98.3349609375 261.130859375 115.001953125 c 0
 285.130859375 133.001953125 308.963867188 142.001953125 332.630859375 142.001953125 c 0
 356.297851562 142.001953125 373.797851562 134.001953125 385.130859375 118.001953125 c 0
 393.130859375 106.890625 397.130859375 93.927734375 397.130859375 79.11328125 c 0
 397.130859375 71.7060546875 396.130859375 63.8349609375 394.130859375 55.501953125 c 0
 388.130859375 30.501953125 375.630859375 9.6689453125 356.630859375 -6.998046875 c 0
 337.630859375 -23.6650390625 315.130859375 -33.6650390625 289.130859375 -36.998046875 c 2
 279.130859375 -36.998046875 l 2
EndSplineSet
Validated: 524289
EndChar

StartChar: quotedbl
Encoding: 34 34 9
Width: 590
GlyphClass: 2
Flags: W
LayerCount: 2
Fore
SplineSet
445.477539062 739 m 0
 444.14453125 730.333007812 441.141601562 716.333984375 436.474609375 697.000976562 c 0
 431.807617188 677.66796875 422.807617188 641.66796875 409.474609375 589.000976562 c 0
 395.474609375 533.66796875 384.474609375 495.000976562 376.474609375 473.000976562 c 0
 370.474609375 456.333984375 360.807617188 443.666992188 347.474609375 435 c 0
 335.474609375 427 323.807617188 423 312.474609375 423 c 0
 297.141601562 423 283.80859375 428 272.475585938 438 c 0
 265.942382812 444.533203125 262.67578125 452.700195312 262.67578125 462.5 c 0
 262.67578125 466.700195312 263.275390625 471.200195312 264.475585938 476 c 2
 266.475585938 482 l 2
 273.80859375 508 281.80859375 540 290.475585938 578 c 0
 293.142578125 588.666992188 295.475585938 600 297.475585938 612 c 0
 312.142578125 679.333007812 321.809570312 724.666015625 326.4765625 747.999023438 c 0
 328.4765625 756.666015625 332.143554688 764.333007812 337.4765625 771 c 0
 344.143554688 779 351.810546875 785 360.477539062 789 c 0
 370.9765625 793.083007812 381.221679688 795.125 391.209960938 795.125 c 0
 392.637695312 795.125 394.060546875 795.083007812 395.477539062 795 c 0
 404.810546875 795 412.310546875 794.166992188 417.977539062 792.5 c 0
 423.64453125 790.833007812 429.14453125 788 434.477539062 784 c 0
 439.810546875 780 443.477539062 774 445.477539062 766 c 0
 447.477539062 758 447.477539062 749 445.477539062 739 c 0
594.474609375 738.000976562 m 0
 593.141601562 731.333984375 591.807617188 725.001953125 590.474609375 719.001953125 c 0
 582.474609375 685.001953125 571.807617188 641.668945312 558.474609375 589.001953125 c 0
 544.474609375 533.668945312 533.807617188 495.001953125 526.474609375 473.001953125 c 0
 520.474609375 456.334960938 510.474609375 443.66796875 496.474609375 435.000976562 c 0
 484.474609375 427.000976562 472.474609375 423.000976562 460.474609375 423.000976562 c 0
 445.141601562 423.000976562 432.474609375 428.000976562 422.474609375 438.000976562 c 0
 415.59765625 444.877929688 412.159179688 453.565429688 412.159179688 464.0625 c 0
 412.159179688 467.811523438 412.59765625 471.791015625 413.474609375 476.000976562 c 2
 415.474609375 482.000976562 l 2
 422.141601562 504.66796875 429.141601562 532.000976562 436.474609375 564.000976562 c 0
 451.807617188 631.333984375 464.474609375 691.000976562 474.474609375 743.000976562 c 1
 474.474609375 746.000976562 l 2
 476.474609375 755.333984375 480.641601562 763.833984375 486.974609375 771.500976562 c 0
 493.307617188 779.16796875 500.807617188 785.000976562 509.474609375 789.000976562 c 0
 519.973632812 793.083984375 530.21875 795.125976562 540.20703125 795.125976562 c 0
 541.634765625 795.125976562 543.057617188 795.083984375 544.474609375 795.000976562 c 0
 553.807617188 795.000976562 561.307617188 794.16796875 566.974609375 792.500976562 c 0
 572.641601562 790.833984375 578.141601562 788.333984375 583.474609375 785.000976562 c 0
 589.474609375 781.000976562 593.307617188 774.833984375 594.974609375 766.500976562 c 0
 596.641601562 758.16796875 596.474609375 748.66796875 594.474609375 738.000976562 c 0
EndSplineSet
Validated: 524289
EndChar

StartChar: numbersign
Encoding: 35 35 10
Width: 590
GlyphClass: 2
Flags: HMW
HStem: -14 21G<127.256 134.59> 178.501 108.501<308.59 308.59> 433.002 109.002<415.586 454.586 370.586 496.586>
LayerCount: 2
Fore
SplineSet
253.58984375 431 m 1
 236.256835938 430.333007812 226.5859375 430.334960938 224.5859375 431.001953125 c 0
 207.918945312 431.001953125 195.918945312 435.334960938 188.5859375 444.001953125 c 0
 182.938476562 451.060546875 180.115234375 459.448242188 180.115234375 469.165039062 c 0
 180.115234375 473.212890625 180.60546875 477.4921875 181.5859375 482.001953125 c 2
 181.5859375 485.001953125 l 2
 184.918945312 499.001953125 192.751953125 511.334960938 205.084960938 522.001953125 c 0
 217.41796875 532.668945312 232.91796875 538.3359375 251.584960938 539.002929688 c 0
 262.251953125 539.669921875 277.584960938 540.002929688 297.584960938 540.002929688 c 1
 356.584960938 686.002929688 l 2
 367.251953125 706.669921875 379.918945312 721.002929688 394.5859375 729.002929688 c 0
 404.5859375 734.3359375 414.5859375 737.002929688 424.5859375 737.002929688 c 0
 428.5859375 737.002929688 432.918945312 736.3359375 437.5859375 735.002929688 c 0
 452.918945312 731.669921875 463.251953125 723.336914062 468.584960938 710.00390625 c 0
 470.985351562 704.404296875 472.185546875 698.204101562 472.185546875 691.404296875 c 0
 472.185546875 686.87109375 471.651367188 682.0703125 470.584960938 677.00390625 c 0
 469.251953125 671.00390625 466.918945312 665.00390625 463.5859375 659.00390625 c 2
 415.5859375 542.00390625 l 1
 496.5859375 542.00390625 l 1
 551.5859375 678.00390625 l 2
 562.252929688 699.336914062 574.919921875 714.00390625 589.586914062 722.00390625 c 0
 599.586914062 727.336914062 609.586914062 729.669921875 619.586914062 729.002929688 c 0
 624.25390625 729.002929688 628.920898438 728.669921875 633.587890625 728.002929688 c 0
 648.920898438 724.669921875 659.587890625 716.336914062 665.587890625 703.00390625 c 0
 667.98828125 697.803710938 669.188476562 692.00390625 669.188476562 685.603515625 c 0
 669.188476562 681.336914062 668.654296875 676.803710938 667.587890625 672.00390625 c 0
 666.254882812 665.336914062 663.587890625 658.336914062 659.587890625 651.00390625 c 0
 647.587890625 626.336914062 632.254882812 590.336914062 613.587890625 543.00390625 c 1
 630.254882812 542.336914062 642.921875 537.00390625 651.588867188 527.00390625 c 0
 659.921875 517.559570312 664.088867188 507.189453125 664.088867188 495.892578125 c 0
 664.088867188 493.633789062 663.921875 491.336914062 663.588867188 489.00390625 c 0
 660.255859375 473.670898438 652.422851562 460.670898438 640.08984375 450.00390625 c 0
 627.756835938 439.336914062 612.58984375 433.669921875 594.58984375 433.002929688 c 2
 593.58984375 433.002929688 l 1
 569.58984375 433.002929688 l 1
 512.58984375 286.002929688 l 1
 537.58984375 286.002929688 l 2
 555.58984375 286.002929688 567.256835938 281.3359375 572.58984375 272.002929688 c 0
 576.14453125 265.78125 577.922851562 258.522460938 577.922851562 250.2265625 c 0
 577.922851562 246.078125 577.477539062 241.669921875 576.588867188 237.002929688 c 2
 576.588867188 236.002929688 l 2
 573.255859375 220.002929688 566.922851562 207.669921875 557.58984375 199.002929688 c 0
 545.58984375 186.3359375 530.58984375 180.002929688 512.58984375 180.002929688 c 2
 470.58984375 180.002929688 l 1
 442.58984375 109.3359375 422.922851562 60.6689453125 411.58984375 34.001953125 c 0
 400.922851562 16.6689453125 386.922851562 3.3359375 369.58984375 -5.9970703125 c 0
 359.390625 -11.396484375 350.000976562 -14.0966796875 341.421875 -14.0966796875 c 0
 340.467773438 -14.0966796875 339.524414062 -14.0634765625 338.590820312 -13.9970703125 c 0
 333.2578125 -13.9970703125 328.2578125 -13.330078125 323.590820312 -11.9970703125 c 0
 309.590820312 -8.6640625 300.590820312 1.6689453125 296.590820312 19.001953125 c 0
 294.590820312 28.3349609375 294.923828125 37.66796875 297.590820312 47.0009765625 c 0
 299.590820312 55.0009765625 302.590820312 63.333984375 306.590820312 72.0009765625 c 0
 317.923828125 96.0009765625 333.256835938 131.66796875 352.58984375 179.000976562 c 1
 341.256835938 179.000976562 326.58984375 178.833984375 308.58984375 178.500976562 c 0
 290.58984375 178.16796875 275.922851562 178.000976562 264.58984375 178.000976562 c 1
 226.58984375 88.0009765625 206.922851562 41.333984375 205.58984375 38.0009765625 c 0
 196.256835938 21.333984375 182.256835938 7.6669921875 163.58984375 -3 c 0
 150.922851562 -10.3330078125 139.58984375 -14 129.58984375 -14 c 0
 124.922851562 -14 119.922851562 -13.3330078125 114.58984375 -12 c 0
 100.58984375 -8.6669921875 92.2568359375 2.3330078125 89.58984375 21 c 0
 88.2568359375 30.3330078125 88.58984375 39.5 90.58984375 48.5 c 0
 92.58984375 57.5 95.9228515625 66.6669921875 100.58984375 76 c 0
 108.58984375 92 123.922851562 125.666992188 146.58984375 177 c 1
 132.58984375 177 l 2
 114.58984375 177 101.58984375 181 93.58984375 189 c 0
 87.330078125 195.259765625 84.2001953125 203.2578125 84.2001953125 212.995117188 c 0
 84.2001953125 216.739257812 84.6630859375 220.741210938 85.5888671875 225 c 2
 85.5888671875 229 l 2
 88.921875 243 96.421875 255 108.088867188 265 c 0
 119.755859375 275 134.922851562 280.666992188 153.58984375 282 c 0
 158.922851562 282 165.58984375 282.166992188 173.58984375 282.5 c 0
 181.58984375 282.833007812 187.58984375 283 191.58984375 283 c 2
 253.58984375 431 l 1
454.5859375 433.001953125 m 1
 370.5859375 433.001953125 l 1
 309.5859375 287.001953125 l 1
 395.5859375 287.001953125 l 1
 415.5859375 334.334960938 435.252929688 383.001953125 454.5859375 433.001953125 c 1
EndSplineSet
Validated: 524289
EndChar

StartChar: dollar
Encoding: 36 36 11
Width: 590
GlyphClass: 2
Flags: HMW
HStem: 623.002 101
VStem: 486.361 117.492
LayerCount: 2
Fore
SplineSet
296.850585938 -130 m 0
 282.517578125 -140 267.026367188 -144.999023438 250.359375 -144.999023438 c 2
 249.359375 -144.999023438 l 2
 232.692382812 -144.999023438 221.359375 -138.999023438 215.359375 -126.999023438 c 0
 212.63671875 -121.943359375 211.275390625 -115.866210938 211.275390625 -108.767578125 c 0
 211.275390625 -103.698242188 211.969726562 -98.1083984375 213.358398438 -91.998046875 c 0
 214.025390625 -88.6650390625 215.525390625 -82.83203125 217.858398438 -74.4990234375 c 0
 220.19140625 -66.166015625 224.024414062 -51.9990234375 229.357421875 -31.9990234375 c 1
 207.357421875 -31.33203125 186.357421875 -27.9990234375 166.357421875 -21.9990234375 c 0
 147.690429688 -16.666015625 131.690429688 -8.666015625 118.357421875 2.0009765625 c 0
 93.0244140625 22.0009765625 77.0244140625 46.0009765625 70.357421875 74.0009765625 c 0
 68.8330078125 82.3818359375 68.0712890625 90.3271484375 68.0712890625 97.8369140625 c 0
 68.0712890625 103.469726562 68.5 108.857421875 69.357421875 114.000976562 c 0
 70.0244140625 118.000976562 71.357421875 121.66796875 73.357421875 125.000976562 c 0
 80.0244140625 139.66796875 91.0244140625 150.66796875 106.357421875 158.000976562 c 0
 115.024414062 162.000976562 121.857421875 164.500976562 126.857421875 165.500976562 c 0
 131.857421875 166.500976562 135.857421875 167.000976562 138.857421875 167.000976562 c 2
 147.357421875 167.000976562 l 2
 154.690429688 166.333984375 160.857421875 163.000976562 165.857421875 157.000976562 c 0
 170.857421875 151.000976562 175.357421875 143.333984375 179.357421875 134.000976562 c 0
 187.357421875 115.333984375 198.024414062 100.666992188 211.357421875 90 c 0
 222.690429688 81.3330078125 237.690429688 76.3330078125 256.357421875 75 c 1
 280.357421875 174.333007812 301.690429688 263.666015625 320.357421875 342.999023438 c 1
 318.357421875 342.999023438 314.690429688 343.666015625 309.357421875 344.999023438 c 0
 306.024414062 345.666015625 301.357421875 345.999023438 295.357421875 345.999023438 c 0
 270.024414062 348.666015625 248.357421875 355.333007812 230.357421875 366 c 0
 213.690429688 376.666992188 200.857421875 389.333984375 191.857421875 404.000976562 c 0
 182.857421875 418.66796875 177.024414062 434.500976562 174.357421875 451.500976562 c 0
 173.291015625 458.30078125 172.756835938 465.07421875 172.756835938 471.8203125 c 0
 172.756835938 481.940429688 173.95703125 492.000976562 176.357421875 502.000976562 c 0
 182.357421875 526.66796875 191.524414062 550.334960938 203.857421875 573.001953125 c 0
 216.190429688 595.668945312 232.0234375 616.8359375 251.356445312 636.502929688 c 0
 270.689453125 656.169921875 294.356445312 673.002929688 322.356445312 687.002929688 c 0
 349.0234375 699.669921875 377.356445312 709.002929688 407.356445312 715.002929688 c 1
 410.689453125 728.3359375 414.689453125 744.002929688 419.356445312 762.002929688 c 0
 427.356445312 794.002929688 442.356445312 814.3359375 464.356445312 823.002929688 c 0
 471.689453125 825.669921875 480.356445312 827.002929688 490.356445312 827.002929688 c 0
 511.0234375 827.002929688 524.356445312 820.002929688 530.356445312 806.002929688 c 0
 532.869140625 800.259765625 534.125976562 793.645507812 534.125976562 786.163085938 c 0
 534.125976562 779.748046875 533.203125 772.694335938 531.356445312 765.001953125 c 0
 526.689453125 745.001953125 523.356445312 731.334960938 521.356445312 724.001953125 c 1
 535.356445312 722.668945312 553.689453125 719.001953125 576.356445312 713.001953125 c 0
 598.356445312 707.668945312 615.356445312 702.668945312 627.356445312 698.001953125 c 0
 640.689453125 692.668945312 649.022460938 683.668945312 652.35546875 671.001953125 c 0
 655.022460938 661.668945312 655.35546875 652.001953125 653.35546875 642.001953125 c 0
 652.688476562 638.668945312 651.688476562 635.001953125 650.35546875 631.001953125 c 0
 647.022460938 621.001953125 641.522460938 613.001953125 633.85546875 607.001953125 c 0
 626.188476562 601.001953125 618.021484375 597.334960938 609.354492188 596.001953125 c 0
 605.354492188 595.334960938 601.6875 595.001953125 598.354492188 595.001953125 c 0
 595.021484375 595.001953125 591.354492188 595.168945312 587.354492188 595.501953125 c 0
 583.354492188 595.834960938 578.6875 597.001953125 573.354492188 599.001953125 c 0
 566.6875 600.334960938 559.020507812 603.001953125 550.353515625 607.001953125 c 0
 534.353515625 615.668945312 516.686523438 621.001953125 497.353515625 623.001953125 c 1
 481.353515625 558.334960938 466.020507812 497.001953125 451.353515625 439.001953125 c 1
 478.020507812 434.334960938 502.353515625 427.334960938 524.353515625 418.001953125 c 0
 544.353515625 408.001953125 560.020507812 396.001953125 571.353515625 382.001953125 c 0
 582.686523438 368.001953125 591.01953125 352.168945312 596.352539062 334.501953125 c 0
 601.372070312 317.873046875 603.881835938 301.245117188 603.881835938 284.616210938 c 0
 603.881835938 270.657226562 602.295898438 250.924804688 596.352539062 228.000976562 c 0
 589.01953125 196.66796875 577.01953125 167.000976562 560.352539062 139.000976562 c 0
 543.685546875 111.000976562 524.018554688 86.66796875 501.3515625 66.0009765625 c 0
 478.684570312 45.333984375 453.3515625 27.6669921875 425.3515625 13 c 0
 398.684570312 -0.3330078125 371.017578125 -11 342.350585938 -19 c 1
 334.350585938 -53 329.68359375 -76 328.350585938 -88 c 0
 321.68359375 -106 311.18359375 -120 296.850585938 -130 c 0
328.359375 585.000976562 m 0
 309.692382812 569.66796875 297.692382812 551.666992188 292.359375 531 c 0
 291.359375 526.666992188 290.859375 522.4375 290.859375 518.3125 c 0
 290.859375 505.9375 295.359375 494.5 304.359375 484 c 0
 314.359375 472 328.359375 463 346.359375 457 c 1
 356.359375 498.333007812 369.026367188 551.333007812 384.359375 616 c 1
 363.026367188 608.666992188 344.359375 598.333984375 328.359375 585.000976562 c 0
437.359375 137 m 0
 461.359375 157.666992188 476.360351562 181.33203125 482.360351562 207.999023438 c 0
 485.02734375 219.999023438 486.360351562 230.33203125 486.360351562 238.999023438 c 0
 486.360351562 248.999023438 484.02734375 259.33203125 479.360351562 269.999023438 c 0
 472.02734375 288.666015625 453.02734375 304.333007812 422.360351562 317 c 1
 404.360351562 240.333007812 392.52734375 190.5 386.860351562 167.5 c 0
 381.193359375 144.5 375.026367188 119.666992188 368.359375 93 c 1
 394.359375 105 417.359375 119.666992188 437.359375 137 c 0
EndSplineSet
Validated: 524289
EndChar

StartChar: percent
Encoding: 37 37 12
Width: 590
GlyphClass: 2
Flags: HMW
HStem: -40.0059 100.999<394.881 441.881 407.881 441.881> 158.993 98<469.881 470.878> 420 98.9951<235.207 280.88> 607.994 97.0068<290.88 346.542>
VStem: 312.881 97.998<102.993 103.993 103.993 103.993> 329.881 101.995 491.879 96.002
LayerCount: 2
Fore
SplineSet
155.374023438 491.5 m 0xf6
 153.431640625 500.612304688 152.4609375 509.959960938 152.4609375 519.541015625 c 0
 152.4609375 531.338867188 153.932617188 543.4921875 156.875976562 556 c 0
 156.875976562 556.666992188 157.208984375 557.333984375 157.875976562 558.000976562 c 0
 167.875976562 600.000976562 187.708984375 635.000976562 217.375976562 663.000976562 c 0
 247.04296875 691.000976562 283.875976562 705.000976562 327.875976562 705.000976562 c 0
 365.208984375 705.000976562 393.875976562 693.000976562 413.875976562 669.000976562 c 0
 424.54296875 656.333984375 430.54296875 640.000976562 431.875976562 620.000976562 c 0
 432.171875 616.446289062 432.3203125 612.79296875 432.3203125 609.041015625 c 0
 432.3203125 595.904296875 430.504882812 581.557617188 426.875 566.000976562 c 0
 414.875 515.333984375 392.875 477.666992188 360.875 453 c 0
 332.208007812 431 294.541015625 420 247.874023438 420 c 0
 222.541015625 420 201.874023438 426.833007812 185.874023438 440.5 c 0
 169.874023438 454.166992188 159.70703125 471.166992188 155.374023438 491.5 c 0xf6
63.8759765625 -45 m 0
 56.54296875 -41 50.8798828125 -36.0048828125 46.8798828125 -30.0048828125 c 0
 42.212890625 -22.0048828125 41.212890625 -12.5048828125 43.8798828125 -1.5048828125 c 0
 46.546875 9.4951171875 52.546875 21.328125 61.8798828125 33.9951171875 c 0
 81.212890625 61.9951171875 125.545898438 120.328125 194.87890625 208.995117188 c 0
 341.545898438 387.662109375 414.87890625 477.329101562 414.87890625 477.99609375 c 0
 488.211914062 567.99609375 538.544921875 632.663085938 565.877929688 671.99609375 c 0
 579.2109375 685.99609375 594.2109375 694.99609375 610.877929688 698.99609375 c 2
 624.877929688 700.99609375 l 2
 634.877929688 700.99609375 643.544921875 698.329101562 650.877929688 692.99609375 c 0
 662.911132812 686.030273438 668.927734375 676.356445312 668.927734375 663.975585938 c 0
 668.927734375 659.627929688 668.447265625 656.840820312 667.877929688 653.997070312 c 0
 665.2109375 642.6640625 658.543945312 630.331054688 647.876953125 616.998046875 c 0
 615.876953125 577.665039062 534.876953125 477.33203125 404.876953125 315.999023438 c 0
 274.209960938 154.666015625 187.54296875 45.666015625 144.875976562 -11.0009765625 c 0
 124.701171875 -37.6826171875 105.162109375 -51.0234375 86.2587890625 -51.0234375 c 0
 85.7978515625 -51.0234375 85.3369140625 -51.015625 84.8759765625 -51 c 0
 77.54296875 -51 70.54296875 -49 63.8759765625 -45 c 0
327.379882812 597.495117188 m 0
 321.712890625 604.495117188 311.546875 607.994140625 296.879882812 607.994140625 c 0
 284.879882812 607.994140625 275.546875 604.327148438 268.879882812 596.994140625 c 0
 260.212890625 588.327148438 253.212890625 576.327148438 247.879882812 560.994140625 c 0
 247.879882812 559.661132812 247.546875 558.328125 246.879882812 556.995117188 c 0
 244.212890625 544.995117188 244.712890625 535.995117188 248.379882812 529.995117188 c 0
 252.046875 523.995117188 262.546875 520.328125 279.879882812 518.995117188 c 2
 280.879882812 518.995117188 l 2
 292.879882812 518.995117188 302.546875 522.328125 309.879882812 528.995117188 c 0
 318.546875 536.995117188 325.213867188 547.662109375 329.880859375 560.995117188 c 0
 329.880859375 561.662109375 330.213867188 562.662109375 330.880859375 563.995117188 c 0
 332.115234375 569.673828125 332.732421875 574.780273438 332.732421875 579.31640625 c 0
 332.732421875 587.02734375 330.948242188 593.087890625 327.379882812 597.495117188 c 0
311.380859375 33.994140625 m 0
 309.108398438 43.69140625 307.971679688 53.6630859375 307.971679688 63.9111328125 c 0
 307.971679688 76.2080078125 309.608398438 88.90234375 312.880859375 101.993164062 c 1
 312.880859375 103.993164062 l 1xfa
 322.880859375 147.993164062 343.880859375 184.493164062 375.880859375 213.493164062 c 0
 407.880859375 242.493164062 446.880859375 256.993164062 492.880859375 256.993164062 c 0
 528.213867188 256.993164062 554.880859375 244.66015625 572.880859375 219.993164062 c 0
 582.213867188 206.66015625 587.213867188 189.327148438 587.880859375 167.994140625 c 0
 587.963867188 165.993164062 588.005859375 163.966796875 588.005859375 161.9140625 c 0
 588.005859375 147.549804688 585.963867188 131.909179688 581.880859375 114.994140625 c 0
 580.547851562 108.327148438 578.880859375 101.66015625 576.880859375 94.9931640625 c 0
 564.880859375 51.66015625 545.380859375 18.3271484375 518.380859375 -5.005859375 c 0
 491.380859375 -28.3388671875 456.213867188 -40.005859375 412.880859375 -40.005859375 c 2
 407.880859375 -40.005859375 l 2
 381.880859375 -40.005859375 360.547851562 -33.005859375 343.880859375 -19.005859375 c 0
 327.213867188 -5.005859375 316.380859375 12.6611328125 311.380859375 33.994140625 c 0
441.880859375 60.9931640625 m 2
 444.877929688 60.9921875 l 2
 456.2109375 60.9921875 465.2109375 64.3251953125 471.877929688 70.9921875 c 0
 480.544921875 79.6591796875 487.211914062 91.326171875 491.87890625 105.993164062 c 1
 491.87890625 108.993164062 l 2
 493.73046875 117.880859375 494.65625 125.53515625 494.65625 131.954101562 c 0
 494.65625 137.090820312 494.063476562 141.4375 492.877929688 144.993164062 c 0
 488.877929688 154.326171875 478.877929688 158.993164062 462.877929688 158.993164062 c 0
 450.877929688 158.993164062 440.877929688 154.66015625 432.877929688 145.993164062 c 0
 423.544921875 135.993164062 416.211914062 122.66015625 410.87890625 105.993164062 c 1
 410.87890625 102.993164062 l 2
 407.545898438 89.66015625 407.712890625 79.4931640625 411.379882812 72.4931640625 c 0
 415.046875 65.4931640625 425.213867188 61.66015625 441.880859375 60.9931640625 c 2
EndSplineSet
Validated: 524289
EndChar

StartChar: ampersand
Encoding: 38 38 13
Width: 590
GlyphClass: 2
Flags: HMW
HStem: -53.9971 117.999<208.213 261.88> 633.001 103.001<416.212 460.547>
LayerCount: 2
Fore
SplineSet
533.879882812 11 m 0
 533.212890625 7.6669921875 532.212890625 4.0009765625 530.879882812 0.0009765625 c 0
 523.546875 -23.33203125 512.546875 -38.6650390625 497.879882812 -45.998046875 c 0
 485.212890625 -50.6650390625 477.212890625 -52.998046875 473.879882812 -52.998046875 c 2
 472.879882812 -52.998046875 l 2
 464.879882812 -52.998046875 456.879882812 -50.3310546875 448.879882812 -44.998046875 c 0
 434.879882812 -36.3310546875 424.879882812 -21.3310546875 418.879882812 0.001953125 c 0
 418.212890625 3.3349609375 417.045898438 10.8349609375 415.37890625 22.501953125 c 2
 411.87890625 47.001953125 l 1
 403.87890625 38.3349609375 397.711914062 31.8349609375 393.37890625 27.501953125 c 0
 389.045898438 23.1689453125 382.212890625 16.8359375 372.879882812 8.5029296875 c 0
 363.546875 0.169921875 355.713867188 -6.330078125 349.380859375 -10.9970703125 c 0
 343.047851562 -15.6640625 334.547851562 -21.1640625 323.880859375 -27.4970703125 c 0
 313.213867188 -33.830078125 303.213867188 -38.4970703125 293.880859375 -41.4970703125 c 0
 284.547851562 -44.4970703125 274.047851562 -47.330078125 262.380859375 -49.9970703125 c 0
 250.713867188 -52.6640625 238.880859375 -53.9970703125 226.880859375 -53.9970703125 c 0
 189.547851562 -53.9970703125 158.047851562 -43.830078125 132.380859375 -23.4970703125 c 0
 106.713867188 -3.1640625 89.2138671875 23.6689453125 79.880859375 57.001953125 c 0
 75.0419921875 74.28515625 72.6220703125 92.28515625 72.6220703125 111.002929688 c 0
 72.6220703125 128.383789062 74.708984375 146.383789062 78.8818359375 165.001953125 c 0
 92.21484375 223.001953125 113.881835938 272.668945312 143.881835938 314.001953125 c 0
 178.548828125 362.668945312 223.881835938 400.668945312 279.881835938 428.001953125 c 1
 269.881835938 455.501953125 l 2
 265.881835938 466.501953125 262.881835938 475.001953125 260.881835938 481.001953125 c 0
 258.881835938 487.001953125 256.71484375 494.834960938 254.381835938 504.501953125 c 0
 252.048828125 514.168945312 250.881835938 522.668945312 250.881835938 530.001953125 c 0
 250.881835938 550.001953125 253.21484375 569.668945312 257.881835938 589.001953125 c 0
 260.548828125 601.668945312 265.048828125 614.501953125 271.381835938 627.501953125 c 0
 277.71484375 640.501953125 286.381835938 653.668945312 297.381835938 667.001953125 c 0
 308.381835938 680.334960938 321.048828125 692.001953125 335.381835938 702.001953125 c 0
 349.71484375 712.001953125 366.881835938 720.168945312 386.881835938 726.501953125 c 0
 406.881835938 732.834960938 428.21484375 736.001953125 450.881835938 736.001953125 c 0
 470.21484375 736.001953125 488.381835938 732.668945312 505.381835938 726.001953125 c 0
 522.381835938 719.334960938 537.21484375 709.834960938 549.881835938 697.501953125 c 0
 562.548828125 685.168945312 571.048828125 668.668945312 575.381835938 648.001953125 c 0
 577.19921875 639.334960938 578.107421875 630.2578125 578.107421875 620.770507812 c 0
 578.107421875 607.633789062 576.365234375 593.7109375 572.881835938 579.001953125 c 0
 567.548828125 556.334960938 560.048828125 535.16796875 550.381835938 515.500976562 c 0
 540.71484375 495.833984375 530.21484375 479.333984375 518.881835938 466.000976562 c 0
 507.548828125 452.66796875 494.215820312 440.16796875 478.8828125 428.500976562 c 0
 463.549804688 416.833984375 450.716796875 408.000976562 440.383789062 402.000976562 c 0
 430.05078125 396.000976562 419.883789062 390.66796875 409.883789062 386.000976562 c 1
 416.55078125 366.000976562 426.55078125 340.833984375 439.883789062 310.500976562 c 0
 453.216796875 280.16796875 462.549804688 257.66796875 467.8828125 243.000976562 c 1
 470.549804688 247.000976562 474.549804688 253.16796875 479.8828125 261.500976562 c 0
 485.215820312 269.833984375 490.548828125 278.000976562 495.881835938 286.000976562 c 0
 501.21484375 294.000976562 505.547851562 300.000976562 508.880859375 304.000976562 c 0
 525.547851562 324.000976562 540.880859375 336.333984375 554.880859375 341.000976562 c 0
 560.213867188 343.000976562 565.546875 344.000976562 570.879882812 344.000976562 c 0
 579.546875 344.000976562 587.879882812 341.66796875 595.879882812 337.000976562 c 0
 607.340820312 330.366210938 613.071289062 319.091796875 613.071289062 303.178710938 c 0
 613.071289062 301.50390625 613.0078125 299.778320312 612.880859375 298.000976562 c 0
 612.880859375 294.000976562 612.213867188 290.000976562 610.880859375 286.000976562 c 0
 607.547851562 272.000976562 600.547851562 257.333984375 589.880859375 242.000976562 c 0
 585.213867188 235.333984375 573.213867188 222.166992188 553.880859375 202.5 c 0
 534.547851562 182.833007812 518.547851562 165.333007812 505.880859375 150 c 1
 509.880859375 138 515.047851562 121.166992188 521.380859375 99.5 c 0
 527.713867188 77.8330078125 531.546875 65 532.879882812 61 c 0
 535.392578125 52.384765625 536.649414062 43.576171875 536.649414062 34.57421875 c 0
 536.649414062 26.8583984375 535.7265625 19 533.879882812 11 c 0
364.879882812 572.000976562 m 0
 363.213867188 564.66796875 362.379882812 557.000976562 362.379882812 549.000976562 c 0
 362.379882812 541.001953125 363.213867188 532.668945312 364.879882812 524.001953125 c 0
 368.212890625 506.668945312 372.879882812 491.668945312 378.879882812 479.001953125 c 1
 390.212890625 482.334960938 400.212890625 486.16796875 408.879882812 490.500976562 c 0
 417.546875 494.833984375 426.379882812 500.333984375 435.379882812 507.000976562 c 0
 444.379882812 513.66796875 451.712890625 522.000976562 457.379882812 532.000976562 c 0
 463.046875 542.000976562 467.546875 554.333984375 470.879882812 569.000976562 c 0
 472.473632812 576.057617188 473.270507812 582.551757812 473.270507812 588.481445312 c 0
 473.270507812 599.916992188 470.306640625 609.256835938 464.379882812 616.500976562 c 0
 455.379882812 627.500976562 442.212890625 633.000976562 424.879882812 633.000976562 c 0
 407.546875 633.000976562 393.879882812 627.333984375 383.879882812 616.000976562 c 0
 375.879882812 606.000976562 369.546875 591.333984375 364.879882812 572.000976562 c 0
196.879882812 174.001953125 m 0
 193.947265625 161.203125 192.48046875 149.310546875 192.48046875 138.32421875 c 0
 192.48046875 121.842773438 195.780273438 107.40234375 202.380859375 95.001953125 c 0
 213.380859375 74.3349609375 230.880859375 64.001953125 254.880859375 64.001953125 c 0
 268.880859375 64.001953125 283.880859375 66.6689453125 299.880859375 72.001953125 c 0
 305.213867188 73.3349609375 311.380859375 76.3349609375 318.380859375 81.001953125 c 2
 334.880859375 92.001953125 l 2
 338.880859375 94.6689453125 343.880859375 99.001953125 349.880859375 105.001953125 c 0
 355.880859375 111.001953125 360.213867188 115.168945312 362.880859375 117.501953125 c 0
 365.547851562 119.834960938 368.880859375 123.501953125 372.880859375 128.501953125 c 0
 376.880859375 133.501953125 379.547851562 136.668945312 380.880859375 138.001953125 c 0
 376.880859375 158.001953125 372.880859375 176.001953125 368.880859375 192.001953125 c 0
 364.880859375 207.334960938 356.380859375 230.834960938 343.380859375 262.501953125 c 0
 330.380859375 294.168945312 320.880859375 318.001953125 314.880859375 334.001953125 c 1
 299.547851562 326.668945312 285.547851562 318.001953125 272.880859375 308.001953125 c 0
 258.213867188 296.001953125 246.046875 283.001953125 236.379882812 269.001953125 c 0
 226.712890625 255.001953125 218.712890625 240.334960938 212.379882812 225.001953125 c 0
 206.046875 209.668945312 200.879882812 192.668945312 196.879882812 174.001953125 c 0
EndSplineSet
Validated: 524289
EndChar

StartChar: quotesingle
Encoding: 39 39 14
Width: 590
GlyphClass: 2
Flags: W
LayerCount: 2
Fore
SplineSet
517.790039062 728 m 0
 515.790039062 719.333007812 512.790039062 705.833007812 508.790039062 687.5 c 0
 504.790039062 669.166992188 498.123046875 641.333984375 488.790039062 604.000976562 c 0
 474.123046875 546.000976562 462.790039062 506.000976562 454.790039062 484.000976562 c 0
 448.790039062 466.66796875 438.790039062 453.66796875 424.790039062 445.000976562 c 0
 412.790039062 437.66796875 401.123046875 434.000976562 389.790039062 434.000976562 c 0
 373.790039062 434.000976562 360.45703125 439.000976562 349.790039062 449.000976562 c 0
 343.256835938 455.534179688 339.990234375 463.701171875 339.990234375 473.500976562 c 0
 339.990234375 477.701171875 340.58984375 482.201171875 341.790039062 487.000976562 c 0
 341.790039062 489.000976562 342.45703125 491.000976562 343.790039062 493.000976562 c 0
 351.790039062 519.66796875 359.123046875 549.66796875 365.790039062 583.000976562 c 0
 376.45703125 630.333984375 387.124023438 680.000976562 397.791015625 732.000976562 c 1
 397.791015625 735.000976562 l 2
 399.791015625 744.333984375 403.791015625 752.666992188 409.791015625 760 c 0
 416.458007812 768.666992188 424.125 774.666992188 432.791992188 778 c 0
 444.791992188 782.666992188 456.791992188 785 468.791992188 785 c 0
 478.125 785 485.458007812 784 490.791015625 782 c 0
 496.124023438 780 501.45703125 777.333007812 506.790039062 774 c 0
 512.790039062 770 516.623046875 763.833007812 518.290039062 755.5 c 0
 519.95703125 747.166992188 519.790039062 738 517.790039062 728 c 0
EndSplineSet
Validated: 524289
EndChar

StartChar: parenleft
Encoding: 40 40 15
Width: 590
GlyphClass: 2
Flags: HMW
HStem: -144 109<335.999 390.662> 721 105<549.666 590.665>
LayerCount: 2
Fore
SplineSet
417.994140625 -93 m 0
 414.661132812 -107.666992188 406.666015625 -119.833007812 393.999023438 -129.5 c 0
 381.33203125 -139.166992188 369.33203125 -144 357.999023438 -144 c 0
 313.999023438 -144 277.999023438 -127 249.999023438 -93 c 0
 221.999023438 -59 203.83203125 -13 195.499023438 45 c 0
 191.844726562 70.4375 190.016601562 97.5419921875 190.016601562 126.314453125 c 0
 190.016601562 163.14453125 193.01171875 202.706054688 199 245 c 0
 201.666992188 265.666992188 206.666992188 291.5 214 322.5 c 0
 221.333007812 354.166992188 232 392.666992188 246 438 c 0
 270.666992188 517.333007812 298 582.333007812 328 633 c 0
 341.333007812 656.333007812 357.666015625 679 376.999023438 701 c 0
 396.33203125 723 416.999023438 743.5 438.999023438 762.5 c 0
 460.999023438 781.5 484.83203125 796.833007812 510.499023438 808.5 c 0
 536.166015625 820.166992188 559.999023438 826 581.999023438 826 c 0
 599.33203125 826 610.999023438 820.333007812 616.999023438 809 c 0
 619.721679688 803.944335938 621.083007812 797.75390625 621.083007812 790.428710938 c 0
 621.083007812 785.197265625 620.388671875 779.387695312 619 773 c 0
 615 755 606.666992188 741.666992188 594 733 c 0
 582.666992188 725 570.166992188 721 556.5 721 c 0
 542.833007812 721 528.666015625 716.5 513.999023438 707.5 c 0
 499.33203125 698.5 485.33203125 685.666992188 471.999023438 669 c 0
 444.666015625 637 420.666015625 597.333007812 399.999023438 550 c 0
 383.999023438 514.666992188 367.666015625 468 350.999023438 410 c 0
 342.33203125 379.333007812 335.165039062 351.833007812 329.498046875 327.5 c 0
 323.831054688 303.166992188 319.6640625 281.666992188 316.997070312 263 c 0
 311.854492188 228.713867188 309.283203125 195.286132812 309.283203125 162.71484375 c 0
 309.283203125 157.286132812 309.354492188 151.880859375 309.497070312 146.5 c 0
 310.497070312 108.833007812 314.6640625 76.8330078125 321.997070312 50.5 c 0
 329.330078125 24.1669921875 338.663085938 3 349.99609375 -13 c 0
 360.663085938 -27 371.663085938 -34.3330078125 382.99609375 -35 c 0
 398.329101562 -35 409.162109375 -39.3330078125 415.495117188 -48 c 0
 419.141601562 -52.990234375 420.963867188 -60.0791015625 420.963867188 -69.2666015625 c 0
 420.963867188 -76.0380859375 419.974609375 -83.94921875 417.994140625 -93 c 0
EndSplineSet
Validated: 524289
EndChar

StartChar: parenright
Encoding: 41 41 16
Width: 590
GlyphClass: 2
Flags: HMW
HStem: -144 108.998<177.233 181.9> 721 105<353.567 394.233>
VStem: 438.9 108.999
LayerCount: 2
Fore
SplineSet
159.900390625 -144 m 0
 148.567382812 -144 138.568359375 -139.169921875 129.901367188 -129.502929688 c 0
 123.641601562 -122.520507812 120.51171875 -114.234375 120.51171875 -104.64453125 c 0
 120.51171875 -100.95703125 120.974609375 -97.076171875 121.900390625 -93.001953125 c 0
 126.567382812 -71.6689453125 134.400390625 -56.6689453125 145.400390625 -48.001953125 c 0
 156.400390625 -39.3349609375 169.567382812 -35.001953125 184.900390625 -35.001953125 c 0
 196.233398438 -35.001953125 210.56640625 -27.6689453125 227.899414062 -13.001953125 c 0
 246.56640625 2.998046875 265.56640625 24.1650390625 284.899414062 50.498046875 c 0
 304.232421875 76.8310546875 323.232421875 108.998046875 341.899414062 146.998046875 c 0
 360.56640625 184.998046875 376.233398438 223.665039062 388.900390625 262.998046875 c 0
 394.900390625 282.998046875 400.567382812 304.831054688 405.900390625 328.498046875 c 0
 411.233398438 352.165039062 416.900390625 379.33203125 422.900390625 409.999023438 c 0
 433.567382812 468.666015625 438.900390625 515.333007812 438.900390625 550 c 0
 438.93359375 552.333984375 438.950195312 554.65234375 438.950195312 556.953125 c 0
 438.950195312 600.65234375 432.93359375 638.333984375 420.900390625 670 c 0
 414.900390625 686 406.733398438 698.5 396.400390625 707.5 c 0
 386.067382812 716.5 374.067382812 721 360.400390625 721 c 0
 346.733398438 721 335.900390625 725 327.900390625 733 c 0
 321.970703125 738.9296875 319.005859375 747.043945312 319.005859375 757.342773438 c 0
 319.005859375 762.096679688 319.63671875 767.315429688 320.900390625 773 c 0
 322.900390625 783 326.567382812 792 331.900390625 800 c 0
 337.233398438 808 343.56640625 814 350.899414062 818 c 0
 360.899414062 823.333007812 371.56640625 826 382.899414062 826 c 0
 405.56640625 826 426.899414062 820.166992188 446.899414062 808.5 c 0
 466.899414062 796.833007812 483.56640625 781.5 496.899414062 762.5 c 0
 510.232421875 743.5 521.399414062 723 530.399414062 701 c 0
 539.399414062 679 545.232421875 656.333007812 547.899414062 633 c 0
 549.9765625 615.231445312 551.014648438 595.825195312 551.014648438 574.78125 c 0
 551.014648438 535.030273438 547.309570312 489.436523438 539.899414062 438 c 0
 533.232421875 392 526.232421875 353.5 518.899414062 322.5 c 0
 511.56640625 291.5 504.56640625 265.666992188 497.899414062 245 c 0
 473.899414062 169.666992188 444.232421875 103 408.899414062 45 c 0
 373.56640625 -13 334.233398438 -59 290.900390625 -93 c 0
 247.567382812 -127 203.900390625 -144 159.900390625 -144 c 0
EndSplineSet
Validated: 524289
EndChar

StartChar: asterisk
Encoding: 42 42 17
Width: 590
GlyphClass: 2
Flags: HMW
HStem: 281.001 127.999<162.601 198.602> 289 119.001<556.934 586.6> 294 101.001
LayerCount: 2
Fore
SplineSet
234.6015625 102 m 2x20
 225.600585938 102.000976562 l 2
 221.600585938 102.000976562 216.43359375 102.66796875 210.100585938 104.000976562 c 0
 203.767578125 105.333984375 197.934570312 108.166992188 192.6015625 112.5 c 0
 187.268554688 116.833007812 182.935546875 122.833007812 179.602539062 130.5 c 0
 176.26953125 138.166992188 175.26953125 147.333984375 176.602539062 158.000976562 c 0
 176.602539062 160.000976562 176.935546875 162.66796875 177.602539062 166.000976562 c 0
 179.602539062 176.66796875 184.602539062 186.66796875 192.602539062 196.000976562 c 2
 263.602539062 285.000976562 l 1
 222.935546875 282.333984375 192.268554688 281.000976562 171.6015625 281.000976562 c 0
 153.6015625 281.000976562 140.6015625 287.66796875 132.6015625 301.000976562 c 0
 127.83984375 309.572265625 125.458984375 319.1640625 125.458984375 329.775390625 c 0
 125.458984375 334.020507812 125.83984375 338.4296875 126.6015625 343.000976562 c 2
 126.6015625 346.000976562 l 2
 129.268554688 359.333984375 135.935546875 372.666992188 146.602539062 386 c 0
 152.602539062 394 160.602539062 400 170.602539062 404 c 0
 177.935546875 407.333007812 185.935546875 409 194.602539062 409 c 2
 198.602539062 409 l 1
 199.602539062 409 l 2x80
 224.26953125 407 258.26953125 404.333007812 301.602539062 401 c 1
 288.935546875 439.666992188 277.935546875 470 268.602539062 492 c 0
 265.3203125 501.026367188 263.6796875 510.177734375 263.6796875 519.456054688 c 0
 263.6796875 525.254882812 264.3203125 531.102539062 265.602539062 537 c 0
 266.26953125 539.666992188 267.26953125 542.333984375 268.602539062 545.000976562 c 0
 275.26953125 563.66796875 285.602539062 576.66796875 299.602539062 584.000976562 c 0
 308.935546875 589.333984375 318.768554688 592.000976562 329.1015625 592.000976562 c 0
 339.434570312 592.000976562 348.934570312 589.000976562 357.6015625 583.000976562 c 0
 366.934570312 576.333984375 372.934570312 566.333984375 375.6015625 553.000976562 c 0
 378.268554688 539.000976562 385.935546875 507.333984375 398.602539062 458.000976562 c 1
 425.26953125 492.66796875 447.602539062 524.000976562 465.602539062 552.000976562 c 0
 474.26953125 564.66796875 484.26953125 574.16796875 495.602539062 580.500976562 c 0
 506.935546875 586.833984375 517.268554688 590.000976562 526.6015625 590.000976562 c 0
 536.6015625 590.000976562 544.934570312 587.333984375 551.6015625 582.000976562 c 0
 558.268554688 578.000976562 563.1015625 571.333984375 566.1015625 562.000976562 c 0
 567.689453125 557.059570312 568.484375 551.745117188 568.484375 546.055664062 c 0
 568.484375 541 567.856445312 535.647460938 566.6015625 530.000976562 c 0
 563.934570312 516.66796875 557.267578125 504.334960938 546.600585938 493.001953125 c 0
 523.267578125 466.334960938 497.600585938 433.66796875 469.600585938 395.000976562 c 1x20
 512.93359375 395.66796875 544.266601562 399.000976562 563.599609375 405.000976562 c 0
 572.266601562 407.000976562 577.93359375 408.000976562 580.600585938 408.000976562 c 0x40
 592.600585938 408.000976562 601.93359375 403.66796875 608.600585938 395.000976562 c 0x20
 616.100585938 385.500976562 619.850585938 375.4375 619.850585938 364.8125 c 0
 619.850585938 361.270507812 619.43359375 357.666992188 618.600585938 354 c 0
 615.267578125 339.333007812 608.600585938 325.333007812 598.600585938 312 c 0
 592.600585938 304 585.267578125 297.666992188 576.600585938 293 c 0
 570.600585938 290.333007812 564.600585938 289 558.600585938 289 c 0x40
 555.267578125 289 551.934570312 289.333007812 548.6015625 290 c 0
 533.934570312 292.666992188 506.934570312 294 467.6015625 294 c 2
 446.6015625 294 l 1
 477.6015625 196 l 2
 479.453125 187.852539062 480.37890625 180.116210938 480.37890625 172.791992188 c 0
 480.37890625 166.931640625 479.786132812 161.333984375 478.600585938 156 c 0
 477.93359375 153.333007812 476.93359375 150.666015625 475.600585938 147.999023438 c 0
 470.267578125 132.666015625 461.267578125 121.333007812 448.600585938 114 c 0
 437.93359375 108 426.266601562 105 413.599609375 105 c 0
 403.599609375 105 394.266601562 107.333007812 385.599609375 112 c 0
 374.266601562 118 368.266601562 128 367.599609375 142 c 0
 366.266601562 164 360.599609375 194.666992188 350.599609375 234 c 1
 316.599609375 184.666992188 294.599609375 151.666992188 284.599609375 135 c 0
 279.266601562 124.333007812 271.93359375 116.333007812 262.600585938 111 c 0
 253.267578125 105.666992188 243.934570312 102.666992188 234.6015625 102 c 2x20
EndSplineSet
Validated: 524289
EndChar

StartChar: plus
Encoding: 43 43 18
Width: 590
GlyphClass: 2
Flags: HMW
HStem: 346 106<508.682 514.682 508.682 508.682>
LayerCount: 2
Fore
SplineSet
418.682617188 348 m 1
 396.685546875 250 l 2
 392.018554688 230.666992188 384.518554688 217 374.185546875 209 c 0
 363.852539062 201 352.01953125 196.333007812 338.686523438 195 c 2
 337.686523438 195 l 2
 323.01953125 195 312.01953125 199 304.686523438 207 c 0
 298.747070312 212.939453125 295.77734375 220.903320312 295.77734375 230.892578125 c 0
 295.77734375 236.599609375 296.747070312 242.96875 298.686523438 249.999023438 c 2
 320.686523438 344.999023438 l 1
 237.686523438 343.999023438 l 2
 219.01953125 343.999023438 206.186523438 349.33203125 199.186523438 359.999023438 c 0
 194.444335938 367.224609375 192.07421875 375.369140625 192.07421875 384.430664062 c 0
 192.07421875 388.745117188 192.611328125 393.268554688 193.686523438 398 c 0
 193.686523438 398.666992188 194.01953125 400 194.686523438 402 c 0
 198.01953125 416 205.352539062 428.333007812 216.685546875 439 c 0
 228.018554688 449.666992188 242.3515625 455 259.684570312 455 c 0
 261.017578125 455 270.850585938 454.833007812 289.18359375 454.5 c 0
 307.516601562 454.166992188 326.349609375 453.666992188 345.682617188 453 c 1
 354.349609375 492.333007812 361.016601562 525.666015625 365.68359375 552.999023438 c 0
 369.68359375 571.666015625 378.68359375 585.333007812 392.68359375 594 c 0
 402.68359375 600.666992188 414.68359375 604 428.68359375 604 c 2
 432.68359375 604 l 2
 446.016601562 604 456.349609375 600.666992188 463.682617188 594 c 0
 469.31640625 588.799804688 472.1328125 581.487304688 472.1328125 572.0625 c 0
 472.1328125 566.987304688 471.31640625 561.299804688 469.682617188 555 c 0
 469.682617188 553 469.349609375 551 468.682617188 549 c 0
 458.682617188 515 450.349609375 482.666992188 443.682617188 452 c 1
 534.682617188 452 l 2
 552.682617188 452 564.349609375 447.333007812 569.682617188 438 c 0
 573.237304688 431.778320312 575.015625 424.51953125 575.015625 416.223632812 c 0
 575.015625 412.075195312 574.5703125 407.666992188 573.681640625 403 c 2
 573.681640625 402 l 2
 572.348632812 394.666992188 570.348632812 388.166992188 567.681640625 382.5 c 0
 565.014648438 376.833007812 561.34765625 371 556.680664062 365 c 0
 551.34765625 357.666992188 544.014648438 352.666992188 534.681640625 350 c 0
 528.681640625 348 522.014648438 346.666992188 514.681640625 346 c 2
 508.681640625 346 l 2
 499.348632812 346.666992188 486.015625 347.166992188 468.682617188 347.5 c 0
 451.349609375 347.833007812 434.682617188 348 418.682617188 348 c 1
EndSplineSet
Validated: 524289
EndChar

StartChar: comma
Encoding: 44 44 19
Width: 590
GlyphClass: 2
Flags: HMW
VStem: 146.631 279.998
LayerCount: 2
Fore
SplineSet
217.626953125 -223 m 0
 206.293945312 -227 196.963867188 -228.999023438 189.630859375 -228.999023438 c 0
 182.297851562 -228.999023438 176.297851562 -227.999023438 171.630859375 -225.999023438 c 0
 164.297851562 -223.33203125 158.130859375 -218.165039062 153.130859375 -210.498046875 c 0
 148.130859375 -202.831054688 145.963867188 -193.331054688 146.630859375 -181.998046875 c 0
 146.630859375 -179.998046875 146.963867188 -177.998046875 147.630859375 -175.998046875 c 0
 149.630859375 -165.998046875 155.297851562 -155.998046875 164.630859375 -145.998046875 c 0
 181.297851562 -127.331054688 208.630859375 -84.3310546875 246.630859375 -16.998046875 c 0
 284.630859375 49.6689453125 308.963867188 96.6689453125 319.630859375 124.001953125 c 0
 324.963867188 136.001953125 332.963867188 145.501953125 343.630859375 152.501953125 c 0
 354.297851562 159.501953125 364.630859375 163.001953125 374.630859375 163.001953125 c 0
 375.297851562 163.001953125 376.297851562 163.334960938 377.630859375 164.001953125 c 0
 384.963867188 164.001953125 392.296875 163.001953125 399.629882812 161.001953125 c 0
 410.962890625 157.001953125 419.295898438 149.334960938 424.62890625 138.001953125 c 0
 427.029296875 132.40234375 428.229492188 126.202148438 428.229492188 119.40234375 c 0
 428.229492188 114.869140625 427.6953125 110.068359375 426.62890625 105.001953125 c 0
 425.961914062 100.334960938 424.62890625 96.66796875 422.62890625 94.0009765625 c 0
 408.62890625 61.333984375 383.62890625 10.333984375 347.62890625 -58.9990234375 c 0
 310.961914062 -128.33203125 284.794921875 -171.33203125 269.127929688 -187.999023438 c 0
 253.4609375 -204.666015625 236.293945312 -216.333007812 217.626953125 -223 c 0
EndSplineSet
Validated: 524289
EndChar

StartChar: hyphen
Encoding: 45 45 20
Width: 590
GlyphClass: 2
Flags: HMW
HStem: 230.001 111.999<234.695 283.695> 234.501 109
VStem: 203.028 313.001<285 296.001>
LayerCount: 2
Fore
SplineSet
266.028320312 342 m 0xa0
 301.361328125 342 343.529296875 342.500976562 392.529296875 343.500976562 c 0
 441.529296875 344.500976562 469.362304688 345.000976562 476.029296875 345.000976562 c 0
 494.029296875 345.000976562 505.862304688 340.333984375 511.529296875 331.000976562 c 0
 515.3828125 324.654296875 517.309570312 317.229492188 517.309570312 308.724609375 c 0
 517.309570312 304.72265625 516.8828125 300.481445312 516.029296875 296.000976562 c 1
 515.029296875 295.000976562 l 1
 511.696289062 279.000976562 505.696289062 266.66796875 497.029296875 258.000976562 c 0
 485.029296875 245.333984375 470.029296875 239.000976562 452.029296875 239.000976562 c 0
 444.029296875 239.000976562 412.529296875 237.500976562 357.529296875 234.500976562 c 0x60
 302.529296875 231.500976562 264.029296875 230.000976562 242.029296875 230.000976562 c 0
 227.362304688 230.000976562 216.6953125 234.000976562 210.028320312 242.000976562 c 0
 204.098632812 248.38671875 201.133789062 257.11328125 201.133789062 268.1796875 c 0
 201.133789062 273.288085938 201.764648438 278.89453125 203.028320312 285 c 0
 203.028320312 286.333007812 203.361328125 288 204.028320312 290 c 0
 208.028320312 308.666992188 216.6953125 322.666992188 230.028320312 332 c 0
 240.028320312 338.666992188 252.028320312 342 266.028320312 342 c 0xa0
EndSplineSet
Validated: 524289
EndChar

StartChar: period
Encoding: 46 46 21
Width: 590
GlyphClass: 2
Flags: HMW
HStem: -26 178.002<270.56 346.893 281.56 346.893>
VStem: 221.56 175.5
LayerCount: 2
Fore
SplineSet
281.559570312 -26 m 2
 259.559570312 -26 242.892578125 -18 231.559570312 -2 c 0
 222.963867188 10.6669921875 218.666992188 24.71484375 218.666992188 40.14453125 c 0
 218.666992188 47.453125 219.630859375 55.072265625 221.559570312 63.0009765625 c 0
 227.559570312 87.66796875 241.559570312 108.334960938 263.559570312 125.001953125 c 0
 287.559570312 143.001953125 311.392578125 152.001953125 335.059570312 152.001953125 c 0
 358.7265625 152.001953125 376.2265625 144.001953125 387.559570312 128.001953125 c 0
 395.7109375 116.680664062 399.786132812 103.514648438 399.786132812 88.5029296875 c 0
 399.786132812 81.4130859375 398.876953125 73.9130859375 397.059570312 66.0009765625 c 0
 391.392578125 41.333984375 378.892578125 20.6669921875 359.559570312 4 c 0
 340.2265625 -12.6669921875 317.559570312 -22.6669921875 291.559570312 -26 c 2
 281.559570312 -26 l 2
EndSplineSet
Validated: 524289
EndChar

StartChar: slash
Encoding: 47 47 22
Width: 590
GlyphClass: 2
Flags: HMW
HStem: 746 20G<648.093 658.093>
LayerCount: 2
Fore
SplineSet
106.091796875 -67 m 0
 96.091796875 -71 86.7607421875 -73.16796875 78.09375 -73.5009765625 c 0
 69.4267578125 -73.833984375 62.09375 -71.333984375 56.09375 -66.0009765625 c 0
 47.560546875 -59.6015625 43.2939453125 -48.5078125 43.2939453125 -32.7216796875 c 0
 43.2939453125 -28.775390625 43.560546875 -24.53515625 44.09375 -20.0009765625 c 0
 44.09375 -16.66796875 44.7607421875 -13.0009765625 46.09375 -9.0009765625 c 0
 50.09375 8.33203125 58.09375 24.9990234375 70.09375 40.9990234375 c 0
 197.426757812 200.999023438 307.759765625 342.999023438 401.092773438 466.999023438 c 0
 459.092773438 542.999023438 521.759765625 629.666015625 589.092773438 726.999023438 c 0
 597.759765625 739.666015625 608.092773438 749.333007812 620.092773438 756 c 0
 632.092773438 762.666992188 643.092773438 766 653.092773438 766 c 0
 663.092773438 766 672.42578125 763.666992188 681.092773438 759 c 0
 693.759765625 751 700.426757812 739 701.09375 723 c 0
 701.09375 718.333007812 700.426757812 713.333007812 699.09375 708 c 0
 696.426757812 696.666992188 690.759765625 684.333984375 682.092773438 671.000976562 c 0
 658.092773438 636.333984375 593.42578125 552.500976562 488.092773438 419.500976562 c 0
 382.759765625 286.500976562 318.092773438 204.000976562 294.092773438 172.000976562 c 0
 279.42578125 151.333984375 255.258789062 116.333984375 221.591796875 67.0009765625 c 0
 187.924804688 17.66796875 167.091796875 -12.33203125 159.091796875 -22.9990234375 c 0
 143.091796875 -43.666015625 125.424804688 -58.3330078125 106.091796875 -67 c 0
EndSplineSet
Validated: 524289
EndChar

StartChar: zero
Encoding: 48 48 23
Width: 590
GlyphClass: 2
Flags: HMW
HStem: -24 107.996<247.542 298.21> 611.997 106.003<419.877 492.544>
LayerCount: 2
Fore
SplineSet
642.2109375 491 m 0
 641.543945312 488.333007812 641.54296875 487.999023438 642.209960938 489.999023438 c 1
 636.209960938 450.666015625 628.54296875 410.666015625 619.209960938 369.999023438 c 0
 609.876953125 329.33203125 599.376953125 289.33203125 587.709960938 249.999023438 c 0
 576.04296875 210.666015625 564.875976562 179.666015625 554.208984375 156.999023438 c 0
 533.541992188 114.33203125 511.541992188 79.6650390625 488.208984375 52.998046875 c 0
 476.875976562 39.6650390625 464.54296875 28.33203125 451.209960938 18.9990234375 c 0
 437.876953125 9.666015625 424.876953125 2.3330078125 412.209960938 -3 c 0
 398.876953125 -8.3330078125 383.876953125 -13 367.209960938 -17 c 0
 350.54296875 -20.3330078125 334.375976562 -22.3330078125 318.708984375 -23 c 0
 303.041992188 -23.6669921875 284.875 -24 264.208007812 -24 c 0
 230.875 -24 201.208007812 -18.3330078125 175.208007812 -7 c 0
 151.208007812 4.3330078125 132.208007812 20.5 118.208007812 41.5 c 0
 104.208007812 62.5 95.7080078125 87.6669921875 92.7080078125 117 c 0
 91.8896484375 125 91.48046875 133.173828125 91.48046875 141.520507812 c 0
 91.48046875 163.779296875 94.3896484375 187.272460938 100.208007812 212 c 0
 100.208007812 214 100.541015625 216 101.208007812 218 c 0
 108.541015625 250 115.541015625 280.666992188 122.208007812 310 c 0
 126.875 330.666992188 133.041992188 356 140.708984375 386 c 0
 148.375976562 416 155.54296875 440.833007812 162.209960938 460.5 c 0
 168.876953125 480.166992188 177.209960938 501.333984375 187.209960938 524.000976562 c 0
 197.209960938 547.333984375 207.209960938 567.666992188 217.209960938 585 c 0
 243.209960938 628.333007812 277.876953125 661.333007812 321.209960938 684 c 0
 367.876953125 706.666992188 420.209960938 718 478.209960938 718 c 0
 506.876953125 718 532.876953125 713.333007812 556.209960938 704 c 0
 578.876953125 694.666992188 597.543945312 680.666992188 612.2109375 662 c 0
 626.877929688 643.333007812 636.877929688 619.5 642.2109375 590.5 c 0
 644.876953125 576 646.2109375 560.458007812 646.2109375 543.875 c 0
 646.2109375 527.291015625 644.876953125 509.666015625 642.2109375 491 c 0
487.209960938 599.999023438 m 0
 474.2109375 608.046875 458.912109375 612.068359375 441.315429688 612.068359375 c 0
 439.959960938 612.068359375 438.591796875 612.044921875 437.209960938 611.997070312 c 0
 402.54296875 611.997070312 373.709960938 602.830078125 350.709960938 584.497070312 c 0
 327.709960938 566.1640625 305.876953125 534.997070312 285.209960938 490.997070312 c 0
 277.209960938 473.6640625 269.876953125 455.331054688 263.209960938 435.998046875 c 0
 257.209960938 416.665039062 251.54296875 393.998046875 246.209960938 367.998046875 c 0
 236.876953125 327.998046875 226.876953125 281.665039062 216.209960938 228.998046875 c 1
 322.876953125 339.665039062 422.876953125 453.33203125 516.209960938 569.999023438 c 1
 508.876953125 582.666015625 499.209960938 592.666015625 487.209960938 599.999023438 c 0
527.209960938 457.997070312 m 1
 429.876953125 330.6640625 326.876953125 221.99609375 218.209960938 131.99609375 c 1
 227.54296875 100.663085938 251.209960938 84.6630859375 289.209960938 83.99609375 c 0
 307.209960938 83.99609375 323.04296875 85.49609375 336.709960938 88.49609375 c 0
 350.376953125 91.49609375 363.876953125 96.3291015625 377.209960938 102.99609375 c 0
 403.876953125 116.99609375 427.876953125 143.99609375 449.209960938 183.99609375 c 0
 453.209960938 191.99609375 460.876953125 213.329101562 472.209960938 247.99609375 c 0
 483.54296875 282.663085938 495.209960938 323.330078125 507.209960938 369.997070312 c 0
 515.209960938 400.6640625 521.876953125 429.997070312 527.209960938 457.997070312 c 1
EndSplineSet
Validated: 524289
EndChar

StartChar: one
Encoding: 49 49 24
Width: 590
GlyphClass: 2
Flags: HMW
HStem: -9 111 -5 114<86.3637 136.363>
LayerCount: 2
Fore
SplineSet
55.033203125 33 m 0x40
 55.033203125 38 56.033203125 43 57.033203125 49 c 0
 57.033203125 50 57.033203125 52 58.033203125 53 c 0
 61.033203125 68 68.033203125 80 77.033203125 91 c 0
 89.033203125 103 104.033203125 109 123.033203125 109 c 0x40
 150.033203125 109 196.033203125 108 261.033203125 107 c 1
 266.033203125 126 269.033203125 143 271.033203125 157 c 0
 272.033203125 163 275.033203125 180 282.033203125 208 c 0
 288.033203125 233 293.033203125 254 298.033203125 271 c 2
 326.033203125 379 l 2
 353.033203125 480 369.033203125 539 374.033203125 556 c 1
 327.033203125 526 293.033203125 507 270.033203125 499 c 0
 262.033203125 497 257.033203125 496 254.033203125 496 c 0
 243.033203125 496 232.033203125 501 223.033203125 511 c 0
 214.033203125 521 209.033203125 532 209.033203125 542 c 0
 209.033203125 545 210.033203125 548 211.033203125 552 c 0
 214.033203125 565 219.033203125 577 227.033203125 587 c 0
 235.033203125 597 246.033203125 607 260.033203125 616 c 0
 281.033203125 630 308.033203125 649 343.033203125 672 c 1
 355.033203125 674 369.033203125 683 384.033203125 699 c 0
 396.033203125 707 409.033203125 714 422.033203125 721 c 0
 434.033203125 727 444.033203125 730 453.033203125 730 c 2
 456.033203125 730 l 2
 473.033203125 730 489.033203125 723 504.033203125 710 c 0
 512.033203125 703 517.033203125 696 520.033203125 690 c 0
 521.033203125 688 522.033203125 686 522.033203125 683 c 0
 522.033203125 672 514.033203125 643 479.033203125 514 c 0
 455.033203125 424 441.033203125 371 437.033203125 356 c 0
 422.033203125 294 411.033203125 242 402.033203125 200 c 2
 402.033203125 200 401.033203125 198 401.033203125 195 c 0
 396.033203125 173 390.033203125 142 382.033203125 103 c 1
 415.033203125 102 436.033203125 102 445.033203125 102 c 2
 480.033203125 102 l 2
 495.033203125 102 504.033203125 101 508.033203125 101 c 0
 529.033203125 101 542.033203125 97 549.033203125 87 c 0
 554.033203125 80 556.033203125 71 556.033203125 62 c 0
 556.033203125 58 556.033203125 54 555.033203125 50 c 0
 555.033203125 49 555.033203125 48 554.033203125 47 c 0
 551.033203125 32 543.033203125 19 532.033203125 8 c 0
 520.033203125 -3 503.033203125 -9 482.033203125 -9 c 0x80
 247.033203125 -7 118.033203125 -6 95.033203125 -5 c 0
 78.033203125 -5 66.033203125 0 60.033203125 11 c 0
 57.033203125 18 55.033203125 25 55.033203125 33 c 0x40
EndSplineSet
Validated: 524289
EndChar

StartChar: two
Encoding: 50 50 25
Width: 590
GlyphClass: 2
Flags: HMW
HStem: -20.0059 113.005 -12.0059 113.006<488.61 488.61 488.61 494.604> 506.997 21G<240.269 243.602> 612.996 109.001<447.272 456.604>
LayerCount: 2
Fore
SplineSet
488.610351562 101 m 1x70
 489.603515625 100.993164062 l 1
 498.270507812 109.66015625 504.603515625 109.993164062 508.603515625 101.993164062 c 0
 510.603515625 101.993164062 514.270507812 101.826171875 519.603515625 101.493164062 c 0
 524.936523438 101.16015625 528.936523438 100.16015625 531.603515625 98.4931640625 c 0
 534.270507812 96.826171875 536.9375 94.9931640625 539.604492188 92.9931640625 c 0
 543.604492188 90.326171875 546.271484375 86.326171875 547.604492188 80.9931640625 c 0
 548.9375 72.9931640625 548.604492188 63.66015625 546.604492188 52.9931640625 c 0
 541.9375 33.66015625 533.604492188 17.3271484375 521.604492188 3.994140625 c 0
 511.604492188 -6.6728515625 500.604492188 -12.005859375 488.604492188 -12.005859375 c 0x70
 445.271484375 -12.005859375 374.271484375 -14.005859375 275.604492188 -18.005859375 c 0
 242.271484375 -19.3388671875 208.271484375 -20.005859375 173.604492188 -20.005859375 c 0
 141.604492188 -20.005859375 116.604492188 -18.6728515625 98.6044921875 -16.005859375 c 0
 88.6044921875 -14.6728515625 80.9375 -10.33984375 75.6044921875 -3.0068359375 c 0
 71.6044921875 2.326171875 68.9375 9.326171875 67.6044921875 17.9931640625 c 0
 67.16015625 21.8447265625 66.9375 26.0263671875 66.9375 30.5361328125 c 0
 66.9375 46.322265625 69.66015625 66.140625 75.1044921875 89.9931640625 c 0
 82.1044921875 120.66015625 95.271484375 151.493164062 114.604492188 182.493164062 c 0
 133.9375 213.493164062 158.604492188 243.66015625 188.604492188 272.993164062 c 0
 218.604492188 302.326171875 252.271484375 325.993164062 289.604492188 343.993164062 c 0
 370.9375 382.66015625 423.604492188 409.327148438 447.604492188 423.994140625 c 0
 477.604492188 442.661132812 498.271484375 462.328125 509.604492188 482.995117188 c 0
 516.271484375 495.662109375 521.604492188 511.329101562 525.604492188 529.99609375 c 0
 527.754882812 539.458007812 528.830078125 548.053710938 528.830078125 555.78125 c 0
 528.830078125 572.010742188 524.087890625 584.415039062 514.604492188 592.99609375 c 0
 499.9375 606.329101562 474.604492188 612.99609375 438.604492188 612.99609375 c 0
 414.604492188 612.99609375 389.771484375 605.663085938 364.104492188 590.99609375 c 0
 338.4375 576.329101562 317.270507812 559.99609375 300.603515625 541.99609375 c 0
 291.936523438 532.663085938 283.76953125 524.830078125 276.102539062 518.497070312 c 0
 268.435546875 512.1640625 260.602539062 508.6640625 252.602539062 507.997070312 c 0
 250.602539062 507.997070312 247.602539062 507.6640625 243.602539062 506.997070312 c 0
 236.935546875 506.997070312 227.935546875 510.330078125 216.602539062 516.997070312 c 0
 204.602539062 524.997070312 198.26953125 536.330078125 197.602539062 550.997070312 c 0
 197.602539062 554.330078125 197.935546875 557.997070312 198.602539062 561.997070312 c 0
 201.26953125 573.997070312 207.936523438 587.6640625 218.603515625 602.997070312 c 0
 228.603515625 616.997070312 241.603515625 630.830078125 257.603515625 644.497070312 c 0
 273.603515625 658.1640625 291.603515625 670.997070312 311.603515625 682.997070312 c 0
 332.270507812 694.997070312 355.9375 704.497070312 382.604492188 711.497070312 c 0
 409.271484375 718.497070312 434.938476562 721.997070312 459.60546875 721.997070312 c 0
 536.272460938 721.997070312 589.60546875 704.997070312 619.60546875 670.997070312 c 0
 638.5859375 648.997070312 648.076171875 619.87890625 648.076171875 583.643554688 c 0
 648.076171875 563.87890625 645.252929688 541.997070312 639.60546875 517.997070312 c 0
 626.272460938 462.6640625 601.939453125 417.331054688 566.606445312 381.998046875 c 0
 540.606445312 357.331054688 497.2734375 330.331054688 436.606445312 300.998046875 c 0
 421.2734375 293.665039062 394.940429688 281.665039062 357.607421875 264.998046875 c 0
 326.274414062 250.998046875 298.94140625 233.831054688 275.608398438 213.498046875 c 0
 252.275390625 193.165039062 233.942382812 172.33203125 220.609375 150.999023438 c 0
 209.276367188 132.999023438 200.276367188 113.666015625 193.609375 92.9990234375 c 1xb0
 229.609375 91.666015625 263.942382812 90.8330078125 296.609375 90.5 c 0
 303.138671875 90.43359375 309.388671875 90.400390625 315.359375 90.400390625 c 0
 339.2578125 90.400390625 358.674804688 90.93359375 373.610351562 92 c 0
 391.610351562 93.3330078125 429.943359375 96.3330078125 488.610351562 101 c 1x70
EndSplineSet
Validated: 524289
EndChar

StartChar: three
Encoding: 51 51 26
Width: 590
GlyphClass: 2
Flags: HMW
HStem: -23.998 107.998<262.704 323.04> 306 125<310.373 316.039> 521.001 21G<245.707 252.374> 613 109.001<409.375 477.374>
VStem: 513.374 115<522.002 538.333>
LayerCount: 2
Fore
SplineSet
582.373046875 279.5 m 0
 582.833984375 274.501953125 583.065429688 269.318359375 583.065429688 263.948242188 c 0
 583.065429688 246.037109375 580.499023438 226.055664062 575.370117188 204.000976562 c 0
 559.370117188 134.000976562 525.703125 78.333984375 474.370117188 37.0009765625 c 0
 423.196289062 -3.67578125 358.140625 -24.013671875 279.202148438 -24.013671875 c 0
 277.928710938 -24.013671875 276.651367188 -24.0087890625 275.370117188 -23.998046875 c 0
 250.037109375 -23.998046875 225.704101562 -20.3310546875 202.37109375 -12.998046875 c 0
 179.038085938 -5.6650390625 160.205078125 3.66796875 145.872070312 15.0009765625 c 0
 131.5390625 26.333984375 119.706054688 39.0009765625 110.373046875 53.0009765625 c 0
 100.373046875 67.0009765625 93.7060546875 80.833984375 90.373046875 94.5009765625 c 0
 88.521484375 102.092773438 87.595703125 109.427734375 87.595703125 116.504882812 c 0
 87.595703125 122.16796875 88.1884765625 127.666992188 89.3740234375 133.000976562 c 0
 90.041015625 137.000976562 91.3740234375 141.000976562 93.3740234375 145.000976562 c 0
 100.041015625 161.000976562 111.041015625 172.66796875 126.374023438 180.000976562 c 0
 137.70703125 185.333984375 147.70703125 188 156.374023438 188 c 0
 175.041015625 188 189.374023438 177.333984375 199.374023438 156.000976562 c 0
 208.70703125 137.333984375 222.540039062 120.666992188 240.873046875 106 c 0
 259.206054688 91.3330078125 280.373046875 84 304.373046875 84 c 0
 341.706054688 84 374.5390625 93.8330078125 402.872070312 113.5 c 0
 431.205078125 133.166992188 449.038085938 158 456.37109375 188 c 0
 459.09375 199.278320312 460.455078125 209.592773438 460.455078125 218.942382812 c 0
 460.455078125 225.620117188 459.760742188 231.805664062 458.372070312 237.5 c 0
 455.0390625 251.166992188 447.872070312 263.166992188 436.872070312 273.5 c 0
 425.872070312 283.833007812 408.872070312 291.833007812 385.872070312 297.5 c 0
 362.872070312 303.166992188 333.705078125 306 298.372070312 306 c 0
 281.0390625 306 267.706054688 312.666992188 258.373046875 326 c 0
 251.83984375 335.333007812 248.573242188 345.483398438 248.573242188 356.450195312 c 0
 248.573242188 361.150390625 249.172851562 366 250.373046875 371 c 0
 254.373046875 387.666992188 262.040039062 401.666992188 273.373046875 413 c 0
 286.040039062 425 301.373046875 431 319.373046875 431 c 0
 374.040039062 431 418.70703125 440.666992188 453.374023438 460 c 0
 485.374023438 478 505.374023438 504 513.374023438 538 c 0
 513.374023438 538.609375 513.651367188 539.495117188 514.208007812 540.66015625 c 0
 514.2578125 541.064453125 514.3125 541.510742188 514.374023438 541.999023438 c 0
 514.374023438 543.33203125 514.70703125 544.33203125 515.374023438 544.999023438 c 0
 516.75 550.848632812 517.438476562 556.297851562 517.438476562 561.348632812 c 0
 517.438476562 575.868164062 511.75 587.0859375 500.374023438 595 c 0
 483.908203125 607.033203125 457.514648438 613.049804688 421.1953125 613.049804688 c 0
 419.282226562 613.049804688 417.342773438 613.033203125 415.375 613 c 0
 403.375 613 390.375 611 376.375 607 c 0
 372.375 605.666992188 367.375 603.166992188 361.375 599.5 c 0
 355.375 595.833007812 350.708007812 592.833007812 347.375 590.5 c 0
 344.041992188 588.166992188 339.375 584.333984375 333.375 579.000976562 c 0
 327.375 573.66796875 323.375 569.66796875 321.375 567.000976562 c 0
 314.708007812 553.66796875 310.041015625 549.000976562 307.374023438 553.000976562 c 1
 291.374023438 536.333984375 276.374023438 526.000976562 262.374023438 522.000976562 c 0
 258.374023438 521.333984375 254.373046875 521.000976562 250.373046875 521.000976562 c 0
 241.040039062 521.000976562 231.708007812 523.66796875 222.375 529.000976562 c 0
 211.575195312 535.600585938 206.174804688 545.7109375 206.174804688 559.33203125 c 0
 206.174804688 559.499023438 206.229492188 569.130859375 207.375 576.000976562 c 0
 210.041992188 588.000976562 216.375 601.000976562 226.375 615.000976562 c 0
 246.375 643.000976562 272.041992188 667.333984375 303.375 688.000976562 c 0
 320.041992188 698.66796875 340.041992188 707.000976562 363.375 713.000976562 c 0
 386.708007812 719.000976562 411.041015625 722.000976562 436.374023438 722.000976562 c 0
 518.374023438 722.000976562 575.041015625 705.66796875 606.374023438 673.000976562 c 0
 626.828125 650.728515625 637.055664062 621.482421875 637.055664062 585.262695312 c 0
 637.055664062 568.360351562 634.828125 549.939453125 630.374023438 530 c 0
 630.374023438 528.666992188 630.041015625 527.333984375 629.374023438 526.000976562 c 0
 628.70703125 524.66796875 628.374023438 523.333984375 628.374023438 522.000976562 c 0
 624.374023438 503.333984375 617.874023438 486.001953125 608.874023438 470.001953125 c 0
 599.874023438 454.001953125 589.541015625 440.334960938 577.874023438 429.001953125 c 0
 566.20703125 417.668945312 553.20703125 407.668945312 538.874023438 399.001953125 c 0
 524.541015625 390.334960938 510.041015625 383.66796875 495.374023438 379.000976562 c 1
 504.70703125 375.66796875 513.040039062 372.334960938 520.373046875 369.001953125 c 0
 537.040039062 360.334960938 551.040039062 348.66796875 562.373046875 334.000976562 c 0
 573.706054688 319.333984375 580.373046875 301.166992188 582.373046875 279.5 c 0
EndSplineSet
Validated: 524289
EndChar

StartChar: four
Encoding: 52 52 27
Width: 590
GlyphClass: 2
Flags: HMW
HStem: -23.001 21G<406.192 420.859> 218.998 90.002<367.858 368.859 368.859 410.859>
LayerCount: 2
Fore
SplineSet
367.858398438 309 m 2
 430.857421875 309 l 1
 457.524414062 424.333007812 477.19140625 517.666015625 489.858398438 588.999023438 c 1
 374.525390625 469.666015625 291.858398438 375.333007812 241.858398438 306 c 1
 276.525390625 308 318.525390625 309 367.858398438 309 c 2
472.857421875 60 m 0
 472.857421875 52 471.859375 44.33203125 469.859375 36.9990234375 c 0
 467.192382812 23.666015625 462.192382812 11.9990234375 454.859375 1.9990234375 c 0
 442.859375 -14.66796875 428.859375 -23.0009765625 412.859375 -23.0009765625 c 0
 399.526367188 -23.0009765625 387.859375 -17.833984375 377.859375 -7.5009765625 c 0
 369.526367188 1.109375 365.359375 10.068359375 365.359375 19.373046875 c 0
 365.359375 21.234375 365.526367188 23.109375 365.859375 24.998046875 c 0
 367.192382812 32.998046875 369.859375 45.6650390625 373.859375 62.998046875 c 2
 391.859375 138.998046875 l 2
 398.526367188 166.331054688 404.859375 192.998046875 410.859375 218.998046875 c 1
 368.859375 218.998046875 l 2
 276.859375 218.998046875 210.859375 214.665039062 170.859375 205.998046875 c 0
 166.192382812 205.331054688 161.359375 204.998046875 156.359375 204.998046875 c 0
 151.359375 204.998046875 146.859375 205.998046875 142.859375 207.998046875 c 0
 134.859375 211.331054688 129.026367188 216.331054688 125.359375 222.998046875 c 0
 121.692382812 229.665039062 119.525390625 237.498046875 118.858398438 246.498046875 c 0
 118.19140625 255.498046875 118.858398438 264.665039062 120.858398438 273.998046875 c 0
 123.525390625 284.665039062 127.525390625 294.665039062 132.858398438 303.998046875 c 0
 143.525390625 323.331054688 167.358398438 353.831054688 204.358398438 395.498046875 c 0
 241.358398438 437.165039062 289.19140625 488.998046875 347.858398438 550.998046875 c 0
 399.858398438 605.665039062 441.858398438 650.665039062 473.858398438 685.998046875 c 0
 485.858398438 698.665039062 498.19140625 708.33203125 510.858398438 714.999023438 c 0
 523.525390625 721.666015625 534.858398438 724.999023438 544.858398438 724.999023438 c 0
 548.19140625 724.999023438 550.524414062 725.33203125 551.857421875 725.999023438 c 0
 563.190429688 725.999023438 572.857421875 723.33203125 580.857421875 717.999023438 c 0
 590.232421875 711.749023438 594.919921875 701.397460938 594.919921875 686.9453125 c 0
 594.919921875 682.481445312 593.947265625 654.850585938 579.357421875 576.5 c 0
 570.357421875 528.166992188 562.190429688 487.666992188 554.857421875 455 c 0
 544.190429688 405.666992188 533.857421875 356.666992188 523.857421875 308 c 1
 533.190429688 308 543.5234375 307.666992188 554.856445312 307 c 0
 570.856445312 307 581.189453125 303.166992188 585.856445312 295.5 c 0
 590.5234375 287.833007812 591.5234375 278 588.856445312 266 c 0
 585.5234375 252 580.190429688 240.666992188 572.857421875 232 c 0
 562.857421875 222 549.857421875 217 533.857421875 217 c 0
 523.190429688 217 513.190429688 217.333007812 503.857421875 218 c 1
 483.190429688 126 472.857421875 73.3330078125 472.857421875 60 c 0
EndSplineSet
Validated: 524289
EndChar

StartChar: five
Encoding: 53 53 28
Width: 590
GlyphClass: 2
Flags: HMW
HStem: -18.002 109.001<264.247 292.248> 407.998 112.999<405.248 481.247> 594.998 112.999<614.579 654.242> 605.998 103.999
LayerCount: 2
Fore
SplineSet
192.248046875 561 m 0xd0
 198.248046875 581.666992188 202.576171875 596.997070312 205.243164062 606.997070312 c 1
 203.243164062 612.997070312 202.243164062 619.497070312 202.243164062 626.497070312 c 0
 202.243164062 633.497070312 203.243164062 640.997070312 205.243164062 648.997070312 c 0
 209.91015625 670.330078125 219.91015625 686.997070312 235.243164062 698.997070312 c 0
 245.91015625 707.6640625 257.243164062 711.997070312 269.243164062 711.997070312 c 0
 292.576171875 711.997070312 349.909179688 711.330078125 441.2421875 709.997070312 c 0xd0
 534.575195312 708.6640625 603.575195312 707.997070312 648.2421875 707.997070312 c 0
 660.2421875 707.997070312 668.575195312 702.6640625 673.2421875 691.997070312 c 0
 676.6171875 684.497070312 678.3046875 676.047851562 678.3046875 666.649414062 c 0
 678.3046875 659.33984375 677.284179688 651.456054688 675.2421875 642.998046875 c 0
 670.575195312 623.665039062 662.2421875 610.665039062 650.2421875 603.998046875 c 0
 646.909179688 601.998046875 643.576171875 600.165039062 640.243164062 598.498046875 c 0
 636.91015625 596.831054688 632.577148438 595.831054688 627.244140625 595.498046875 c 0
 621.911132812 595.165039062 618.078125 594.998046875 615.745117188 594.998046875 c 0xe0
 613.412109375 594.998046875 610.079101562 595.165039062 605.74609375 595.498046875 c 0
 601.413085938 595.831054688 598.580078125 595.998046875 597.247070312 595.998046875 c 0
 588.580078125 595.998046875 572.580078125 597.331054688 549.247070312 599.998046875 c 0
 525.247070312 601.998046875 503.9140625 603.498046875 485.247070312 604.498046875 c 0
 466.580078125 605.498046875 441.247070312 605.998046875 409.247070312 605.998046875 c 0
 377.247070312 605.998046875 344.9140625 604.998046875 312.247070312 602.998046875 c 1
 298.247070312 552.998046875 289.9140625 522.998046875 287.247070312 512.998046875 c 0
 284.580078125 500.998046875 282.580078125 492.331054688 281.247070312 486.998046875 c 0
 279.9140625 481.665039062 278.247070312 474.665039062 276.247070312 465.998046875 c 1
 296.247070312 479.331054688 319.247070312 490.6640625 345.247070312 499.997070312 c 0
 382.580078125 513.997070312 422.580078125 520.997070312 465.247070312 520.997070312 c 0
 497.247070312 520.997070312 524.580078125 515.330078125 547.247070312 503.997070312 c 0
 567.9140625 491.997070312 583.747070312 475.997070312 594.747070312 455.997070312 c 0
 605.747070312 435.997070312 612.247070312 412.830078125 614.247070312 386.497070312 c 0
 614.67578125 380.854492188 614.889648438 375.112304688 614.889648438 369.271484375 c 0
 614.889648438 347.850585938 612.008789062 325.092773438 606.247070312 300.997070312 c 0
 594.9140625 251.6640625 578.581054688 206.831054688 557.248046875 166.498046875 c 0
 535.915039062 126.165039062 511.248046875 92.498046875 483.248046875 65.498046875 c 0
 455.248046875 38.498046875 423.248046875 17.6650390625 387.248046875 2.998046875 c 0
 350.581054688 -11.001953125 312.248046875 -18.001953125 272.248046875 -18.001953125 c 0
 241.581054688 -18.001953125 213.9140625 -14.6689453125 189.247070312 -8.001953125 c 0
 164.580078125 -1.3349609375 145.247070312 7.33203125 131.247070312 17.9990234375 c 0
 117.247070312 28.666015625 106.247070312 40.3330078125 98.2470703125 53 c 0
 90.2470703125 65.6669921875 84.2470703125 79 80.2470703125 93 c 0
 78.9140625 100.666015625 78.2470703125 107.916015625 78.2470703125 114.75 c 0
 78.2470703125 121.583007812 78.9140625 128 80.2470703125 134 c 0
 80.9140625 138 81.9140625 142 83.2470703125 146 c 0
 89.9140625 160.666992188 101.247070312 172 117.247070312 180 c 0
 125.9140625 183.333007812 132.747070312 185.666015625 137.747070312 186.999023438 c 0
 142.747070312 188.33203125 146.747070312 188.999023438 149.747070312 188.999023438 c 0
 152.747070312 188.999023438 155.580078125 188.666015625 158.247070312 187.999023438 c 0
 166.247070312 187.33203125 172.580078125 183.665039062 177.247070312 176.998046875 c 0
 181.247070312 171.665039062 185.580078125 164.33203125 190.247070312 154.999023438 c 0
 208.247070312 112.33203125 240.747070312 90.9990234375 287.747070312 90.9990234375 c 0
 334.747070312 90.9990234375 375.9140625 108.33203125 411.247070312 142.999023438 c 0
 447.9140625 178.999023438 473.581054688 227.666015625 488.248046875 288.999023438 c 0
 491.768554688 304.166015625 493.529296875 318.01171875 493.529296875 330.538085938 c 0
 493.529296875 348.844726562 489.768554688 364.33203125 482.248046875 376.998046875 c 0
 470.248046875 397.665039062 447.248046875 407.998046875 413.248046875 407.998046875 c 0
 397.248046875 407.998046875 379.915039062 405.998046875 361.248046875 401.998046875 c 0
 351.915039062 399.998046875 338.58203125 395.331054688 321.249023438 387.998046875 c 0
 317.249023438 386.665039062 311.749023438 383.498046875 304.749023438 378.498046875 c 0
 297.749023438 373.498046875 292.916015625 369.998046875 290.249023438 367.998046875 c 0
 277.58203125 358.665039062 267.249023438 350.665039062 259.249023438 343.998046875 c 0
 241.916015625 331.331054688 223.916015625 323.998046875 205.249023438 321.998046875 c 2
 198.249023438 321.998046875 l 2
 189.58203125 321.998046875 181.249023438 323.998046875 173.249023438 327.998046875 c 0
 161.249023438 333.998046875 154.58203125 346.665039062 153.249023438 365.998046875 c 0
 152.916015625 370.165039062 152.749023438 374.581054688 152.749023438 379.248046875 c 0
 152.749023438 393.248046875 154.249023438 409.498046875 157.249023438 427.999023438 c 0
 159.249023438 438.666015625 161.58203125 449.333007812 164.249023438 460 c 0
 169.58203125 483.333007812 178.915039062 517 192.248046875 561 c 0xd0
EndSplineSet
Validated: 524289
EndChar

StartChar: six
Encoding: 54 54 29
Width: 590
GlyphClass: 2
Flags: HMW
HStem: -22.0029 108<265.297 312.964> 379.997 114.001<378.963 464.297>
LayerCount: 2
Fore
SplineSet
607.963867188 361 m 0
 608.31640625 355.471679688 608.493164062 349.787109375 608.493164062 343.948242188 c 0
 608.493164062 316.689453125 604.649414062 286.038085938 596.962890625 251.998046875 c 0
 588.295898438 213.998046875 573.962890625 178.331054688 553.962890625 144.998046875 c 0
 513.962890625 76.3310546875 460.629882812 27.6640625 393.962890625 -1.0029296875 c 0
 358.629882812 -15.0029296875 322.962890625 -22.0029296875 286.962890625 -22.0029296875 c 0
 243.629882812 -22.0029296875 207.296875 -14.0029296875 177.963867188 1.9970703125 c 0
 149.963867188 17.9970703125 129.963867188 41.1640625 117.963867188 71.4970703125 c 0
 106.288085938 101.010742188 100.450195312 134.943359375 100.450195312 173.293945312 c 0
 100.450195312 204.677734375 103.879882812 248.9375 116.963867188 306.997070312 c 0
 130.963867188 366.997070312 148.630859375 420.497070312 169.963867188 467.497070312 c 0
 191.296875 514.497070312 214.963867188 553.830078125 240.963867188 585.497070312 c 0
 266.963867188 617.1640625 296.296875 643.997070312 328.963867188 665.997070312 c 0
 363.630859375 687.997070312 399.130859375 704.497070312 435.463867188 715.497070312 c 0
 471.796875 726.497070312 510.963867188 733.6640625 552.963867188 736.997070312 c 2
 562.963867188 736.997070312 l 2
 576.963867188 736.997070312 588.630859375 734.330078125 597.963867188 728.997070312 c 0
 609.424804688 722.362304688 615.155273438 712.1796875 615.155273438 698.44921875 c 0
 615.155273438 695.75390625 615.155273438 692.376953125 613.96484375 689.998046875 c 0
 611.96484375 679.998046875 604.96484375 669.665039062 592.96484375 658.998046875 c 0
 580.297851562 648.331054688 567.297851562 641.331054688 553.96484375 637.998046875 c 0
 545.96484375 635.998046875 533.797851562 633.331054688 517.46484375 629.998046875 c 0
 501.131835938 626.665039062 487.46484375 623.665039062 476.46484375 620.998046875 c 0
 465.46484375 618.331054688 452.297851562 614.331054688 436.96484375 608.998046875 c 0
 407.631835938 598.331054688 375.631835938 577.998046875 340.96484375 547.998046875 c 0
 323.631835938 531.998046875 305.298828125 510.331054688 285.965820312 482.998046875 c 0
 277.298828125 468.998046875 269.631835938 455.998046875 262.96484375 443.998046875 c 1
 282.297851562 456.665039062 303.630859375 466.665039062 326.963867188 473.998046875 c 0
 364.963867188 487.331054688 405.296875 493.998046875 447.963867188 493.998046875 c 0
 480.630859375 493.998046875 508.963867188 489.331054688 532.963867188 479.998046875 c 0
 554.963867188 470.665039062 572.463867188 456.33203125 585.463867188 436.999023438 c 0
 598.463867188 417.666015625 605.963867188 392.333007812 607.963867188 361 c 0
267.962890625 94.9970703125 m 0
 280.629882812 88.9970703125 294.963867188 85.9970703125 310.963867188 85.9970703125 c 2
 312.963867188 85.9970703125 l 1
 313.963867188 85.9970703125 l 2
 335.963867188 85.9970703125 358.963867188 93.6640625 382.963867188 108.997070312 c 0
 406.963867188 124.330078125 427.796875 143.997070312 445.463867188 167.997070312 c 0
 463.130859375 191.997070312 474.630859375 215.997070312 479.963867188 239.997070312 c 0
 485.889648438 265.181640625 488.852539062 286.6796875 488.852539062 304.490234375 c 0
 488.852539062 326.75390625 484.22265625 343.255859375 474.962890625 353.997070312 c 0
 466.962890625 363.997070312 456.795898438 370.830078125 444.462890625 374.497070312 c 0
 432.129882812 378.1640625 415.629882812 379.997070312 394.962890625 379.997070312 c 0
 362.962890625 379.997070312 331.629882812 372.330078125 300.962890625 356.997070312 c 0
 270.295898438 341.6640625 243.962890625 322.6640625 221.962890625 299.997070312 c 1
 215.962890625 274.6640625 211.629882812 253.6640625 208.962890625 236.997070312 c 0
 207.762695312 228.59765625 207.163085938 220.2578125 207.163085938 211.977539062 c 0
 207.163085938 192.657226562 210.4296875 173.6640625 216.962890625 154.997070312 c 0
 221.629882812 140.997070312 228.129882812 128.997070312 236.462890625 118.997070312 c 0
 244.795898438 108.997070312 255.295898438 100.997070312 267.962890625 94.9970703125 c 0
EndSplineSet
Validated: 524289
EndChar

StartChar: seven
Encoding: 55 55 30
Width: 590
GlyphClass: 2
Flags: HMW
HStem: -22.999 21G<120.931 128.264> 601 113.002<387.263 442.93 387.263 534.597>
LayerCount: 2
Fore
SplineSet
360.59765625 601 m 0
 299.264648438 599.666992188 259.265625 596.670898438 240.598632812 592.00390625 c 0
 236.598632812 591.336914062 232.265625 590.836914062 227.598632812 590.50390625 c 0
 222.931640625 590.170898438 218.264648438 591.00390625 213.59765625 593.00390625 c 0
 206.264648438 596.336914062 201.264648438 601.336914062 198.59765625 608.00390625 c 0
 194.71875 616.731445312 192.779296875 626.340820312 192.779296875 636.831054688 c 0
 192.779296875 640.764648438 193.051757812 644.822265625 193.59765625 649.00390625 c 1
 192.264648438 642.336914062 192.264648438 642.669921875 193.59765625 650.002929688 c 0
 196.930664062 664.002929688 203.263671875 675.669921875 212.596679688 685.002929688 c 0
 222.596679688 694.3359375 236.9296875 700.668945312 255.596679688 704.001953125 c 0
 290.9296875 710.668945312 347.9296875 714.001953125 426.596679688 714.001953125 c 0
 459.263671875 714.001953125 503.263671875 712.668945312 558.596679688 710.001953125 c 0
 611.263671875 708.001953125 638.596679688 707.001953125 640.596679688 707.001953125 c 0
 648.596679688 707.001953125 656.263671875 705.168945312 663.596679688 701.501953125 c 0
 670.9296875 697.834960938 676.9296875 692.001953125 681.596679688 684.001953125 c 0
 684.87890625 678.66796875 686.51953125 672.325195312 686.51953125 664.971679688 c 0
 686.51953125 660.375976562 685.87890625 655.38671875 684.596679688 650.001953125 c 0
 681.9296875 638.001953125 675.596679688 624.668945312 665.596679688 610.001953125 c 0
 651.596679688 590.001953125 628.763671875 560.501953125 597.096679688 521.501953125 c 0
 565.4296875 482.501953125 532.262695312 442.668945312 497.595703125 402.001953125 c 0
 461.595703125 361.334960938 416.595703125 307.16796875 362.595703125 239.500976562 c 0
 308.595703125 171.833984375 256.262695312 102.666992188 205.595703125 32 c 0
 192.262695312 12.6669921875 176.9296875 -1.666015625 159.596679688 -10.9990234375 c 0
 146.263671875 -18.9990234375 133.930664062 -22.9990234375 122.59765625 -22.9990234375 c 0
 119.264648438 -22.9990234375 115.931640625 -22.666015625 112.598632812 -21.9990234375 c 0
 96.5986328125 -17.9990234375 86.931640625 -7.9990234375 83.5986328125 8.0009765625 c 0
 82.265625 15.333984375 82.5986328125 23.1669921875 84.5986328125 31.5 c 0
 86.5986328125 39.8330078125 90.5986328125 49 96.5986328125 59 c 0
 143.931640625 125.666992188 194.264648438 192 247.59765625 258 c 0
 302.264648438 324 347.09765625 376.5 382.09765625 415.5 c 0
 417.09765625 454.5 448.09765625 490.166992188 475.09765625 522.5 c 0
 502.09765625 554.833007812 521.930664062 581 534.59765625 601 c 1
 508.263671875 601.666015625 480.59765625 602 451.59765625 602 c 0
 422.59765625 602 392.263671875 601.666015625 360.59765625 601 c 0
EndSplineSet
Validated: 524289
EndChar

StartChar: eight
Encoding: 56 56 31
Width: 590
GlyphClass: 2
Flags: HMW
HStem: -28.0039 110.002<292.625 292.958> 621.996 96.0029<412.625 462.29 426.959 462.29>
VStem: 480.96 111.998
LayerCount: 2
Fore
SplineSet
597.953125 246 m 0
 597.286132812 234 595.625 221.329101562 592.958007812 207.99609375 c 0
 588.291015625 185.99609375 580.458007812 164.329101562 569.458007812 142.99609375 c 0
 558.458007812 121.663085938 543.958007812 100.49609375 525.958007812 79.49609375 c 0
 507.958007812 58.49609375 487.958007812 40.3291015625 465.958007812 24.99609375 c 0
 443.291015625 9.6630859375 414.958007812 -3.00390625 380.958007812 -13.00390625 c 0
 346.958007812 -23.00390625 311.458007812 -28.00390625 274.458007812 -28.00390625 c 0
 237.458007812 -28.00390625 205.625 -23.3369140625 178.958007812 -14.00390625 c 0
 152.958007812 -4.6708984375 133.125 7.49609375 119.458007812 22.49609375 c 0
 105.791015625 37.49609375 95.6240234375 55.1630859375 88.95703125 75.49609375 c 0
 82.607421875 94.861328125 79.4326171875 114.37890625 79.4326171875 134.047851562 c 0
 79.4326171875 151.06640625 81.45703125 174.37890625 87.955078125 201.997070312 c 0
 93.2880859375 224.6640625 104.62109375 249.1640625 121.954101562 275.497070312 c 0
 139.287109375 301.830078125 160.954101562 326.330078125 186.954101562 348.997070312 c 0
 205.62109375 364.997070312 224.954101562 377.6640625 244.954101562 386.997070312 c 1
 223.62109375 401.6640625 207.954101562 419.997070312 197.954101562 441.997070312 c 0
 189.065429688 460.663085938 184.62109375 479.625976562 184.62109375 498.884765625 c 0
 184.62109375 508.514648438 185.732421875 518.21875 187.955078125 527.997070312 c 0
 189.955078125 536.6640625 192.788085938 545.6640625 196.455078125 554.997070312 c 0
 200.122070312 564.330078125 205.2890625 575.330078125 211.956054688 587.997070312 c 0
 218.623046875 600.6640625 226.290039062 612.831054688 234.95703125 624.498046875 c 0
 243.624023438 636.165039062 254.791015625 647.83203125 268.458007812 659.499023438 c 0
 282.125 671.166015625 296.958007812 680.999023438 312.958007812 688.999023438 c 0
 330.291015625 697.666015625 350.624023438 704.666015625 373.95703125 709.999023438 c 0
 397.290039062 715.33203125 422.290039062 717.999023438 448.95703125 717.999023438 c 0
 475.624023438 717.999023438 499.624023438 715.33203125 520.95703125 709.999023438 c 0
 542.290039062 704.666015625 559.623046875 697.666015625 572.956054688 688.999023438 c 0
 586.2890625 680.33203125 597.122070312 670.33203125 605.455078125 658.999023438 c 0
 613.788085938 647.666015625 619.62109375 636.166015625 622.954101562 624.499023438 c 0
 626.287109375 612.83203125 628.454101562 600.499023438 629.454101562 587.499023438 c 0
 629.954101562 580.999023438 630.204101562 574.916015625 630.204101562 569.249023438 c 0
 630.204101562 563.58203125 629.954101562 558.33203125 629.454101562 553.499023438 c 0
 628.454101562 543.83203125 626.787109375 534.33203125 624.454101562 524.999023438 c 0
 622.12109375 515.666015625 618.954101562 506.833007812 614.954101562 498.5 c 0
 610.954101562 490.166992188 606.62109375 482.666992188 601.954101562 476 c 0
 597.287109375 469.333007812 591.454101562 462.5 584.454101562 455.5 c 0
 577.454101562 448.5 571.12109375 442.666992188 565.454101562 438 c 0
 559.787109375 433.333007812 552.620117188 428 543.953125 422 c 0
 535.286132812 416 528.286132812 411.666992188 522.953125 409 c 0
 517.620117188 406.333007812 511.287109375 402.333007812 503.954101562 397 c 1
 519.287109375 389 532.287109375 380 542.954101562 370 c 0
 557.62109375 356 568.954101562 342.5 576.954101562 329.5 c 0
 584.954101562 316.5 590.62109375 302.333007812 593.954101562 287 c 0
 596.731445312 274.223632812 598.120117188 262.604492188 598.120117188 252.141601562 c 0
 598.120117188 250.047851562 598.064453125 248.000976562 597.953125 246 c 0
345.958984375 591.99609375 m 0
 320.625976562 571.99609375 305.293945312 549.99609375 299.9609375 525.99609375 c 0
 299.072265625 521.99609375 298.627929688 518.078125 298.627929688 514.243164062 c 0
 298.627929688 500.819335938 304.072265625 488.403320312 314.9609375 476.99609375 c 0
 330.293945312 461.663085938 357.9609375 445.663085938 397.9609375 428.99609375 c 1
 425.293945312 439.663085938 450.626953125 453.663085938 473.959960938 470.99609375 c 0
 497.29296875 488.329101562 510.625976562 503.329101562 513.958984375 515.99609375 c 0
 515.5078125 522.189453125 516.28125 528.408203125 516.28125 534.651367188 c 0
 516.28125 544.537109375 514.340820312 554.485351562 510.458984375 564.49609375 c 0
 504.125976562 580.829101562 493.625976562 594.49609375 478.958984375 605.49609375 c 0
 464.291992188 616.49609375 447.291992188 621.99609375 427.958984375 621.99609375 c 2
 426.958984375 621.99609375 l 2
 398.291992188 621.99609375 371.291992188 611.99609375 345.958984375 591.99609375 c 0
238.959960938 96.99609375 m 0
 258.29296875 86.99609375 280.291992188 81.998046875 304.958984375 81.998046875 c 0
 322.291992188 81.998046875 340.458984375 84.6650390625 359.458984375 89.998046875 c 0
 378.458984375 95.3310546875 396.291992188 102.998046875 412.958984375 112.998046875 c 0
 429.625976562 122.998046875 444.29296875 135.665039062 456.959960938 150.998046875 c 0
 468.959960938 166.331054688 476.959960938 182.998046875 480.959960938 200.998046875 c 0
 482.959960938 210.998046875 484.626953125 220.331054688 485.959960938 228.998046875 c 0
 485.959960938 237.665039062 484.459960938 247.665039062 481.459960938 258.998046875 c 0
 478.459960938 270.331054688 473.126953125 280.998046875 465.459960938 290.998046875 c 0
 457.79296875 300.998046875 446.29296875 311.331054688 430.959960938 321.998046875 c 0
 415.626953125 332.665039062 396.959960938 342.665039062 374.959960938 351.998046875 c 1
 327.626953125 339.331054688 286.626953125 318.6640625 251.959960938 289.997070312 c 0
 217.959960938 261.330078125 197.29296875 230.663085938 189.959960938 197.99609375 c 0
 188.020507812 189.99609375 187.05078125 182.260742188 187.05078125 174.790039062 c 0
 187.05078125 161.715820312 190.020507812 149.451171875 195.959960938 137.99609375 c 0
 205.959960938 119.99609375 220.29296875 106.329101562 238.959960938 96.99609375 c 0
EndSplineSet
Validated: 524289
EndChar

StartChar: nine
Encoding: 57 57 32
Width: 590
GlyphClass: 2
Flags: HMW
HStem: -22.9971 78.5 223.001 113.003<299.042 381.038> 630.004 108.995<423.706 504.71 435.039 504.71>
LayerCount: 2
Fore
SplineSet
171.044921875 -22 m 0
 167.711914062 -22 164.708007812 -22.330078125 162.041015625 -22.9970703125 c 0
 148.041015625 -22.9970703125 136.708007812 -19.9970703125 128.041015625 -13.9970703125 c 0
 117.1015625 -7.6640625 111.631835938 1.9013671875 111.631835938 14.69921875 c 0
 111.631835938 16.7197265625 111.768554688 18.8212890625 112.041015625 21.0029296875 c 2
 112.041015625 24.0029296875 l 2
 114.041015625 34.669921875 121.041015625 45.169921875 133.041015625 55.5029296875 c 0
 145.041015625 65.8359375 157.708007812 73.0029296875 171.041015625 77.0029296875 c 0
 179.041015625 79.0029296875 191.874023438 81.669921875 209.541015625 85.0029296875 c 0
 227.208007812 88.3359375 242.875 91.6689453125 256.541992188 95.001953125 c 0
 270.208984375 98.3349609375 285.375976562 102.66796875 302.04296875 108.000976562 c 0
 338.04296875 120.000976562 371.375976562 139.000976562 402.04296875 165.000976562 c 0
 422.04296875 183.000976562 441.375976562 203.66796875 460.04296875 227.000976562 c 0
 467.375976562 236.333984375 473.708984375 245.333984375 479.041992188 254.000976562 c 1
 463.708984375 246.000976562 447.375976562 239.66796875 430.04296875 235.000976562 c 0
 398.04296875 227.000976562 359.709960938 223.000976562 315.04296875 223.000976562 c 0
 283.04296875 223.000976562 254.375976562 230.333984375 229.04296875 245.000976562 c 0
 205.04296875 259.000976562 186.709960938 277.500976562 174.04296875 300.500976562 c 0
 161.375976562 323.500976562 153.04296875 350.16796875 149.04296875 380.500976562 c 0
 147.630859375 391.206054688 146.92578125 401.974609375 146.92578125 412.8046875 c 0
 146.92578125 432.66015625 149.297851562 452.725585938 154.04296875 473 c 0
 162.709960938 511 176.876953125 546.5 196.543945312 579.5 c 0
 216.2109375 612.5 239.2109375 640.666992188 265.543945312 664 c 0
 291.876953125 687.333007812 322.043945312 705.666015625 356.043945312 718.999023438 c 0
 390.7109375 732.33203125 425.7109375 738.999023438 461.043945312 738.999023438 c 0
 548.376953125 738.999023438 604.709960938 707.33203125 630.04296875 643.999023438 c 0
 641.23046875 615.231445312 646.823242188 580.717773438 646.823242188 540.45703125 c 0
 646.823242188 496.745117188 640.23046875 446.259765625 627.04296875 388.999023438 c 0
 613.709960938 331.666015625 595.876953125 280.833007812 573.543945312 236.5 c 0
 551.2109375 192.166992188 526.2109375 155 498.543945312 125 c 0
 470.876953125 95 439.043945312 69.3330078125 403.043945312 48 c 0
 366.376953125 26.6669921875 328.876953125 10.5 290.543945312 -0.5 c 0
 252.2109375 -11.5 212.377929688 -18.6669921875 171.044921875 -22 c 0
305.041015625 555.002929688 m 0
 287.708007812 532.3359375 276.372070312 509.004882812 271.0390625 485.004882812 c 0
 266.33984375 464.549804688 263.990234375 446.200195312 263.990234375 429.956054688 c 0
 263.990234375 367.850585938 298.33984375 336.532226562 367.0390625 336.00390625 c 0
 395.0390625 336.00390625 423.372070312 342.00390625 452.0390625 354.00390625 c 0
 480.706054688 366.00390625 504.706054688 381.336914062 524.0390625 400.00390625 c 0
 524.706054688 402.670898438 525.373046875 405.670898438 526.040039062 409.00390625 c 0
 530.040039062 426.336914062 534.70703125 450.00390625 540.040039062 480.00390625 c 0
 541.240234375 488.403320312 541.83984375 496.743164062 541.83984375 505.0234375 c 0
 541.83984375 524.34375 538.573242188 543.336914062 532.040039062 562.00390625 c 0
 527.373046875 576.00390625 520.873046875 588.00390625 512.540039062 598.00390625 c 0
 504.20703125 608.00390625 493.540039062 615.836914062 480.540039062 621.50390625 c 0
 467.540039062 627.170898438 453.040039062 630.00390625 437.040039062 630.00390625 c 2
 435.040039062 630.00390625 l 2
 412.373046875 630.00390625 389.373046875 623.170898438 366.040039062 609.50390625 c 0
 342.70703125 595.836914062 322.374023438 577.669921875 305.041015625 555.002929688 c 0
EndSplineSet
Validated: 524289
EndChar

StartChar: colon
Encoding: 58 58 33
Width: 590
GlyphClass: 2
Flags: HMW
HStem: 27 180.001<291.477 344.814> 295 179.001<361.149 402.482 361.149 402.482>
VStem: 243.145 216.002
LayerCount: 2
Fore
SplineSet
456.146484375 404 m 0
 451.479492188 384.666992188 444.147460938 364.66796875 434.147460938 344.000976562 c 0
 426.814453125 327.333984375 415.481445312 314.666992188 400.1484375 306 c 0
 386.815429688 298.666992188 374.815429688 295 364.1484375 295 c 2
 361.1484375 295 l 2
 343.1484375 295.666992188 329.1484375 299.666992188 319.1484375 307 c 0
 308.038085938 315.333007812 302.482421875 327.138671875 302.482421875 342.416015625 c 0
 302.482421875 345.471679688 302.705078125 348.666015625 303.149414062 352 c 0
 304.482421875 364 306.649414062 376.166992188 309.649414062 388.5 c 0
 312.649414062 400.833007812 315.649414062 412.333007812 318.649414062 423 c 0
 321.649414062 433.666992188 326.982421875 442.833984375 334.649414062 450.500976562 c 0
 342.31640625 458.16796875 350.649414062 463.66796875 359.649414062 467.000976562 c 0
 368.649414062 470.333984375 376.31640625 472.333984375 382.649414062 473.000976562 c 0
 388.982421875 473.66796875 393.815429688 474.000976562 397.1484375 474.000976562 c 0
 407.815429688 474.000976562 416.315429688 473.333984375 422.6484375 472.000976562 c 0
 428.981445312 470.66796875 435.314453125 468.000976562 441.647460938 464.000976562 c 0
 447.98046875 460.000976562 452.813476562 454.000976562 456.146484375 446.000976562 c 0
 459.479492188 438.000976562 460.479492188 428.66796875 459.146484375 418.000976562 c 0
 457.813476562 413.333984375 456.813476562 408.666992188 456.146484375 404 c 0
394.147460938 125.000976562 m 0
 390.814453125 109.000976562 384.809570312 92.333984375 376.142578125 75.0009765625 c 0
 368.142578125 58.333984375 355.809570312 46.0009765625 339.142578125 38.0009765625 c 0
 325.142578125 31.333984375 311.809570312 27.6669921875 299.142578125 27 c 0
 283.809570312 27 269.9765625 32 257.643554688 42 c 0
 247.502929688 50.2216796875 242.43359375 61.1484375 242.43359375 74.7783203125 c 0
 242.43359375 77.7255859375 242.669921875 80.7998046875 243.14453125 84 c 0
 246.477539062 102.666992188 248.477539062 113.333984375 249.14453125 116.000976562 c 0
 249.811523438 118.66796875 251.478515625 124.66796875 254.145507812 134.000976562 c 0
 256.8125 143.333984375 258.8125 150.666992188 260.145507812 156 c 0
 262.8125 166.666992188 267.979492188 175.833984375 275.646484375 183.500976562 c 0
 283.313476562 191.16796875 291.813476562 196.66796875 301.146484375 200.000976562 c 0
 315.146484375 204.66796875 327.813476562 207.000976562 339.146484375 207.000976562 c 0
 350.479492188 207.000976562 360.146484375 205.500976562 368.146484375 202.500976562 c 0
 376.146484375 199.500976562 383.479492188 193.66796875 390.146484375 185.000976562 c 0
 395.702148438 177.778320312 398.48046875 168.934570312 398.48046875 158.471679688 c 0
 398.48046875 156.379882812 398.369140625 154.22265625 398.147460938 152.000976562 c 0
 397.48046875 143.333984375 396.147460938 134.333984375 394.147460938 125.000976562 c 0
EndSplineSet
Validated: 524289
EndChar

StartChar: semicolon
Encoding: 59 59 34
Width: 590
GlyphClass: 2
Flags: HMW
HStem: 253.001 180.001<379.01 423.344>
VStem: 322.677 155.998
LayerCount: 2
Fore
SplineSet
475.674804688 363 m 0
 471.0078125 343.666992188 463.67578125 323.334960938 453.67578125 302.001953125 c 0
 446.342773438 285.334960938 435.009765625 272.66796875 419.676757812 264.000976562 c 0
 406.34375 256.66796875 394.34375 253.000976562 383.676757812 253.000976562 c 0
 374.34375 253.000976562 364.84375 255.000976562 355.176757812 259.000976562 c 0
 345.509765625 263.000976562 337.676757812 269.000976562 331.676757812 277.000976562 c 0
 325.471679688 284.8984375 322.369140625 293.989257812 322.369140625 304.274414062 c 0
 322.369140625 306.143554688 322.471679688 308.052734375 322.676757812 310.000976562 c 2
 322.676757812 311.000976562 l 2
 324.009765625 323.000976562 326.342773438 335.000976562 329.67578125 347.000976562 c 0
 333.008789062 359.000976562 336.008789062 370.333984375 338.67578125 381.000976562 c 0
 341.342773438 391.66796875 346.509765625 401.000976562 354.176757812 409.000976562 c 0
 361.84375 417.000976562 370.010742188 422.333984375 378.677734375 425.000976562 c 0
 393.344726562 429.66796875 406.677734375 432.334960938 418.677734375 433.001953125 c 0
 428.010742188 433.001953125 435.84375 432.168945312 442.176757812 430.501953125 c 0
 448.509765625 428.834960938 454.842773438 426.16796875 461.17578125 422.500976562 c 0
 467.508789062 418.833984375 472.341796875 413.000976562 475.674804688 405.000976562 c 0
 479.0078125 396.333984375 480.0078125 386.666992188 478.674804688 376 c 0
 477.341796875 372 476.341796875 367.666992188 475.674804688 363 c 0
391.67578125 79.0009765625 m 0
 391.67578125 77.0009765625 391.01171875 75 389.678710938 73 c 0
 383.01171875 51 342.678710938 -36.6669921875 268.678710938 -190 c 0
 260.678710938 -206.666992188 250.01171875 -219.333984375 236.678710938 -228.000976562 c 0
 225.678710938 -234.72265625 214.959960938 -238.083007812 204.520507812 -238.083007812 c 0
 203.5703125 -238.083007812 202.624023438 -238.055664062 201.678710938 -238 c 0
 185.678710938 -238 172.678710938 -233 162.678710938 -223 c 0
 155.801757812 -216.123046875 152.36328125 -207.435546875 152.36328125 -196.938476562 c 0
 152.36328125 -193.189453125 152.801757812 -189.209960938 153.678710938 -185 c 0
 156.345703125 -171.666992188 171.678710938 -132 199.678710938 -66 c 0
 227.678710938 0 249.01171875 49.3330078125 263.678710938 82 c 0
 269.01171875 93.3330078125 274.844726562 102.833007812 281.177734375 110.5 c 0
 287.510742188 118.166992188 294.34375 123.333984375 301.676757812 126.000976562 c 0
 311.009765625 129.333984375 319.676757812 131.333984375 327.676757812 132.000976562 c 0
 330.34375 132.000976562 333.34375 131.66796875 336.676757812 131.000976562 c 0
 350.009765625 131.000976562 362.676757812 127.66796875 374.676757812 121.000976562 c 0
 382.009765625 117.000976562 387.342773438 111.000976562 390.67578125 103.000976562 c 0
 393.342773438 95.66796875 393.67578125 87.66796875 391.67578125 79.0009765625 c 0
EndSplineSet
Validated: 524289
EndChar

StartChar: less
Encoding: 60 60 35
Width: 590
GlyphClass: 2
Flags: HMW
HStem: -24 21G<464.513 469.513 469.513 478.513>
LayerCount: 2
Fore
SplineSet
469.512695312 -24 m 2
 459.512695312 -24 448.846679688 -21.9990234375 437.513671875 -17.9990234375 c 0
 422.180664062 -12.666015625 404.84765625 -0.666015625 385.514648438 18.0009765625 c 0
 366.181640625 36.66796875 346.181640625 58.8349609375 325.514648438 84.501953125 c 0
 304.84765625 110.168945312 284.514648438 135.8359375 264.514648438 161.502929688 c 0
 244.514648438 187.169921875 223.34765625 213.669921875 201.014648438 241.002929688 c 0
 178.681640625 268.3359375 159.181640625 290.002929688 142.514648438 306.002929688 c 0
 134.514648438 314.002929688 130.514648438 325.002929688 130.514648438 339.002929688 c 0
 130.514648438 345.002929688 131.34765625 351.502929688 133.014648438 358.502929688 c 0
 134.681640625 365.502929688 137.181640625 372.669921875 140.514648438 380.002929688 c 0
 147.181640625 394.002929688 156.514648438 404.002929688 168.514648438 410.002929688 c 0
 209.84765625 438.002929688 259.014648438 473.169921875 316.014648438 515.502929688 c 0
 373.014648438 557.8359375 425.34765625 596.168945312 473.014648438 630.501953125 c 0
 520.681640625 664.834960938 562.514648438 692.001953125 598.514648438 712.001953125 c 0
 613.181640625 720.668945312 626.514648438 725.001953125 638.514648438 725.001953125 c 0
 647.84765625 725.001953125 655.514648438 722.668945312 661.514648438 718.001953125 c 0
 673.514648438 709.334960938 680.84765625 697.66796875 683.514648438 683.000976562 c 0
 684.84765625 676.333984375 684.680664062 669.000976562 683.013671875 661.000976562 c 0
 681.346679688 653.000976562 676.846679688 644.66796875 669.513671875 636.000976562 c 0
 658.846679688 622.66796875 640.513671875 607.66796875 614.513671875 591.000976562 c 0
 573.846679688 565.000976562 514.846679688 524.833984375 437.513671875 470.500976562 c 0
 360.180664062 416.16796875 307.513671875 379.334960938 279.513671875 360.001953125 c 1
 296.180664062 342.001953125 315.34765625 319.668945312 337.014648438 293.001953125 c 0
 358.681640625 266.334960938 378.014648438 241.66796875 395.014648438 219.000976562 c 0
 412.014648438 196.333984375 430.681640625 173.166992188 451.014648438 149.5 c 0
 471.34765625 125.833007812 490.180664062 106.833007812 507.513671875 92.5 c 0
 524.846679688 78.1669921875 535.846679688 65 540.513671875 53 c 0
 543.846679688 45 544.1796875 36.3330078125 541.512695312 27 c 0
 540.1796875 20.3330078125 537.512695312 14 533.512695312 8 c 0
 520.845703125 -10 502.512695312 -20.6669921875 478.512695312 -24 c 2
 469.512695312 -24 l 2
EndSplineSet
Validated: 524289
EndChar

StartChar: equal
Encoding: 61 61 36
Width: 590
GlyphClass: 2
Flags: HMW
HStem: 235 107<205.087 238.087> 435 106
LayerCount: 2
Fore
SplineSet
555.751953125 541 m 0
 573.751953125 541 585.419921875 536.33203125 590.752929688 526.999023438 c 0
 594.307617188 520.77734375 596.0859375 513.518554688 596.0859375 505.22265625 c 0
 596.0859375 501.07421875 595.640625 496.666015625 594.751953125 491.999023438 c 2
 594.751953125 490.999023438 l 2
 593.418945312 483.666015625 591.418945312 476.999023438 588.751953125 470.999023438 c 0
 586.084960938 464.999023438 582.084960938 458.83203125 576.751953125 452.499023438 c 0
 571.418945312 446.166015625 564.418945312 441.333007812 555.751953125 438 c 0
 549.751953125 436 543.751953125 435 537.751953125 435 c 2
 529.751953125 435 l 2
 507.751953125 435.666992188 484.751953125 436 460.751953125 436 c 2
 357.751953125 433 l 2
 314.418945312 431.666992188 282.418945312 431 261.751953125 431 c 0
 243.751953125 431 230.418945312 436 221.751953125 446 c 0
 215.4921875 453.22265625 212.362304688 461.8359375 212.362304688 471.840820312 c 0
 212.362304688 475.688476562 212.825195312 479.741210938 213.750976562 484 c 2
 213.750976562 487 l 2
 217.083984375 501 224.583984375 513.5 236.250976562 524.5 c 0
 247.91796875 535.5 262.41796875 541 279.750976562 541 c 2
 283.750976562 541 l 2
 320.150390625 539.799804688 360.149414062 539.200195312 403.749023438 539.200195312 c 0
 432.81640625 539.200195312 463.484375 539.466796875 495.751953125 540 c 0
 529.084960938 540.666992188 549.084960938 541 555.751953125 541 c 0
491.752929688 238.999023438 m 2
 484.75390625 239 l 2
 470.75390625 239.666992188 457.420898438 240 444.75390625 240 c 0
 418.75390625 240 378.75390625 239.166992188 324.75390625 237.5 c 0
 270.75390625 235.833007812 234.086914062 235 214.75390625 235 c 0
 195.420898438 235 182.087890625 240.333007812 174.754882812 251 c 0
 169.712890625 258.333984375 167.192382812 266.770507812 167.192382812 276.309570312 c 0
 167.192382812 280.645507812 167.712890625 285.208984375 168.754882812 290 c 2
 168.754882812 292 l 2
 172.087890625 306 179.920898438 317.833007812 192.25390625 327.5 c 0
 204.586914062 337.166992188 219.75390625 342 237.75390625 342 c 0
 238.420898438 342 243.75390625 341.666992188 253.75390625 341 c 0
 266.87109375 340.77734375 281.434570312 340.666015625 297.443359375 340.666015625 c 0
 329.438476562 340.666015625 367.208007812 341.110351562 410.752929688 341.999023438 c 2
 509.752929688 344.999023438 l 2
 527.752929688 344.999023438 539.5859375 340.33203125 545.252929688 330.999023438 c 0
 549.106445312 324.65234375 551.033203125 317.227539062 551.033203125 308.72265625 c 0
 551.033203125 304.720703125 550.606445312 300.479492188 549.752929688 295.999023438 c 2
 549.752929688 294.999023438 l 2
 548.419921875 287.666015625 546.252929688 281.166015625 543.252929688 275.499023438 c 0
 540.252929688 269.83203125 536.419921875 263.999023438 531.752929688 257.999023438 c 0
 526.419921875 251.33203125 519.419921875 245.999023438 510.752929688 241.999023438 c 0
 504.752929688 239.999023438 498.419921875 238.999023438 491.752929688 238.999023438 c 2
EndSplineSet
Validated: 524289
EndChar

StartChar: greater
Encoding: 62 62 37
Width: 590
GlyphClass: 2
Flags: HMW
HStem: -18 21G<102.89 113.558>
LayerCount: 2
Fore
SplineSet
107.224609375 -18 m 0
 98.5576171875 -18 91.2216796875 -15.6689453125 85.2216796875 -11.001953125 c 0
 79.2216796875 -6.3349609375 74.388671875 -1.001953125 70.7216796875 4.998046875 c 0
 67.0546875 10.998046875 64.5546875 17.3310546875 63.2216796875 23.998046875 c 0
 61.888671875 30.6650390625 62.0556640625 37.998046875 63.72265625 45.998046875 c 0
 65.3896484375 53.998046875 69.556640625 62.3310546875 76.2236328125 70.998046875 c 0
 86.890625 84.3310546875 105.557617188 99.3310546875 132.224609375 115.998046875 c 0
 172.891601562 141.998046875 231.891601562 182.165039062 309.224609375 236.498046875 c 0
 386.557617188 290.831054688 438.890625 327.6640625 466.223632812 346.997070312 c 1
 448.890625 364.997070312 429.723632812 387.330078125 408.723632812 413.997070312 c 0
 387.723632812 440.6640625 368.556640625 465.331054688 351.223632812 487.998046875 c 0
 333.890625 510.665039062 315.057617188 533.83203125 294.724609375 557.499023438 c 0
 274.391601562 581.166015625 255.724609375 600.166015625 238.724609375 614.499023438 c 0
 221.724609375 628.83203125 210.891601562 641.999023438 206.224609375 653.999023438 c 0
 202.891601562 661.999023438 202.55859375 670.666015625 205.225585938 679.999023438 c 0
 206.55859375 686.666015625 209.225585938 692.999023438 213.225585938 698.999023438 c 0
 225.892578125 716.999023438 244.225585938 727.666015625 268.225585938 730.999023438 c 2
 277.225585938 730.999023438 l 2
 287.225585938 730.999023438 297.892578125 728.999023438 309.225585938 724.999023438 c 0
 324.55859375 719.666015625 342.05859375 707.833007812 361.725585938 689.5 c 0
 381.392578125 671.166992188 401.392578125 649 421.725585938 623 c 0
 442.05859375 597 462.225585938 571.166992188 482.225585938 545.5 c 0
 502.225585938 519.833007812 523.392578125 493.333007812 545.725585938 466 c 0
 568.05859375 438.666992188 587.55859375 417 604.225585938 401 c 0
 612.225585938 393 616.225585938 382 616.225585938 368 c 0
 616.225585938 362 615.392578125 355.5 613.725585938 348.5 c 0
 612.05859375 341.5 609.55859375 334.333007812 606.225585938 327 c 0
 599.55859375 313 590.225585938 303 578.225585938 297 c 0
 536.892578125 269.666992188 487.725585938 234.666992188 430.725585938 192 c 0
 373.725585938 149.333007812 321.392578125 110.833007812 273.725585938 76.5 c 0
 226.05859375 42.1669921875 184.225585938 15 148.225585938 -5 c 0
 133.55859375 -13.6669921875 119.891601562 -18 107.224609375 -18 c 0
EndSplineSet
Validated: 524289
EndChar

StartChar: question
Encoding: 63 63 38
Width: 590
GlyphClass: 2
Flags: HMW
HStem: -25.999 178.002<244.876 321.208 255.876 321.208> 508.998 21G<259.208 260.875 260.875 268.875> 625.003 108.995<436.542 442.874>
VStem: 274.876 116
LayerCount: 2
Fore
SplineSet
323.875 201 m 0
 318.541992188 201 312.875976562 201.66796875 306.875976562 203.000976562 c 0
 283.828125 209.810546875 272.3046875 224.028320312 272.3046875 245.655273438 c 0
 272.3046875 251.552734375 273.162109375 258.001953125 274.875976562 265.001953125 c 0
 276.875976562 274.334960938 280.54296875 284.334960938 285.875976562 295.001953125 c 0
 295.208984375 314.334960938 306.041992188 332.334960938 318.375 349.001953125 c 0
 330.708007812 365.668945312 343.375 380.001953125 356.375 392.001953125 c 0
 369.375 404.001953125 382.541992188 415.168945312 395.875 425.501953125 c 0
 409.208007812 435.834960938 421.875 445.501953125 433.875 454.501953125 c 0
 445.875 463.501953125 456.541992188 472.334960938 465.875 481.001953125 c 0
 485.875 499.668945312 498.208007812 519.001953125 502.875 539.001953125 c 0
 505.563476562 550.24609375 506.908203125 560.280273438 506.908203125 569.104492188 c 0
 506.908203125 584.34765625 502.896484375 595.98046875 494.874023438 604.002929688 c 0
 481.541015625 618.002929688 458.874023438 625.002929688 426.874023438 625.002929688 c 0
 419.541015625 625.002929688 411.708007812 623.169921875 403.375 619.502929688 c 0
 395.041992188 615.8359375 387.375 611.668945312 380.375 607.001953125 c 0
 373.375 602.334960938 365.541992188 595.66796875 356.875 587.000976562 c 0
 348.208007812 578.333984375 341.208007812 571.166992188 335.875 565.5 c 0
 330.541992188 559.833007812 323.875 552.166015625 315.875 542.499023438 c 0
 307.875 532.83203125 300.041992188 525.165039062 292.375 519.498046875 c 0
 284.708007812 513.831054688 276.875 510.331054688 268.875 508.998046875 c 2
 260.875 508.998046875 l 2
 257.541992188 508.998046875 253.875 509.665039062 249.875 510.998046875 c 0
 245.875 512.331054688 240.208007812 514.6640625 232.875 517.997070312 c 0
 220.875 525.997070312 214.875 537.330078125 214.875 551.997070312 c 0
 214.875 555.330078125 215.208007812 559.330078125 215.875 563.997070312 c 0
 218.541992188 575.997070312 224.875 589.330078125 234.875 603.997070312 c 0
 245.541992188 618.6640625 257.541992188 632.831054688 270.875 646.498046875 c 0
 284.208007812 660.165039062 300.041015625 673.998046875 318.374023438 687.998046875 c 0
 336.70703125 701.998046875 357.20703125 713.165039062 379.874023438 721.498046875 c 0
 402.541015625 729.831054688 425.208007812 733.998046875 447.875 733.998046875 c 0
 517.208007812 733.998046875 566.375 716.165039062 595.375 680.498046875 c 0
 614.063476562 657.512695312 623.408203125 627.3984375 623.408203125 590.154296875 c 0
 623.408203125 569.60546875 620.563476562 546.88671875 614.875 521.998046875 c 0
 610.208007812 502.665039062 603.208007812 484.83203125 593.875 468.499023438 c 0
 584.541992188 452.166015625 573.708984375 438.333007812 561.375976562 427 c 0
 549.04296875 415.666992188 536.375976562 405.166992188 523.375976562 395.5 c 0
 510.375976562 385.833007812 497.208984375 376.5 483.875976562 367.5 c 0
 470.54296875 358.5 458.04296875 349.166992188 446.375976562 339.5 c 0
 434.708984375 329.833007812 423.875976562 318.333007812 413.875976562 305 c 0
 403.875976562 291.666992188 396.208984375 276.666992188 390.875976562 260 c 0
 383.54296875 240 372.875976562 224.333007812 358.875976562 213 c 0
 348.208984375 205 336.541992188 201 323.875 201 c 0
255.875976562 -25.9990234375 m 2
 233.875976562 -25.9990234375 217.541992188 -17.9990234375 206.875 -1.9990234375 c 0
 198.279296875 10.66796875 193.982421875 24.7158203125 193.982421875 40.1455078125 c 0
 193.982421875 47.4541015625 194.946289062 55.0732421875 196.875 63.001953125 c 0
 202.875 87.6689453125 216.875 108.3359375 238.875 125.002929688 c 0
 262.208007812 143.002929688 285.875 152.002929688 309.875 152.002929688 c 0
 332.541992188 152.002929688 349.875 144.002929688 361.875 128.002929688 c 0
 370.026367188 116.681640625 374.1015625 103.515625 374.1015625 88.50390625 c 0
 374.1015625 81.4140625 373.192382812 73.9140625 371.375 66.001953125 c 0
 365.708007812 41.3349609375 353.208007812 20.66796875 333.875 4.0009765625 c 0
 314.541992188 -12.666015625 292.208984375 -22.666015625 266.875976562 -25.9990234375 c 2
 255.875976562 -25.9990234375 l 2
EndSplineSet
Validated: 524289
EndChar

StartChar: at
Encoding: 64 64 39
Width: 590
GlyphClass: 2
Flags: HMW
HStem: -141.997 110.002<235.792 292.46 253.126 292.46> 105 105.001<324.13 324.797> 369.5 100.5 601.002 113.999<440.127 481.791>
VStem: 78.625 109.002 545.63 98.4951
LayerCount: 2
Fore
SplineSet
395.124023438 148 m 1
 370.45703125 119.333007812 341.463867188 105 308.130859375 105 c 0
 268.130859375 105 239.963867188 118.833007812 223.630859375 146.5 c 0
 214.431640625 162.08203125 209.833007812 181.735351562 209.833007812 205.458984375 c 0
 209.833007812 223.857421875 212.598632812 244.704101562 218.131835938 268 c 0
 224.131835938 294.666992188 232.46484375 319.166992188 243.131835938 341.5 c 0
 253.798828125 363.833007812 265.798828125 383 279.131835938 399 c 0
 292.46484375 415 307.131835938 428.666992188 323.131835938 440 c 0
 351.131835938 460 381.131835938 470 413.131835938 470 c 0
 431.798828125 470 449.465820312 466 466.1328125 458 c 0
 480.799804688 451.333007812 491.799804688 442.333007812 499.1328125 431 c 0
 504.465820312 421.666992188 506.1328125 412.666992188 504.1328125 404 c 0
 503.465820312 399.333007812 501.1328125 394.333007812 497.1328125 389 c 0
 493.1328125 383.666992188 488.465820312 378.666992188 483.1328125 374 c 0
 477.799804688 369.333007812 472.1328125 366 466.1328125 364 c 0
 457.465820312 361.333007812 450.798828125 360 446.131835938 360 c 0
 438.131835938 360 429.46484375 361.333007812 420.131835938 364 c 0
 417.46484375 364.666992188 413.131835938 366 407.131835938 368 c 0
 400.46484375 369.333007812 393.96484375 369.833007812 387.631835938 369.5 c 0
 381.298828125 369.166992188 374.631835938 366.833984375 367.631835938 362.500976562 c 0
 360.631835938 358.16796875 353.798828125 352.66796875 347.131835938 346.000976562 c 0
 340.46484375 339.333984375 334.297851562 330.333984375 328.630859375 319.000976562 c 0
 322.963867188 307.66796875 318.796875 294.66796875 316.129882812 280.000976562 c 0
 314.129882812 272.000976562 312.629882812 264.333984375 311.629882812 257.000976562 c 0
 310.629882812 249.66796875 310.462890625 242.000976562 311.129882812 234.000976562 c 0
 311.796875 218.000976562 318.129882812 210.000976562 330.129882812 210.000976562 c 0
 337.462890625 210.000976562 343.462890625 211.333984375 348.129882812 214.000976562 c 0
 354.796875 216.66796875 360.463867188 221.334960938 365.130859375 228.001953125 c 0
 375.797851562 242.668945312 385.797851562 268.001953125 395.130859375 304.001953125 c 0
 399.130859375 319.334960938 412.463867188 331.66796875 435.130859375 341.000976562 c 0
 447.797851562 345.66796875 459.130859375 348.334960938 469.130859375 349.001953125 c 0
 476.463867188 349.001953125 482.463867188 347.668945312 487.130859375 345.001953125 c 0
 496.3046875 340.684570312 500.891601562 333.52734375 500.891601562 323.53125 c 0
 500.891601562 321.178710938 500.637695312 318.668945312 500.129882812 316.001953125 c 0
 500.129882812 314.668945312 499.462890625 313.3359375 498.129882812 312.002929688 c 0
 490.129882812 288.669921875 484.462890625 269.002929688 481.129882812 253.002929688 c 0
 477.129882812 235.002929688 475.129882812 219.669921875 475.129882812 207.002929688 c 0
 475.129882812 202.3359375 475.796875 199.002929688 477.129882812 197.002929688 c 0
 478.462890625 193.669921875 480.462890625 192.002929688 483.129882812 192.002929688 c 0
 484.462890625 193.3359375 486.129882812 195.3359375 488.129882812 198.002929688 c 0
 492.796875 206.002929688 497.796875 216.3359375 503.129882812 229.002929688 c 0
 511.129882812 253.002929688 517.462890625 275.002929688 522.129882812 295.002929688 c 0
 530.129882812 328.3359375 535.962890625 359.168945312 539.629882812 387.501953125 c 0
 543.296875 415.834960938 545.296875 439.834960938 545.629882812 459.501953125 c 0
 545.666992188 461.684570312 545.685546875 463.845703125 545.685546875 465.983398438 c 0
 545.685546875 483.10546875 544.5 498.778320312 542.12890625 513.001953125 c 0
 539.461914062 529.001953125 536.294921875 541.668945312 532.627929688 551.001953125 c 0
 528.9609375 560.334960938 523.9609375 568.334960938 517.627929688 575.001953125 c 0
 511.294921875 581.668945312 505.627929688 586.501953125 500.627929688 589.501953125 c 0
 495.627929688 592.501953125 489.627929688 595.001953125 482.627929688 597.001953125 c 0
 475.627929688 599.001953125 470.294921875 600.168945312 466.627929688 600.501953125 c 0
 462.9609375 600.834960938 457.793945312 601.001953125 451.126953125 601.001953125 c 0
 429.126953125 601.001953125 406.293945312 593.334960938 382.626953125 578.001953125 c 0
 358.959960938 562.668945312 336.126953125 540.668945312 314.126953125 512.001953125 c 0
 292.126953125 483.334960938 271.459960938 447.501953125 252.126953125 404.501953125 c 0
 232.793945312 361.501953125 217.4609375 314.668945312 206.127929688 264.001953125 c 0
 195.4609375 219.334960938 189.293945312 179.334960938 187.626953125 144.001953125 c 0
 187.188476562 134.703125 186.96875 125.888671875 186.96875 117.559570312 c 0
 186.96875 94.240234375 188.688476562 74.7216796875 192.126953125 59.0029296875 c 0
 196.793945312 37.669921875 204.126953125 19.8369140625 214.126953125 5.50390625 c 0
 224.126953125 -8.8291015625 234.793945312 -18.662109375 246.126953125 -23.9951171875 c 0
 257.459960938 -29.328125 270.459960938 -31.9951171875 285.126953125 -31.9951171875 c 0
 299.793945312 -31.9951171875 313.626953125 -30.328125 326.626953125 -26.9951171875 c 0
 339.626953125 -23.662109375 350.626953125 -19.9951171875 359.626953125 -15.9951171875 c 0
 368.626953125 -11.9951171875 377.626953125 -6.328125 386.626953125 1.0048828125 c 0
 395.626953125 8.337890625 402.959960938 15.1708984375 408.626953125 21.50390625 c 0
 414.293945312 27.8369140625 421.126953125 35.669921875 429.126953125 45.0029296875 c 0
 433.126953125 50.3359375 436.293945312 54.5029296875 438.626953125 57.5029296875 c 0
 440.959960938 60.5029296875 444.126953125 64.169921875 448.126953125 68.5029296875 c 0
 452.126953125 72.8359375 455.626953125 76.0029296875 458.626953125 78.0029296875 c 0
 461.626953125 80.0029296875 465.126953125 82.0029296875 469.126953125 84.0029296875 c 0
 473.126953125 86.0029296875 477.459960938 87.0029296875 482.126953125 87.0029296875 c 0
 486.793945312 87.0029296875 491.126953125 86.0029296875 495.126953125 84.0029296875 c 0
 501.126953125 81.3359375 505.793945312 78.0029296875 509.126953125 74.0029296875 c 0
 512.459960938 70.0029296875 514.626953125 65.169921875 515.626953125 59.5029296875 c 0
 516.626953125 53.8359375 516.459960938 48.0029296875 515.126953125 42.0029296875 c 0
 512.459960938 30.669921875 506.459960938 17.0029296875 497.126953125 1.0029296875 c 0
 491.126953125 -8.9970703125 485.459960938 -17.6640625 480.126953125 -24.9970703125 c 0
 474.793945312 -32.330078125 467.793945312 -41.330078125 459.126953125 -51.9970703125 c 0
 450.459960938 -62.6640625 441.79296875 -71.9970703125 433.125976562 -79.9970703125 c 0
 424.458984375 -87.9970703125 413.458984375 -96.1640625 400.125976562 -104.497070312 c 0
 386.79296875 -112.830078125 373.125976562 -119.497070312 359.125976562 -124.497070312 c 0
 345.125976562 -129.497070312 329.458984375 -133.6640625 312.125976562 -136.997070312 c 0
 294.79296875 -140.330078125 277.125976562 -141.997070312 259.125976562 -141.997070312 c 2
 253.125976562 -141.997070312 l 2
 218.458984375 -141.997070312 188.291992188 -132.6640625 162.625 -113.997070312 c 0
 136.958007812 -95.330078125 116.958007812 -69.9970703125 102.625 -37.9970703125 c 0
 88.2919921875 -5.9970703125 80.2919921875 32.8359375 78.625 78.5029296875 c 0
 78.421875 84.072265625 78.3203125 89.7041015625 78.3203125 95.3984375 c 0
 78.3203125 136.387695312 83.5888671875 180.588867188 94.125 228.002929688 c 0
 108.125 287.3359375 125.291992188 342.8359375 145.625 394.502929688 c 0
 165.958007812 446.169921875 188.625 491.169921875 213.625 529.502929688 c 0
 238.625 567.8359375 265.291992188 601.168945312 293.625 629.501953125 c 0
 321.958007812 657.834960938 351.125 679.16796875 381.125 693.500976562 c 0
 411.125 707.833984375 441.125 715.000976562 471.125 715.000976562 c 0
 492.458007812 715.000976562 511.625 713.16796875 528.625 709.500976562 c 0
 545.625 705.833984375 561.625 699.500976562 576.625 690.500976562 c 0
 591.625 681.500976562 603.791992188 669.66796875 613.125 655.000976562 c 0
 622.458007812 640.333984375 629.958007812 622.000976562 635.625 600.000976562 c 0
 641.291992188 578.000976562 644.125 552.333984375 644.125 523.000976562 c 0
 644.125 461.66796875 633.125 385.000976562 611.125 293.000976562 c 0
 599.125 242.333984375 582.125 198.000976562 560.125 160.000976562 c 0
 547.458007812 138.66796875 532.625 121.500976562 515.625 108.500976562 c 0
 498.625 95.5009765625 480.458007812 89.0009765625 461.125 89.0009765625 c 0
 432.458007812 89.0009765625 412.791015625 99.333984375 402.124023438 120.000976562 c 0
 398.124023438 127.333984375 395.791015625 136.666992188 395.124023438 148 c 1
EndSplineSet
Validated: 524289
EndChar

StartChar: A
Encoding: 65 65 40
Width: 590
GlyphClass: 2
Flags: HMW
HStem: -6.00195 21G<70.8334 78.5004> 251 91.998<461.162 461.162>
VStem: 461.163 109.502 466.168 115.998
LayerCount: 2
Fore
SplineSet
141.162109375 49 m 0xe0
 128.495117188 25 114.500976562 8.998046875 99.16796875 0.998046875 c 0
 90.5009765625 -3.6689453125 82.333984375 -6.001953125 74.6669921875 -6.001953125 c 0
 67 -6.001953125 60.1669921875 -4.3349609375 54.1669921875 -1.001953125 c 0
 44.1669921875 4.3310546875 37.833984375 12.6640625 35.1669921875 23.9970703125 c 0
 33.1669921875 32.6640625 33.333984375 42.1640625 35.6669921875 52.4970703125 c 0
 38 62.830078125 41.8330078125 73.6630859375 47.166015625 84.99609375 c 0
 55.8330078125 105.663085938 84.166015625 153.99609375 132.166015625 229.99609375 c 1
 126.610351562 237.21875 123.83203125 245.831054688 123.83203125 255.83203125 c 0
 123.83203125 257.831054688 123.943359375 259.88671875 124.165039062 261.997070312 c 0
 124.165039062 262.6640625 124.498046875 263.331054688 125.165039062 263.998046875 c 0
 127.83203125 275.998046875 135.499023438 286.665039062 148.166015625 295.998046875 c 0
 158.833007812 304.665039062 171.166015625 311.33203125 185.166015625 315.999023438 c 1
 307.166015625 497.999023438 397.499023438 620.33203125 456.166015625 682.999023438 c 0
 470.166015625 696.999023438 482.499023438 707.33203125 493.166015625 713.999023438 c 0
 503.833007812 721.33203125 515.166015625 724.999023438 527.166015625 724.999023438 c 0
 530.499023438 724.999023438 533.166015625 725.33203125 535.166015625 725.999023438 c 0
 547.833007812 725.999023438 558.166015625 722.666015625 566.166015625 715.999023438 c 0
 576.965820312 708.798828125 582.366210938 697.818359375 582.366210938 683.05859375 c 0
 582.366210938 681.41796875 582.298828125 679.732421875 582.166015625 677.999023438 c 0xd0
 577.499023438 597.999023438 573.83203125 484.999023438 571.165039062 338.999023438 c 0
 570.403320312 292.51953125 570.022460938 253.061523438 570.022460938 220.625 c 0
 570.022460938 196.301757812 570.236328125 175.926757812 570.665039062 159.5 c 0
 571.665039062 121.166992188 573.498046875 97.6669921875 576.165039062 89 c 0
 578.248046875 81.5 579.290039062 74.259765625 579.290039062 67.2802734375 c 0
 579.290039062 63.09375 578.915039062 59 578.165039062 55 c 0
 577.498046875 53 576.831054688 50.6669921875 576.1640625 48 c 0
 572.1640625 36 565.997070312 25.8330078125 557.6640625 17.5 c 0
 549.331054688 9.1669921875 540.1640625 3 530.1640625 -1 c 0
 518.831054688 -4.3330078125 511.831054688 -6 509.1640625 -6 c 0
 501.1640625 -6 493.497070312 -3.6669921875 486.1640625 1 c 0
 473.497070312 9 465.830078125 24.6669921875 463.163085938 48 c 0
 461.080078125 61.333984375 460.038085938 92.767578125 460.038085938 142.301757812 c 0
 460.038085938 172.01953125 460.413085938 208.251953125 461.163085938 251 c 1
 382.49609375 247.666992188 310.829101562 241 246.162109375 231 c 1
 212.829101562 179 177.829101562 118.333007812 141.162109375 49 c 0xe0
310.16796875 331.998046875 m 1
 365.500976562 337.998046875 415.834960938 341.665039062 461.16796875 342.998046875 c 1
 466.16796875 567.998046875 l 1
 428.834960938 519.998046875 376.834960938 441.331054688 310.16796875 331.998046875 c 1
EndSplineSet
Validated: 524289
EndChar

StartChar: B
Encoding: 66 66 41
Width: 590
GlyphClass: 2
Flags: HMW
HStem: -23 21G<112.009 119.341> 285.002 97.998 605.004 103.999<389.677 394.676>
LayerCount: 2
Fore
SplineSet
55.6748046875 42 m 0
 61.6748046875 61.3330078125 70.0087890625 94.00390625 80.67578125 140.00390625 c 0
 100.67578125 227.336914062 121.342773438 324.00390625 142.67578125 430.00390625 c 0
 151.342773438 473.336914062 157.342773438 502.50390625 160.67578125 517.50390625 c 0
 164.008789062 532.50390625 169.008789062 552.50390625 175.67578125 577.50390625 c 0
 182.342773438 602.50390625 187.009765625 619.670898438 189.676757812 629.00390625 c 0
 195.009765625 649.670898438 204.509765625 665.670898438 218.176757812 677.00390625 c 0
 231.84375 688.336914062 246.34375 694.00390625 261.676757812 694.00390625 c 2
 264.676757812 694.00390625 l 1
 282.676757812 699.336914062 304.34375 703.336914062 329.676757812 706.00390625 c 0
 340.34375 707.336914062 351.34375 708.169921875 362.676757812 708.502929688 c 0
 374.009765625 708.8359375 383.009765625 709.002929688 389.676757812 709.002929688 c 2
 409.676757812 709.002929688 l 1
 421.676757812 709.002929688 l 2
 469.009765625 709.002929688 509.676757812 700.669921875 543.676757812 684.002929688 c 0
 577.009765625 667.3359375 599.676757812 642.3359375 611.676757812 609.002929688 c 0
 619.295898438 589.955078125 623.10546875 569.166015625 623.10546875 546.634765625 c 0
 623.10546875 529.737304688 620.962890625 511.860351562 616.676757812 493.002929688 c 0
 608.009765625 455.002929688 591.342773438 422.002929688 566.67578125 394.002929688 c 0
 548.67578125 372.669921875 528.008789062 355.669921875 504.67578125 343.002929688 c 1
 517.342773438 336.3359375 529.009765625 328.668945312 539.676757812 320.001953125 c 0
 557.009765625 305.334960938 571.009765625 288.66796875 581.676757812 270.000976562 c 0
 589.434570312 256.424804688 593.313476562 243.026367188 593.313476562 229.802734375 c 0
 593.313476562 224.84375 592.767578125 219.91015625 591.676757812 215.000976562 c 0
 591.676757812 214.333984375 591.34375 214.000976562 590.676757812 214.000976562 c 0
 584.676757812 188.000976562 572.34375 162.333984375 553.676757812 137.000976562 c 0
 535.009765625 111.66796875 511.342773438 88.5009765625 482.67578125 67.5009765625 c 0
 454.008789062 46.5009765625 418.341796875 28.66796875 375.674804688 14.0009765625 c 0
 332.341796875 -0.666015625 286.674804688 -9.9990234375 238.674804688 -13.9990234375 c 1
 233.688476562 -10.7724609375 228.37890625 -9.1591796875 222.747070312 -9.1591796875 c 0
 215.579101562 -9.1591796875 207.888671875 -11.7724609375 199.674804688 -16.9990234375 c 1
 167.0078125 -19.666015625 146.674804688 -21.3330078125 138.674804688 -22 c 0
 130.674804688 -22.6669921875 123.0078125 -23 115.674804688 -23 c 0
 108.341796875 -23 101.674804688 -22.3330078125 95.6748046875 -21 c 2
 93.6748046875 -21 l 2
 78.341796875 -21 66.6748046875 -15.3330078125 58.6748046875 -4 c 0
 54.5078125 2.25 52.4248046875 9.671875 52.4248046875 18.265625 c 0
 52.4248046875 23.421875 53.1748046875 29 54.6748046875 35 c 0
 54.6748046875 37.6669921875 55.0078125 40 55.6748046875 42 c 0
248.67578125 402.00390625 m 0
 247.342773438 395.336914062 246.006835938 389 244.673828125 383 c 1
 272.006835938 382.333007812 296.673828125 381.833007812 318.673828125 381.5 c 0
 320.872070312 381.466796875 323.04296875 381.450195312 325.184570312 381.450195312 c 0
 344.4765625 381.450195312 361.47265625 382.799804688 376.173828125 385.5 c 0
 392.506835938 388.5 406.506835938 392.333007812 418.173828125 397 c 0
 429.840820312 401.666992188 440.5078125 407.333984375 450.174804688 414.000976562 c 0
 459.841796875 420.66796875 467.508789062 427.334960938 473.17578125 434.001953125 c 0
 478.842773438 440.668945312 484.17578125 448.168945312 489.17578125 456.501953125 c 0
 494.17578125 464.834960938 498.008789062 472.334960938 500.67578125 479.001953125 c 0
 503.342773438 485.668945312 505.342773438 492.668945312 506.67578125 500.001953125 c 0
 508.4296875 507.721679688 509.307617188 515.1640625 509.307617188 522.330078125 c 0
 509.307617188 528.778320312 508.596679688 535.002929688 507.17578125 541.002929688 c 0
 504.17578125 553.669921875 498.67578125 563.836914062 490.67578125 571.50390625 c 0
 482.67578125 579.170898438 473.342773438 585.670898438 462.67578125 591.00390625 c 0
 443.92578125 600.37890625 422.833007812 605.06640625 399.396484375 605.06640625 c 0
 397.833007812 605.06640625 396.259765625 605.045898438 394.67578125 605.00390625 c 0
 362.67578125 605.00390625 330.67578125 602.00390625 298.67578125 596.00390625 c 1
 295.342773438 584.00390625 290.67578125 566.00390625 284.67578125 542.00390625 c 0
 270.67578125 492.670898438 258.67578125 446.00390625 248.67578125 402.00390625 c 0
451.172851562 165.5 m 0
 462.83984375 178.5 469.674804688 189.670898438 471.674804688 199.00390625 c 0
 473.0078125 204.336914062 471.5078125 210.669921875 467.174804688 218.002929688 c 0
 462.841796875 225.3359375 454.841796875 233.168945312 443.174804688 241.501953125 c 0
 431.5078125 249.834960938 413.840820312 258.001953125 390.173828125 266.001953125 c 0
 366.506835938 274.001953125 339.006835938 280.334960938 307.673828125 285.001953125 c 1
 224.673828125 285.001953125 l 1
 206.006835938 193.001953125 192.33984375 124.668945312 183.672851562 80.001953125 c 1
 190.33984375 80.001953125 200.33984375 80.1689453125 213.672851562 80.501953125 c 0
 227.005859375 80.8349609375 238.005859375 81.3349609375 246.672851562 82.001953125 c 0
 276.672851562 83.3349609375 305.672851562 88.16796875 333.672851562 96.5009765625 c 0
 361.672851562 104.833984375 385.33984375 115.166992188 404.672851562 127.5 c 0
 424.005859375 139.833007812 439.505859375 152.5 451.172851562 165.5 c 0
EndSplineSet
Validated: 524289
EndChar

StartChar: C
Encoding: 67 67 42
Width: 590
GlyphClass: 2
Flags: HMW
HStem: -30.9971 114.001<235.598 297.598 249.931 297.598> 608.005 104.996<528.598 529.598>
LayerCount: 2
Fore
SplineSet
704.930664062 692 m 0
 704.930664062 666 701.264648438 638.336914062 693.931640625 609.00390625 c 0
 689.264648438 589.00390625 686.264648438 577.00390625 684.931640625 573.00390625 c 0
 680.931640625 556.336914062 671.431640625 539.50390625 656.431640625 522.50390625 c 0
 641.431640625 505.50390625 627.264648438 496.336914062 613.931640625 495.00390625 c 0
 611.264648438 495.00390625 608.264648438 494.670898438 604.931640625 494.00390625 c 0
 593.598632812 494.00390625 583.598632812 498.00390625 574.931640625 506.00390625 c 0
 564.67578125 514.208984375 559.546875 524.583984375 559.546875 537.12890625 c 0
 559.546875 540.891601562 560.008789062 544.850585938 560.931640625 549.00390625 c 0
 562.264648438 553.670898438 565.59765625 565.670898438 570.930664062 585.00390625 c 1
 563.59765625 590.336914062 558.930664062 593.836914062 556.930664062 595.50390625 c 0
 554.930664062 597.170898438 551.930664062 599.337890625 547.930664062 602.004882812 c 0
 540.59765625 606.004882812 533.264648438 608.004882812 525.931640625 608.004882812 c 0
 507.264648438 608.004882812 485.264648438 602.004882812 459.931640625 590.004882812 c 0
 434.598632812 578.004882812 408.931640625 560.504882812 382.931640625 537.504882812 c 0
 356.931640625 514.504882812 331.764648438 488.171875 307.431640625 458.504882812 c 0
 283.098632812 428.837890625 261.431640625 395.170898438 242.431640625 357.50390625 c 0
 223.431640625 319.836914062 209.598632812 282.336914062 200.931640625 245.00390625 c 0
 197.754882812 230.88671875 196.166992188 217.001953125 196.166992188 203.3515625 c 0
 196.166992188 191.217773438 197.421875 179.268554688 199.931640625 167.50390625 c 0
 205.264648438 142.50390625 215.764648438 122.170898438 231.431640625 106.50390625 c 0
 247.098632812 90.8369140625 265.598632812 83.00390625 286.931640625 83.00390625 c 0
 308.264648438 83.00390625 329.264648438 85.1708984375 349.931640625 89.50390625 c 0
 370.598632812 93.8369140625 389.598632812 99.3369140625 406.931640625 106.00390625 c 0
 424.264648438 112.670898438 439.431640625 119.50390625 452.431640625 126.50390625 c 0
 465.431640625 133.50390625 477.598632812 140.670898438 488.931640625 148.00390625 c 0
 498.931640625 154.670898438 507.931640625 160.00390625 515.931640625 164.00390625 c 0
 523.931640625 168.00390625 532.431640625 169.836914062 541.431640625 169.50390625 c 0
 550.431640625 169.170898438 557.931640625 166.00390625 563.931640625 160.00390625 c 0
 572.494140625 151.44140625 576.775390625 141.641601562 576.775390625 130.60546875 c 0
 576.775390625 127.034179688 576.327148438 123.333984375 575.430664062 119.50390625 c 0
 571.763671875 103.836914062 560.263671875 86.669921875 540.930664062 68.0029296875 c 0
 472.284179688 1.99609375 379.45703125 -31.0068359375 262.450195312 -31.0068359375 c 0
 261.279296875 -31.0068359375 260.106445312 -31.00390625 258.930664062 -30.9970703125 c 2
 249.930664062 -30.9970703125 l 2
 221.263671875 -30.9970703125 194.930664062 -26.330078125 170.930664062 -16.9970703125 c 0
 147.59765625 -7.6640625 129.264648438 5.0029296875 115.931640625 21.0029296875 c 0
 102.598632812 37.0029296875 91.931640625 55.3359375 83.931640625 76.0029296875 c 0
 75.931640625 96.669921875 71.5986328125 118.669921875 70.931640625 142.002929688 c 0
 70.857421875 144.596679688 70.8203125 147.190429688 70.8203125 149.784179688 c 0
 70.8203125 170.5234375 73.1904296875 191.262695312 77.9306640625 212.001953125 c 0
 89.263671875 260.001953125 104.763671875 306.501953125 124.430664062 351.501953125 c 0
 144.09765625 396.501953125 166.09765625 437.001953125 190.430664062 473.001953125 c 0
 214.763671875 509.001953125 241.596679688 542.334960938 270.9296875 573.001953125 c 0
 300.9296875 603.001953125 331.596679688 628.168945312 362.9296875 648.501953125 c 0
 394.262695312 668.834960938 425.262695312 684.66796875 455.9296875 696.000976562 c 0
 486.596679688 707.333984375 515.263671875 713.000976562 541.930664062 713.000976562 c 0
 563.263671875 713.000976562 582.930664062 711.333984375 600.930664062 708.000976562 c 1
 606.263671875 715.333984375 612.596679688 721.666992188 619.9296875 727 c 0
 630.596679688 735 641.263671875 739.333007812 651.930664062 740 c 0
 655.930664062 740.666992188 658.430664062 741 659.430664062 741 c 2
 660.930664062 741 l 2
 670.930664062 741 679.930664062 737.666992188 687.930664062 731 c 0
 699.263671875 721.666992188 704.930664062 708.666992188 704.930664062 692 c 0
EndSplineSet
Validated: 524289
EndChar

StartChar: D
Encoding: 68 68 43
Width: 590
GlyphClass: 2
Flags: HMW
HStem: -31 110.001<295.803 353.138 311.136 353.138> 694 20G<244.139 262.805>
LayerCount: 2
Fore
SplineSet
248.638671875 86 m 0
 275.638671875 81.3330078125 307.805664062 79.0009765625 345.138671875 79.0009765625 c 0
 361.138671875 79.0009765625 377.805664062 84.66796875 395.138671875 96.0009765625 c 0
 412.471679688 107.333984375 428.3046875 122.166992188 442.637695312 140.5 c 0
 456.970703125 158.833007812 469.970703125 179.333007812 481.637695312 202 c 0
 493.3046875 224.666992188 501.471679688 246.666992188 506.138671875 268 c 0
 513.09765625 297.98828125 516.576171875 326.2265625 516.576171875 352.71484375 c 0
 516.576171875 432.810546875 484.763671875 496.905273438 421.138671875 545 c 0
 391.138671875 567.666992188 345.138671875 591 283.138671875 615 c 1
 262.471679688 533.666992188 243.471679688 448.666992188 226.138671875 360 c 0
 220.138671875 331.333007812 211.638671875 289.5 200.638671875 234.5 c 0
 189.638671875 179.5 181.138671875 137.333007812 175.138671875 108 c 1
 197.138671875 98 221.638671875 90.6669921875 248.638671875 86 c 0
46.1376953125 62 m 0
 52.8046875 84.6669921875 61.8056640625 120 73.138671875 168 c 0
 93.138671875 256 115.471679688 360.666992188 140.138671875 482 c 0
 147.471679688 518 152.471679688 541.833007812 155.138671875 553.5 c 0
 157.805664062 565.166992188 162.47265625 583 169.139648438 607 c 0
 174.24609375 625.380859375 177.591796875 637.896484375 179.178710938 644.545898438 c 0
 179.283203125 645.229492188 179.603515625 647.046875 180.140625 649.999023438 c 0
 185.473632812 670.666015625 194.806640625 686.333007812 208.139648438 697 c 0
 221.47265625 708.333007812 236.139648438 714 252.139648438 714 c 0
 273.47265625 714 300.47265625 710.666992188 333.139648438 704 c 0
 353.806640625 700 374.806640625 694.5 396.139648438 687.5 c 0
 417.47265625 680.5 439.805664062 670.666992188 463.138671875 658 c 0
 486.471679688 645.333007812 508.138671875 630.833007812 528.138671875 614.5 c 0
 548.138671875 598.166992188 566.138671875 577.333984375 582.138671875 552.000976562 c 0
 596.805664062 527.333984375 608.138671875 500.166992188 616.138671875 470.5 c 0
 623.5234375 443.116210938 627.215820312 411.1875 627.215820312 374.715820312 c 0
 627.215820312 371.67578125 627.190429688 368.603515625 627.138671875 365.5 c 0
 626.471679688 325.166992188 620.8046875 281.666992188 610.137695312 235 c 0
 604.8046875 211.666992188 596.3046875 187.666992188 584.637695312 163 c 0
 572.970703125 138.333007812 558.303710938 114.666015625 540.63671875 91.9990234375 c 0
 522.969726562 69.33203125 503.469726562 48.83203125 482.13671875 30.4990234375 c 0
 460.803710938 12.166015625 436.13671875 -2.6669921875 408.13671875 -14 c 0
 380.979492188 -25.3681640625 353.522460938 -31.052734375 325.767578125 -31.052734375 c 0
 324.224609375 -31.052734375 322.681640625 -31.03515625 321.13671875 -31 c 2
 311.13671875 -31 l 2
 280.469726562 -31 250.13671875 -29.5 220.13671875 -26.5 c 0
 190.13671875 -23.5 166.13671875 -20 148.13671875 -16 c 0
 130.803710938 -12 116.470703125 -8.3330078125 105.137695312 -5 c 0
 93.8046875 -1.6669921875 86.8046875 0 84.1376953125 0 c 0
 68.8046875 0 57.1376953125 5.6669921875 49.1376953125 17 c 0
 44.6923828125 23.6669921875 42.470703125 31.51953125 42.470703125 40.556640625 c 0
 42.470703125 45.0751953125 43.025390625 49.8896484375 44.13671875 55 c 0
 44.8037109375 57.6669921875 45.470703125 60 46.1376953125 62 c 0
179.6796875 646.7109375 m 1
 179.892578125 647.672851562 180.046875 648.435546875 180.140625 649 c 1
 179.962890625 648.11328125 179.809570312 647.349609375 179.6796875 646.7109375 c 1
EndSplineSet
Validated: 524289
EndChar

StartChar: E
Encoding: 69 69 44
Width: 590
GlyphClass: 2
Flags: HMW
HStem: -20 115 -6 115<465.208 524.873 472.208 524.873> 301 108.999 319 106<547.541 586.206> 589.998 107.998<463.538 494.206 444.206 515.872>
VStem: 186.207 1<640 640>
LayerCount: 2
Fore
SplineSet
262.205078125 704 m 2x8c
 277.538085938 704 289.206054688 698.663085938 297.206054688 687.99609375 c 1
 352.5390625 694.663085938 421.872070312 697.99609375 505.205078125 697.99609375 c 0
 526.538085938 697.99609375 546.87109375 697.663085938 566.204101562 696.99609375 c 0
 604.87109375 695.663085938 634.538085938 693.663085938 655.205078125 690.99609375 c 0
 671.872070312 688.99609375 683.0390625 683.829101562 688.706054688 675.49609375 c 0
 692.559570312 669.830078125 694.486328125 662.853515625 694.486328125 654.56640625 c 0
 694.486328125 650.666015625 694.059570312 646.4765625 693.206054688 641.99609375 c 0
 691.873046875 634.663085938 689.706054688 627.830078125 686.706054688 621.497070312 c 0
 683.706054688 615.1640625 679.873046875 609.331054688 675.206054688 603.998046875 c 0
 669.873046875 597.331054688 662.873046875 591.998046875 654.206054688 587.998046875 c 0
 648.206054688 585.998046875 641.873046875 584.998046875 635.206054688 584.998046875 c 2
 628.206054688 584.998046875 l 2
 586.206054688 588.331054688 541.5390625 589.998046875 494.206054688 589.998046875 c 2
 444.206054688 589.998046875 l 2
 384.873046875 588.665039062 332.873046875 585.33203125 288.206054688 579.999023438 c 1
 272.206054688 522.666015625 257.873046875 465.999023438 245.206054688 409.999023438 c 1
 293.206054688 410.666015625 358.5390625 413.333007812 441.206054688 418 c 0
 521.873046875 422.666992188 567.206054688 425 577.206054688 425 c 0
 595.206054688 425 607.0390625 420.333007812 612.706054688 411 c 0
 616.274414062 405.123046875 618.05859375 398.321289062 618.05859375 390.59375 c 0
 618.05859375 386.049804688 617.44140625 381.184570312 616.20703125 376 c 2
 616.20703125 375 l 2
 612.874023438 359 606.541015625 346.666992188 597.208007812 338 c 0
 585.208007812 325.333007812 570.541015625 319 553.208007812 319 c 0x9c
 541.875 319 493.208007812 316.333007812 407.208007812 311 c 0
 319.208007812 305 257.208007812 301.666992188 221.208007812 301 c 1
 217.875 285 214.375 269 210.708007812 253 c 0
 207.041015625 237 203.541015625 220.333007812 200.208007812 203 c 0
 190.208007812 158.333007812 184.208007812 127.333007812 182.208007812 110 c 0
 181.541015625 104 180.874023438 99 180.20703125 95 c 1xac
 192.20703125 93.6669921875 210.540039062 92.833984375 235.20703125 92.5009765625 c 0
 240.137695312 92.4345703125 245.321289062 92.4013671875 250.7578125 92.4013671875 c 0
 272.51953125 92.4013671875 298.3359375 92.9345703125 328.20703125 94.0009765625 c 0
 415.540039062 97.333984375 471.20703125 101.666992188 495.20703125 107 c 0
 505.20703125 108.333007812 513.874023438 109 521.20703125 109 c 0
 528.540039062 109 534.70703125 107.333007812 539.70703125 104 c 0
 544.70703125 100.666992188 548.70703125 97.1669921875 551.70703125 93.5 c 0
 554.70703125 89.8330078125 556.540039062 85.3330078125 557.20703125 80 c 0
 557.874023438 74.6669921875 558.20703125 70 558.20703125 66 c 0
 558.20703125 62 557.874023438 57.6669921875 557.20703125 53 c 0
 553.874023438 37.6669921875 545.541015625 23.6669921875 532.208007812 11 c 0
 520.208007812 -0.3330078125 506.208007812 -6.3330078125 490.208007812 -7 c 1
 487.541015625 1.6669921875 482.541015625 2 475.208007812 -6 c 1
 472.208007812 -6 l 2x4c
 458.208007812 -6 431.208007812 -7.3330078125 391.208007812 -10 c 0
 349.875 -12.6669921875 307.541992188 -15 264.208984375 -17 c 0
 220.875976562 -19 188.208984375 -20 166.208984375 -20 c 0
 144.875976562 -20 127.875976562 -19.3330078125 115.208984375 -18 c 0
 98.5419921875 -16.6669921875 83.875 -8 71.2080078125 8 c 0
 60.744140625 20.666015625 55.5126953125 35.8349609375 55.5126953125 53.505859375 c 0
 55.5126953125 57.2265625 55.744140625 61.0576171875 56.2080078125 65 c 0
 57.541015625 81 62.8740234375 109 72.20703125 149 c 0
 80.8740234375 185.666992188 89.70703125 222.5 98.70703125 259.5 c 0
 107.70703125 296.5 115.20703125 328 121.20703125 354 c 0
 127.20703125 380 134.540039062 415.666992188 143.20703125 461 c 0
 151.20703125 499.666992188 156.70703125 525.5 159.70703125 538.5 c 0
 162.70703125 551.5 167.540039062 570 174.20703125 594 c 0
 180.201171875 615.578125 184.0390625 630.150390625 185.721679688 637.716796875 c 1
 185.010742188 634.133789062 185.504882812 634.89453125 187.20703125 640 c 0
 192.540039062 660.666992188 201.873046875 676.5 215.206054688 687.5 c 0
 228.5390625 698.5 242.872070312 704 258.205078125 704 c 2
 262.205078125 704 l 2x8c
185.721679688 637.716796875 m 1
 185.846679688 638.344726562 186.008789062 639.10546875 186.20703125 640 c 1
 186.072265625 639.327148438 185.911132812 638.56640625 185.721679688 637.716796875 c 1
EndSplineSet
Validated: 524289
EndChar

StartChar: F
Encoding: 70 70 45
Width: 590
GlyphClass: 2
Flags: HMW
HStem: -21.002 21G<79.6165 87.283 87.283 90.283> 313.498 106.502 597 110<497.615 537.615> 694 20G<260.282 265.282 265.282 273.282>
LayerCount: 2
Fore
SplineSet
265.282226562 714 m 2xd0
 281.282226562 714 292.94921875 708.666992188 300.282226562 698 c 1
 381.615234375 704 459.948242188 707 535.28125 707 c 0
 584.614257812 707 624.947265625 705.333007812 656.280273438 702 c 0
 672.947265625 700.666992188 684.114257812 695.666992188 689.78125 687 c 0
 693.969726562 680.59375 696.063476562 672.548828125 696.063476562 662.865234375 c 0
 696.063476562 659.447265625 695.802734375 655.825195312 695.28125 651.999023438 c 0
 693.28125 643.33203125 692.948242188 643.33203125 694.28125 651.999023438 c 1
 690.948242188 636.666015625 683.615234375 623.333007812 672.282226562 612 c 0
 660.94921875 600.666992188 646.282226562 595 628.282226562 595 c 2
 626.282226562 595 l 2
 592.94921875 596.333007812 556.94921875 597 518.282226562 597 c 0xe0
 446.282226562 597 370.282226562 594.333007812 290.282226562 589 c 1
 287.615234375 579 283.282226562 563.666992188 277.282226562 543 c 0
 266.615234375 503.666992188 257.615234375 467 250.282226562 433 c 0
 248.94921875 427 247.616210938 421.333007812 246.283203125 416 c 1
 272.283203125 418.666992188 300.283203125 420 330.283203125 420 c 0
 338.283203125 420 346.283203125 419.666992188 354.283203125 419 c 0
 398.283203125 418.333007812 437.950195312 416.666015625 473.283203125 413.999023438 c 0
 509.283203125 411.33203125 536.116210938 408.165039062 553.783203125 404.498046875 c 0
 571.450195312 400.831054688 582.950195312 395.1640625 588.283203125 387.497070312 c 0
 592.162109375 381.920898438 594.1015625 374.846679688 594.1015625 366.2734375 c 0
 594.1015625 363.05859375 593.829101562 359.6328125 593.283203125 355.997070312 c 1
 593.283203125 356.6640625 592.950195312 356.6640625 592.283203125 355.997070312 c 0
 588.950195312 341.997070312 583.283203125 329.6640625 575.283203125 318.997070312 c 0
 569.950195312 312.330078125 562.6171875 307.330078125 553.284179688 303.997070312 c 0
 547.284179688 301.997070312 540.951171875 300.997070312 534.284179688 300.997070312 c 2
 527.284179688 300.997070312 l 2
 509.284179688 304.330078125 482.284179688 307.330078125 446.284179688 309.997070312 c 0
 411.909179688 312.368164062 376.348632812 313.553710938 339.603515625 313.553710938 c 0
 335.014648438 313.553710938 330.408203125 313.53515625 325.783203125 313.498046875 c 0
 284.116210938 313.165039062 249.616210938 311.665039062 222.283203125 308.998046875 c 1
 204.950195312 222.331054688 186.950195312 130.998046875 168.283203125 34.998046875 c 0
 162.283203125 16.998046875 150.616210938 2.998046875 133.283203125 -7.001953125 c 0
 119.283203125 -16.3349609375 104.950195312 -21.001953125 90.283203125 -21.001953125 c 2
 87.283203125 -21.001953125 l 2
 71.9501953125 -21.001953125 60.283203125 -15.3349609375 52.283203125 -4.001953125 c 0
 48.1162109375 2.248046875 46.033203125 9.669921875 46.033203125 18.263671875 c 0
 46.033203125 23.419921875 46.783203125 28.998046875 48.283203125 34.998046875 c 0
 48.9501953125 36.998046875 49.283203125 39.3310546875 49.283203125 41.998046875 c 0
 55.283203125 62.6650390625 64.283203125 97.33203125 76.283203125 145.999023438 c 0
 97.6162109375 237.999023438 118.94921875 339.666015625 140.282226562 450.999023438 c 0
 148.94921875 494.33203125 155.116210938 523.499023438 158.783203125 538.499023438 c 0
 162.450195312 553.499023438 167.783203125 573.499023438 174.783203125 598.499023438 c 0
 181.783203125 623.499023438 186.283203125 640.666015625 188.283203125 649.999023438 c 0
 193.616210938 670.666015625 202.94921875 686.333007812 216.282226562 697 c 0
 229.615234375 708.333007812 244.282226562 714 260.282226562 714 c 2
 265.282226562 714 l 2xd0
EndSplineSet
Validated: 524289
EndChar

StartChar: G
Encoding: 71 71 46
Width: 590
GlyphClass: 2
Flags: HMW
HStem: -31 114<235.857 293.188> 619 105<530.523 531.52>
LayerCount: 2
Fore
SplineSet
69.1845703125 142 m 2
 69.1845703125 150 l 2
 69.1845703125 171 71.1845703125 191 76.1845703125 212 c 0
 87.1845703125 261 103.184570312 308 123.184570312 354 c 0
 143.184570312 400 165.184570312 442 190.184570312 479 c 0
 215.184570312 516 242.184570312 549 271.184570312 580 c 0
 302.184570312 611 333.184570312 637 364.184570312 658 c 0
 395.184570312 679 425.184570312 695 456.184570312 706 c 0
 487.184570312 718 517.184570312 724 545.184570312 724 c 0
 573.184570312 724 603.184570312 717 634.184570312 704 c 0
 665.184570312 690 684.184570312 678 692.184570312 667 c 0
 698.184570312 658 701.184570312 649 701.184570312 639 c 0
 701.184570312 634 700.184570312 629 699.184570312 624 c 0
 697.184570312 616 694.184570312 607 689.184570312 598 c 0
 683.184570312 586 673.184570312 577 659.184570312 572 c 0
 652.184570312 569 646.184570312 568 639.184570312 568 c 0
 632.184570312 568 627.184570312 569 623.184570312 571 c 0
 619.184570312 573 610.184570312 578 598.184570312 587 c 0
 586.184570312 596 574.184570312 604 561.184570312 610 c 0
 548.184570312 616 537.184570312 619 526.184570312 619 c 0
 507.184570312 619 486.184570312 613 461.184570312 601 c 0
 436.184570312 589 410.184570312 571 383.184570312 547 c 0
 356.184570312 523 331.184570312 496 307.184570312 465 c 0
 283.184570312 434 261.184570312 400 242.184570312 361 c 0
 223.184570312 322 208.184570312 284 199.184570312 245 c 0
 196.184570312 231 194.184570312 217 194.184570312 203 c 0
 194.184570312 191 195.184570312 180 198.184570312 168 c 0
 203.184570312 143 214.184570312 123 230.184570312 107 c 0
 246.184570312 91 265.184570312 83 286.184570312 83 c 0
 300.184570312 83 316.184570312 88 333.184570312 97 c 0
 350.184570312 106 368.184570312 117 384.184570312 132 c 0
 400.184570312 147 416.184570312 163 432.184570312 182 c 0
 457.184570312 211 478.184570312 240 495.184570312 270 c 1
 459.184570312 268 422.184570312 265 384.184570312 260 c 0
 346.184570312 255 319.184570312 248 303.184570312 241 c 0
 295.184570312 237 288.184570312 235 280.184570312 235 c 0
 272.184570312 235 265.184570312 237 258.184570312 242 c 0
 248.184570312 249 243.184570312 259 243.184570312 270 c 2
 243.184570312 276 l 2
 243.184570312 279 243.184570312 283 244.184570312 286 c 0
 247.184570312 300 255.184570312 313 268.184570312 324 c 0
 277.184570312 332 289.184570312 339 304.184570312 345 c 0
 327.184570312 355 371.184570312 362 436.184570312 367 c 0
 483.184570312 370 521.184570312 372 552.184570312 373 c 0
 563.184570312 373 574.184570312 373 583.184570312 372 c 0
 600.184570312 371 612.184570312 367 619.184570312 360 c 0
 625.184570312 354 628.184570312 346 628.184570312 335 c 0
 628.184570312 330 627.184570312 325 626.184570312 319 c 0
 621.184570312 299 611.184570312 285 594.184570312 276 c 1
 590.184570312 264 l 2
 589.184570312 261 587.184570312 255 585.184570312 247 c 0
 575.184570312 218 554.184570312 182 522.184570312 138 c 0
 507.184570312 117 489.184570312 97 469.184570312 76 c 0
 448.184570312 56 426.184570312 38 403.184570312 22 c 0
 380.184570312 6 356.184570312 -6 329.184570312 -16 c 0
 302.184570312 -26 276.184570312 -31 251.184570312 -31 c 0
 220.184570312 -31 193.184570312 -26 170.184570312 -17 c 0
 147.184570312 -8 129.184570312 5 115.184570312 21 c 0
 101.184570312 37 90.1845703125 55 82.1845703125 76 c 0
 74.1845703125 97 70.1845703125 119 69.1845703125 142 c 2
EndSplineSet
Validated: 524289
EndChar

StartChar: H
Encoding: 72 72 47
Width: 590
GlyphClass: 2
Flags: HMW
HStem: -21 21G<86.8675 94.534 94.534 97.534> 312 86.0049 694.005 20G<276.534 280.534 280.534 287.867>
LayerCount: 2
Fore
SplineSet
54.533203125 34 m 0
 55.2001953125 36.6669921875 56.2021484375 39.3369140625 57.53515625 42.00390625 c 0
 62.8681640625 60.00390625 73.53515625 104.336914062 89.53515625 175.00390625 c 0
 98.8681640625 215.670898438 111.03515625 265.170898438 126.03515625 323.50390625 c 2
 153.03515625 428.50390625 l 2
 156.03515625 440.170898438 158.868164062 451.837890625 161.53515625 463.504882812 c 0
 164.202148438 475.171875 168.369140625 494.671875 174.036132812 522.004882812 c 0
 179.703125 549.337890625 183.703125 567.504882812 186.036132812 576.504882812 c 0
 188.369140625 585.504882812 190.702148438 594.671875 193.03515625 604.004882812 c 0
 195.368164062 613.337890625 196.868164062 619.170898438 197.53515625 621.50390625 c 0
 198.202148438 623.836914062 198.869140625 626.50390625 199.536132812 629.50390625 c 0
 200.203125 632.50390625 201.036132812 635.50390625 202.036132812 638.50390625 c 0
 203.036132812 641.50390625 203.869140625 644.170898438 204.536132812 646.50390625 c 2
 205.536132812 650.00390625 l 2
 210.869140625 670.670898438 220.202148438 686.337890625 233.53515625 697.004882812 c 0
 246.868164062 708.337890625 261.201171875 714.004882812 276.534179688 714.004882812 c 2
 280.534179688 714.004882812 l 2
 295.201171875 714.004882812 306.868164062 709.337890625 315.53515625 700.004882812 c 0
 322.056640625 693.047851562 325.317382812 683.681640625 325.317382812 671.904296875 c 0
 325.317382812 665.624023438 324.389648438 658.657226562 322.53515625 651.004882812 c 0
 321.202148438 643.671875 317.03515625 629.004882812 310.03515625 607.004882812 c 0
 303.03515625 585.004882812 297.53515625 565.171875 293.53515625 547.504882812 c 0
 289.53515625 529.837890625 284.202148438 505.004882812 277.53515625 473.004882812 c 0
 270.868164062 441.004882812 265.53515625 416.004882812 261.53515625 398.004882812 c 1
 316.202148438 398.671875 382.869140625 404.671875 461.536132812 416.004882812 c 0
 484.869140625 419.337890625 503.202148438 421.670898438 516.53515625 423.00390625 c 0
 517.202148438 425.670898438 518.03515625 430.170898438 519.03515625 436.50390625 c 0
 520.03515625 442.836914062 523.03515625 457.669921875 528.03515625 481.002929688 c 0
 533.03515625 504.3359375 537.03515625 522.502929688 540.03515625 535.502929688 c 0
 543.03515625 548.502929688 548.202148438 569.002929688 555.53515625 597.002929688 c 0
 562.868164062 625.002929688 567.53515625 642.002929688 569.53515625 648.002929688 c 0
 574.868164062 669.3359375 584.53515625 685.668945312 598.53515625 697.001953125 c 0
 612.53515625 708.334960938 626.868164062 714.001953125 641.53515625 714.001953125 c 2
 645.53515625 714.001953125 l 2
 660.868164062 714.001953125 672.53515625 709.334960938 680.53515625 700.001953125 c 0
 686.756835938 692.890625 689.868164062 683.41015625 689.868164062 671.55859375 c 0
 689.868164062 665.631835938 689.08984375 659.11328125 687.534179688 652.001953125 c 0
 684.8671875 639.334960938 678.534179688 614.334960938 668.534179688 577.001953125 c 0
 656.534179688 530.334960938 646.3671875 488.501953125 638.034179688 451.501953125 c 0
 629.701171875 414.501953125 623.201171875 385.168945312 618.534179688 363.501953125 c 0
 613.8671875 341.834960938 609.8671875 321.66796875 606.534179688 303.000976562 c 0
 597.8671875 266.333984375 585.8671875 219.500976562 570.534179688 162.500976562 c 0
 555.201171875 105.500976562 545.201171875 65.66796875 540.534179688 43.0009765625 c 2
 538.534179688 35.0009765625 l 2
 533.201171875 17.0009765625 522.201171875 3.0009765625 505.534179688 -6.9990234375 c 0
 491.534179688 -16.33203125 477.201171875 -20.9990234375 462.534179688 -20.9990234375 c 2
 459.534179688 -20.9990234375 l 2
 444.201171875 -20.9990234375 432.534179688 -15.33203125 424.534179688 -3.9990234375 c 0
 419.7890625 2.9033203125 417.416992188 10.921875 417.416992188 20.056640625 c 0
 417.416992188 25.0390625 418.122070312 30.3544921875 419.534179688 36.0009765625 c 0
 420.201171875 38.0009765625 420.534179688 40.333984375 420.534179688 43.0009765625 c 0
 445.8671875 126.333984375 470.534179688 219.666992188 494.534179688 323 c 2
 498.534179688 341 l 1
 477.201171875 339 436.534179688 333.833007812 376.534179688 325.5 c 0
 316.534179688 317.166992188 270.534179688 312.666992188 238.534179688 312 c 1
 237.201171875 307.333007812 236.534179688 304.333007812 236.534179688 303 c 0
 226.534179688 269.666992188 216.3671875 231 206.034179688 187 c 0
 195.701171875 143 185.201171875 92.6669921875 174.534179688 36 c 0
 167.8671875 17.3330078125 156.534179688 3 140.534179688 -7 c 0
 126.534179688 -16.3330078125 112.201171875 -21 97.5341796875 -21 c 2
 94.5341796875 -21 l 2
 79.201171875 -21 67.5341796875 -15.3330078125 59.5341796875 -4 c 0
 55.0888671875 2.6669921875 52.8671875 10.51953125 52.8671875 19.556640625 c 0
 52.8671875 24.0751953125 53.421875 28.8896484375 54.533203125 34 c 0
EndSplineSet
Validated: 524289
EndChar

StartChar: I
Encoding: 73 73 48
Width: 590
GlyphClass: 2
Flags: HMW
HStem: -11.002 103<493.82 505.32 493.82 493.82> -6.00098 97.999<390.487 514.824> 600.997 108.999<283.824 467.49 291.824 467.49>
LayerCount: 2
Fore
SplineSet
177.8203125 -12 m 1x60
 136.487304688 -13.3330078125 108.16015625 -14.001953125 92.8271484375 -14.001953125 c 0
 74.16015625 -14.001953125 60.8271484375 -9.6689453125 52.8271484375 -1.001953125 c 0
 46.5673828125 5.2578125 43.4375 12.908203125 43.4375 21.9501953125 c 0
 43.4375 25.4267578125 43.900390625 29.109375 44.826171875 32.998046875 c 2
 44.826171875 35.998046875 l 2
 47.4931640625 49.3310546875 54.826171875 60.8310546875 66.826171875 70.498046875 c 0
 78.826171875 80.1650390625 94.1591796875 85.6650390625 112.826171875 86.998046875 c 1
 114.159179688 92.3310546875 114.4921875 92.3310546875 113.825195312 86.998046875 c 1
 139.158203125 88.3310546875 183.825195312 89.6640625 247.825195312 90.9970703125 c 1
 268.4921875 160.330078125 287.4921875 232.663085938 304.825195312 307.99609375 c 0
 314.158203125 347.329101562 322.825195312 386.99609375 330.825195312 426.99609375 c 0
 336.158203125 455.663085938 342.491210938 486.663085938 349.82421875 519.99609375 c 0
 351.157226562 527.329101562 352.657226562 534.329101562 354.32421875 540.99609375 c 0
 355.991210938 547.663085938 358.82421875 557.830078125 362.82421875 571.497070312 c 0
 366.82421875 585.1640625 369.82421875 594.997070312 371.82421875 600.997070312 c 1
 291.82421875 600.997070312 l 2
 275.82421875 600.997070312 259.157226562 600.6640625 241.82421875 599.997070312 c 2
 239.82421875 599.997070312 l 2
 222.491210938 599.997070312 209.82421875 604.6640625 201.82421875 613.997070312 c 0
 195.82421875 620.997070312 192.82421875 629.68359375 192.82421875 640.05859375 c 0
 192.82421875 643.516601562 193.157226562 647.163085938 193.82421875 650.99609375 c 0
 193.82421875 651.663085938 194.157226562 652.663085938 194.82421875 653.99609375 c 0
 198.157226562 667.99609375 205.82421875 680.49609375 217.82421875 691.49609375 c 0
 229.82421875 702.49609375 245.491210938 707.99609375 264.82421875 707.99609375 c 0
 318.82421875 709.329101562 370.157226562 709.99609375 418.82421875 709.99609375 c 0
 516.157226562 709.99609375 595.157226562 706.99609375 655.82421875 700.99609375 c 0
 669.82421875 699.663085938 680.491210938 695.330078125 687.82421875 687.997070312 c 0
 694.701171875 681.120117188 698.139648438 672.071289062 698.139648438 660.850585938 c 0
 698.139648438 656.84375 697.701171875 652.559570312 696.82421875 647.998046875 c 0
 693.491210938 633.331054688 686.158203125 619.6640625 674.825195312 606.997070312 c 0
 668.825195312 599.6640625 661.158203125 593.997070312 651.825195312 589.997070312 c 0
 645.825195312 587.997070312 640.158203125 586.6640625 634.825195312 585.997070312 c 0
 631.4921875 585.997070312 628.159179688 586.330078125 624.826171875 586.997070312 c 0
 608.826171875 589.6640625 566.493164062 593.331054688 497.826171875 597.998046875 c 1
 495.826171875 590.665039062 492.493164062 577.33203125 487.826171875 557.999023438 c 0
 483.159179688 539.33203125 479.4921875 524.999023438 476.825195312 514.999023438 c 0
 474.158203125 504.999023438 471.491210938 494.666015625 468.82421875 483.999023438 c 0
 459.491210938 443.999023438 452.32421875 411.33203125 447.32421875 385.999023438 c 0
 442.32421875 360.666015625 436.657226562 334.666015625 430.32421875 307.999023438 c 0
 423.991210938 281.33203125 414.32421875 243.665039062 401.32421875 194.998046875 c 0
 388.32421875 146.331054688 379.491210938 112.331054688 374.82421875 92.998046875 c 1
 401.491210938 92.998046875 422.82421875 92.6650390625 438.82421875 91.998046875 c 2
 514.82421875 91.998046875 l 1
 516.157226562 97.3310546875 516.490234375 97.3310546875 515.823242188 91.998046875 c 1xa0
 517.15625 97.3310546875 517.489257812 97.3310546875 516.822265625 91.998046875 c 1
 518.155273438 97.3310546875 518.48828125 97.3310546875 517.821289062 91.998046875 c 1x60
 519.154296875 97.3310546875 519.487304688 97.3310546875 518.8203125 91.998046875 c 1
 536.8203125 91.998046875 548.653320312 87.498046875 554.3203125 78.498046875 c 0
 558.173828125 72.3779296875 560.100585938 65.1025390625 560.100585938 56.6708984375 c 0
 560.100585938 52.7021484375 559.673828125 48.478515625 558.8203125 43.998046875 c 0
 557.487304688 37.3310546875 555.487304688 30.998046875 552.8203125 24.998046875 c 0
 550.153320312 18.998046875 546.486328125 12.998046875 541.819335938 6.998046875 c 0
 535.819335938 -0.3349609375 528.486328125 -5.3349609375 519.819335938 -8.001953125 c 0
 514.486328125 -10.001953125 509.653320312 -11.001953125 505.3203125 -11.001953125 c 2
 493.8203125 -11.001953125 l 2xa0
 477.8203125 -8.3349609375 450.153320312 -6.66796875 410.8203125 -6.0009765625 c 0
 370.153320312 -6.0009765625 332.8203125 -6.66796875 298.8203125 -8.0009765625 c 1
 282.708007812 -5.22265625 266.306640625 -3.833984375 249.616210938 -3.833984375 c 0
 226.250976562 -3.833984375 202.319335938 -6.5556640625 177.8203125 -12 c 1x60
EndSplineSet
Validated: 524289
EndChar

StartChar: J
Encoding: 74 74 49
Width: 590
GlyphClass: 2
Flags: HMW
HStem: -34.998 125.999<273.813 279.482> 600.001 109.999<397.147 427.148>
LayerCount: 2
Fore
SplineSet
455.1484375 217 m 0
 417.815429688 101 378.48046875 26.3349609375 337.147460938 -6.998046875 c 0
 315.147460938 -25.6650390625 291.814453125 -34.998046875 267.147460938 -34.998046875 c 0
 242.48046875 -34.998046875 219.48046875 -30.6650390625 198.147460938 -21.998046875 c 0
 176.814453125 -13.3310546875 159.147460938 -2.3310546875 145.147460938 11.001953125 c 0
 132.48046875 25.001953125 121.313476562 40.1689453125 111.646484375 56.501953125 c 0
 101.979492188 72.8349609375 94.4794921875 89.001953125 89.146484375 105.001953125 c 0
 83.8134765625 121.001953125 80.146484375 135.501953125 78.146484375 148.501953125 c 0
 76.646484375 158.251953125 75.896484375 166.782226562 75.896484375 174.094726562 c 0
 75.896484375 176.532226562 75.9794921875 178.834960938 76.146484375 181.001953125 c 0
 76.146484375 188.334960938 77.646484375 196.501953125 80.646484375 205.501953125 c 0
 83.646484375 214.501953125 87.146484375 223.001953125 91.146484375 231.001953125 c 0
 95.8134765625 241.001953125 102.646484375 249.501953125 111.646484375 256.501953125 c 0
 120.646484375 263.501953125 131.146484375 268.334960938 143.146484375 271.001953125 c 0
 147.146484375 271.668945312 151.146484375 271.668945312 155.146484375 271.001953125 c 0
 167.813476562 271.001953125 177.146484375 267.001953125 183.146484375 259.001953125 c 0
 188.479492188 251.890625 191.146484375 243.446289062 191.146484375 233.66796875 c 0
 191.146484375 228.779296875 190.479492188 223.556640625 189.146484375 218.000976562 c 0
 187.864257812 212.103515625 187.223632812 205.6640625 187.223632812 198.682617188 c 0
 187.223632812 187.510742188 188.864257812 174.950195312 192.146484375 161.000976562 c 0
 194.813476562 148.333984375 199.313476562 136.833984375 205.646484375 126.500976562 c 0
 211.979492188 116.16796875 221.8125 107.66796875 235.145507812 101.000976562 c 0
 248.478515625 94.333984375 264.478515625 91.0009765625 283.145507812 91.0009765625 c 0
 283.8125 91.0009765625 284.8125 91.333984375 286.145507812 92.0009765625 c 0
 290.8125 95.333984375 296.479492188 103.000976562 303.146484375 115.000976562 c 0
 318.479492188 143.000976562 333.479492188 186.333984375 348.146484375 245.000976562 c 2
 348.646484375 247.000976562 l 2
 348.979492188 248.333984375 350.479492188 255.166992188 353.146484375 267.5 c 0
 355.813476562 279.833007812 362.813476562 313 374.146484375 367 c 0
 390.813476562 447.666992188 408.48046875 525.333984375 427.147460938 600.000976562 c 1
 392.48046875 601.000976562 359.897460938 601.500976562 329.397460938 601.500976562 c 0
 298.897460938 601.500976562 270.48046875 601.000976562 244.147460938 600.000976562 c 2
 242.147460938 600.000976562 l 2
 224.814453125 600.000976562 212.147460938 604.66796875 204.147460938 614.000976562 c 0
 198.5 620.588867188 195.676757812 628.671875 195.676757812 638.25 c 0
 195.676757812 642.240234375 196.166992188 646.490234375 197.147460938 651 c 2
 197.147460938 654 l 2
 200.48046875 668 208.313476562 680.5 220.646484375 691.5 c 0
 232.979492188 702.5 248.479492188 708 267.146484375 708 c 0
 321.813476562 709.333007812 373.146484375 710 421.146484375 710 c 0
 518.479492188 710 597.479492188 707 658.146484375 701 c 0
 672.146484375 699.666992188 682.479492188 695.333984375 689.146484375 688.000976562 c 0
 696.405273438 680.7421875 700.034179688 671.063476562 700.034179688 658.965820312 c 0
 700.034179688 655.508789062 699.73828125 651.854492188 699.145507812 648.001953125 c 0
 695.8125 633.334960938 688.479492188 619.66796875 677.146484375 607.000976562 c 0
 671.146484375 599.66796875 663.479492188 594.000976562 654.146484375 590.000976562 c 0
 648.146484375 588.000976562 642.479492188 586.66796875 637.146484375 586.000976562 c 0
 633.813476562 586.000976562 630.146484375 586.333984375 626.146484375 587.000976562 c 0
 607.479492188 590.333984375 578.146484375 593.333984375 538.146484375 596.000976562 c 1
 534.813476562 579.333984375 523.48046875 521.000976562 504.147460938 421.000976562 c 0
 498.814453125 393.66796875 493.981445312 370.66796875 489.6484375 352.000976562 c 0
 485.315429688 333.333984375 482.815429688 321.666992188 482.1484375 317 c 0
 472.1484375 275 463.1484375 241.666992188 455.1484375 217 c 0
EndSplineSet
Validated: 524289
EndChar

StartChar: K
Encoding: 75 75 50
Width: 590
GlyphClass: 2
Flags: HMW
HStem: -21 21G<84.1854 91.8519 91.8519 94.8509> 693.998 21G
LayerCount: 2
Fore
SplineSet
94.8505859375 -21 m 2
 91.8515625 -21 l 2
 76.5185546875 -21 64.5185546875 -16.6669921875 55.8515625 -8 c 0
 50.8095703125 -2.5 48.2890625 4.2607421875 48.2890625 12.2822265625 c 0
 48.2890625 15.927734375 48.8095703125 19.833984375 49.8515625 24 c 0
 50.5185546875 26.6669921875 51.5185546875 29.333984375 52.8515625 32.0009765625 c 0
 59.5185546875 53.333984375 68.185546875 88.6669921875 78.8525390625 138 c 0
 100.852539062 233.333007812 123.185546875 338.666015625 145.852539062 453.999023438 c 0
 154.51953125 495.999023438 160.51953125 524.999023438 163.852539062 540.999023438 c 0
 167.185546875 556.33203125 172.852539062 577.999023438 180.852539062 605.999023438 c 0
 188.852539062 634.666015625 193.852539062 652.666015625 195.852539062 659.999023438 c 0
 200.51953125 677.33203125 209.186523438 690.999023438 221.853515625 700.999023438 c 0
 234.296875 709.709960938 247.612304688 714.064453125 261.797851562 714.064453125 c 0
 262.811523438 714.064453125 263.830078125 714.04296875 264.852539062 713.998046875 c 2
 267.852539062 713.998046875 l 2
 282.51953125 713.998046875 294.51953125 710.331054688 303.852539062 702.998046875 c 0
 310.995117188 696.807617188 314.56640625 688.236328125 314.56640625 677.284179688 c 0
 314.56640625 672.90234375 313.995117188 668.140625 312.852539062 662.998046875 c 0
 309.51953125 646.998046875 301.51953125 615.331054688 288.852539062 567.998046875 c 0
 276.185546875 521.331054688 266.518554688 482.998046875 259.8515625 452.998046875 c 1
 287.184570312 472.998046875 326.517578125 501.665039062 377.850585938 538.998046875 c 0
 489.850585938 627.665039062 556.18359375 679.33203125 576.850585938 693.999023438 c 0
 589.517578125 702.666015625 600.850585938 708.666015625 610.850585938 711.999023438 c 0
 617.517578125 713.999023438 623.184570312 714.999023438 627.8515625 714.999023438 c 0
 632.518554688 714.999023438 636.185546875 714.666015625 638.852539062 713.999023438 c 0
 646.185546875 711.999023438 652.518554688 708.33203125 657.8515625 702.999023438 c 0
 665.184570312 694.999023438 667.8515625 685.999023438 665.8515625 675.999023438 c 0
 661.8515625 657.999023438 650.518554688 638.666015625 631.8515625 617.999023438 c 0
 619.184570312 605.33203125 577.184570312 568.999023438 505.8515625 508.999023438 c 0
 433.184570312 452.999023438 369.517578125 404.33203125 314.850585938 362.999023438 c 1
 332.850585938 338.999023438 362.18359375 303.33203125 402.850585938 255.999023438 c 0
 444.18359375 211.33203125 479.850585938 170.999023438 509.850585938 134.999023438 c 0
 525.18359375 112.999023438 536.18359375 95.666015625 542.850585938 82.9990234375 c 0
 550.18359375 67.666015625 553.850585938 56.9990234375 553.850585938 50.9990234375 c 0
 553.850585938 42.33203125 553.18359375 33.9990234375 551.850585938 25.9990234375 c 0
 550.517578125 20.666015625 548.184570312 15.3330078125 544.8515625 10 c 0
 538.184570312 0.6669921875 529.184570312 -6.666015625 517.8515625 -11.9990234375 c 0
 503.306640625 -18.0595703125 493.719726562 -21.08984375 489.091796875 -21.08984375 c 0
 488.62890625 -21.08984375 488.215820312 -21.0595703125 487.8515625 -20.9990234375 c 2
 486.8515625 -20.9990234375 l 2
 470.184570312 -20.9990234375 456.517578125 -12.666015625 445.850585938 4.0009765625 c 0
 441.850585938 12.0009765625 423.517578125 35.0009765625 390.850585938 73.0009765625 c 0
 358.18359375 110.333984375 323.18359375 151.333984375 285.850585938 196.000976562 c 0
 257.850585938 225.333984375 235.517578125 250.333984375 218.850585938 271.000976562 c 1
 170.850585938 25.0009765625 l 2
 165.517578125 10.333984375 154.517578125 -1.3330078125 137.850585938 -10 c 0
 123.850585938 -17.3330078125 109.517578125 -21 94.8505859375 -21 c 2
EndSplineSet
Validated: 524289
EndChar

StartChar: L
Encoding: 76 76 51
Width: 590
GlyphClass: 2
Flags: HMW
HStem: -9 105 686 20G<286.855 289.855 289.855 297.522>
LayerCount: 2
Fore
SplineSet
48.8564453125 26 m 0
 48.8564453125 31 49.8564453125 36 50.8564453125 41 c 0
 51.8564453125 43 51.8564453125 46 52.8564453125 50 c 0
 53.8564453125 54 65.8564453125 90 88.8564453125 159 c 0
 111.856445312 228 132.856445312 294 149.856445312 357 c 0
 154.856445312 376 160.856445312 400 167.856445312 428 c 0
 173.822265625 452.856445312 189.673828125 523.188476562 214.427734375 638.994140625 c 0
 214.541015625 639.791015625 214.68359375 640.791015625 214.856445312 642 c 0
 219.856445312 663 228.856445312 679 242.856445312 690 c 0
 256.856445312 701 271.856445312 706 286.856445312 706 c 2
 289.856445312 706 l 2
 304.856445312 706 316.856445312 701 325.856445312 692 c 0
 332.856445312 685 336.856445312 676 336.856445312 664 c 0
 336.856445312 658 335.856445312 652 333.856445312 645 c 0
 329.856445312 626 323.856445312 601 314.856445312 569 c 0
 303.856445312 526 292.856445312 485 282.856445312 447 c 0
 271.856445312 406 259.856445312 364 248.856445312 321 c 0
 241.856445312 294 229.856445312 256 214.856445312 208 c 0
 199.856445312 160 189.856445312 123 182.856445312 96 c 1
 185.856445312 104 185.856445312 104 184.856445312 96 c 1
 237.856445312 96 300.856445312 99 373.856445312 106 c 0
 444.856445312 113 492.856445312 119 516.856445312 125 c 0
 520.856445312 126 524.856445312 127 529.856445312 127 c 0
 534.856445312 127 538.856445312 126 542.856445312 125 c 0
 549.856445312 122 555.856445312 116 559.856445312 108 c 0
 562.856445312 101 563.856445312 94 563.856445312 87 c 0
 564.856445312 79 563.856445312 72 562.856445312 66 c 0
 559.856445312 51 552.856445312 40 542.856445312 30 c 0
 532.856445312 20 519.856445312 13 500.856445312 10 c 0
 455.856445312 1 385.856445312 -5 291.856445312 -9 c 0
 197.856445312 -13 130.856445312 -15 89.8564453125 -15 c 0
 74.8564453125 -15 62.8564453125 -9 55.8564453125 2 c 0
 51.8564453125 9 48.8564453125 17 48.8564453125 26 c 0
EndSplineSet
Validated: 524289
EndChar

StartChar: M
Encoding: 77 77 52
Width: 590
GlyphClass: 2
Flags: HMW
HStem: -10.002 21G<63.0692 66.4027 66.4027 68.4027>
LayerCount: 2
Fore
SplineSet
139.407226562 63 m 2
 137.40234375 52.998046875 l 2
 133.40234375 34.998046875 125.069335938 19.998046875 112.40234375 7.998046875 c 0
 98.40234375 -4.001953125 83.7353515625 -10.001953125 68.40234375 -10.001953125 c 2
 66.40234375 -10.001953125 l 2
 59.7353515625 -10.001953125 53.7353515625 -8.6689453125 48.40234375 -6.001953125 c 0
 41.0693359375 -2.001953125 36.40234375 5.3310546875 34.40234375 15.998046875 c 0
 34.1064453125 18.6640625 33.9580078125 21.52734375 33.9580078125 24.5888671875 c 0
 33.9580078125 35.3046875 35.7734375 48.44140625 39.4033203125 63.998046875 c 0
 41.4033203125 72.6650390625 45.4033203125 86.998046875 51.4033203125 106.998046875 c 0
 57.4033203125 126.331054688 65.736328125 151.998046875 76.4033203125 183.998046875 c 0
 87.736328125 217.998046875 100.403320312 258.331054688 114.403320312 304.998046875 c 0
 128.403320312 351.665039062 140.0703125 388.998046875 149.403320312 416.998046875 c 0
 179.403320312 512.998046875 201.736328125 579.665039062 216.403320312 616.998046875 c 0
 225.736328125 640.331054688 234.069335938 656.6640625 241.40234375 665.997070312 c 0
 252.069335938 679.997070312 265.736328125 689.997070312 282.403320312 695.997070312 c 0
 296.403320312 701.330078125 310.0703125 703.997070312 323.403320312 703.997070312 c 2
 329.403320312 703.997070312 l 2
 344.736328125 703.997070312 356.736328125 701.6640625 365.403320312 696.997070312 c 0
 378.0703125 690.997070312 385.0703125 680.997070312 386.403320312 666.997070312 c 0
 386.645507812 661.6640625 386.766601562 655.703125 386.766601562 649.114257812 c 0
 386.766601562 619.461914062 384.3125 577.08984375 379.403320312 521.998046875 c 0
 373.403320312 454.665039062 365.403320312 377.998046875 355.403320312 291.998046875 c 0
 353.403320312 272.665039062 351.403320312 254.665039062 349.403320312 237.998046875 c 1
 364.736328125 285.998046875 379.403320312 331.331054688 393.403320312 373.998046875 c 0
 412.0703125 429.331054688 433.0703125 484.331054688 456.403320312 538.998046875 c 0
 479.736328125 594.331054688 498.736328125 636.998046875 513.403320312 666.998046875 c 0
 518.736328125 676.998046875 527.736328125 685.331054688 540.403320312 691.998046875 c 0
 551.736328125 697.998046875 563.069335938 701.665039062 574.40234375 702.998046875 c 0
 581.735351562 703.665039062 587.735351562 704.165039062 592.40234375 704.498046875 c 0
 597.069335938 704.831054688 600.736328125 704.6640625 603.403320312 703.997070312 c 2
 607.403320312 703.997070312 l 1
 621.903320312 703.997070312 l 2
 625.5703125 703.997070312 630.403320312 702.997070312 636.403320312 700.997070312 c 0
 643.0703125 699.6640625 648.403320312 697.6640625 652.403320312 694.997070312 c 0
 656.403320312 692.330078125 659.736328125 688.330078125 662.403320312 682.997070312 c 0
 665.0703125 676.997070312 666.403320312 669.997070312 666.403320312 661.997070312 c 0
 664.403320312 641.997070312 649.0703125 544.997070312 620.403320312 370.997070312 c 0
 592.403320312 197.6640625 578.403320312 99.6640625 578.403320312 76.9970703125 c 0
 578.403320312 63.6640625 576.736328125 51.3310546875 573.403320312 39.998046875 c 0
 571.403320312 30.6650390625 567.736328125 22.6650390625 562.403320312 15.998046875 c 0
 555.0703125 6.6650390625 545.0703125 -0.001953125 532.403320312 -4.001953125 c 0
 525.0703125 -6.001953125 517.737304688 -7.1689453125 510.404296875 -7.501953125 c 0
 503.071289062 -7.8349609375 495.73828125 -6.001953125 488.405273438 -2.001953125 c 0
 475.73828125 4.6650390625 468.405273438 18.33203125 466.405273438 38.9990234375 c 0
 466.20703125 41.3798828125 466.107421875 44.16796875 466.107421875 47.36328125 c 0
 466.107421875 97.857421875 490.874023438 250.069335938 540.40625 503.999023438 c 1
 520.40625 452.666015625 503.40625 403.999023438 489.40625 357.999023438 c 0
 465.40625 281.999023438 440.739257812 209.999023438 415.40625 141.999023438 c 0
 389.40625 73.9990234375 371.073242188 32.33203125 360.40625 16.9990234375 c 0
 347.073242188 0.9990234375 323.073242188 -7.0009765625 288.40625 -7.0009765625 c 2
 283.40625 -7.0009765625 l 2
 270.073242188 -7.0009765625 259.073242188 -5.0009765625 250.40625 -1.0009765625 c 0
 239.739257812 3.666015625 233.739257812 10.3330078125 232.40625 19 c 0
 232.354492188 21.4619140625 232.329101562 24.16796875 232.329101562 27.115234375 c 0
 232.329101562 62.4775390625 236.021484375 132.772460938 243.40625 238 c 0
 248.739257812 316 254.40625 391.666992188 260.40625 465 c 1
 256.40625 451.666992188 249.073242188 427.666992188 238.40625 393 c 2
 223.40625 340 l 1
 196.40625 252 l 2
 188.40625 224.666992188 179.739257812 196.333984375 170.40625 167.000976562 c 0
 163.073242188 144.333984375 155.740234375 120.666992188 148.407226562 96 c 0
 143.740234375 81.3330078125 140.740234375 70.3330078125 139.407226562 63 c 2
EndSplineSet
Validated: 524289
EndChar

StartChar: N
Encoding: 78 78 53
Width: 590
GlyphClass: 2
Flags: HMW
HStem: -11.999 21G<76.3919 93.0588> 685.001 20G<268.06 277.394 640.727 656.06>
VStem: 50.7244 100.002
LayerCount: 2
Fore
SplineSet
257.727539062 486 m 1
 251.727539062 456 246.39453125 431.000976562 241.727539062 411.000976562 c 0
 237.060546875 389.66796875 230.060546875 359.66796875 220.727539062 321.000976562 c 0
 211.39453125 283.000976562 199.727539062 237.000976562 185.727539062 183.000976562 c 0
 171.727539062 127.66796875 162.727539062 93.0009765625 158.727539062 79.0009765625 c 0
 155.39453125 65.0009765625 153.39453125 56.0009765625 152.727539062 52.0009765625 c 0
 152.060546875 48.66796875 151.393554688 45.66796875 150.7265625 43.0009765625 c 0
 146.7265625 25.0009765625 138.7265625 11.333984375 126.7265625 2.0009765625 c 0
 114.059570312 -7.33203125 100.392578125 -11.9990234375 85.7255859375 -11.9990234375 c 0
 67.05859375 -11.9990234375 55.3916015625 -5.9990234375 50.724609375 6.0009765625 c 0
 49.7548828125 10.365234375 49.26953125 15.3017578125 49.26953125 20.8115234375 c 0
 49.26953125 30.453125 50.7548828125 41.849609375 53.724609375 55.0009765625 c 0
 56.3916015625 68.333984375 69.05859375 120.000976562 91.7255859375 210.000976562 c 0
 126.392578125 348.66796875 150.059570312 444.000976562 162.7265625 496.000976562 c 0
 174.7265625 548.000976562 184.7265625 595.333984375 192.7265625 638.000976562 c 0
 193.393554688 640.66796875 194.060546875 643.66796875 194.727539062 647.000976562 c 0
 196.727539062 657.000976562 200.727539062 665.66796875 206.727539062 673.000976562 c 0
 213.39453125 682.333984375 221.727539062 689.333984375 231.727539062 694.000976562 c 0
 245.727539062 701.333984375 260.39453125 705.000976562 275.727539062 705.000976562 c 0
 279.060546875 705.000976562 282.393554688 704.66796875 285.7265625 704.000976562 c 0
 299.7265625 704.000976562 311.059570312 701.66796875 319.7265625 697.000976562 c 0
 332.393554688 691.000976562 339.393554688 681.000976562 340.7265625 667.000976562 c 0
 344.7265625 624.333984375 365.393554688 545.333984375 402.7265625 430.000976562 c 0
 434.059570312 332.66796875 462.059570312 251.66796875 486.7265625 187.000976562 c 1
 501.393554688 244.333984375 518.7265625 319.333984375 538.7265625 412.000976562 c 0
 564.7265625 530.000976562 580.059570312 608.000976562 584.7265625 646.000976562 c 0
 585.393554688 650.000976562 586.060546875 653.66796875 586.727539062 657.000976562 c 0
 589.39453125 669.000976562 595.727539062 679.333984375 605.727539062 688.000976562 c 0
 618.39453125 699.333984375 632.727539062 705.000976562 648.727539062 705.000976562 c 0
 663.39453125 705.000976562 674.727539062 702.333984375 682.727539062 697.000976562 c 0
 686.727539062 694.333984375 689.727539062 690.333984375 691.727539062 685.000976562 c 0
 692.39453125 679.66796875 692.727539062 675.000976562 692.727539062 671.000976562 c 0
 692.727539062 666.333984375 692.060546875 659.333984375 690.727539062 650.000976562 c 0
 690.060546875 638.66796875 678.727539062 585.334960938 656.727539062 490.001953125 c 0
 653.39453125 476.001953125 650.39453125 462.001953125 647.727539062 448.001953125 c 0
 628.39453125 364.668945312 607.39453125 278.668945312 584.727539062 190.001953125 c 0
 570.060546875 132.668945312 558.060546875 90.001953125 548.727539062 62.001953125 c 0
 540.060546875 35.3349609375 533.060546875 18.3349609375 527.727539062 11.001953125 c 0
 515.060546875 -4.998046875 492.727539062 -13.3310546875 460.727539062 -13.998046875 c 2
 456.727539062 -13.998046875 l 2
 444.727539062 -13.998046875 434.727539062 -11.6650390625 426.727539062 -6.998046875 c 0
 416.727539062 -1.6650390625 410.727539062 5.001953125 408.727539062 13.001953125 c 0
 405.39453125 26.3349609375 396.061523438 55.66796875 380.728515625 101.000976562 c 0
 364.728515625 148.333984375 348.061523438 193.666992188 330.728515625 237 c 0
 314.061523438 286.333007812 297.39453125 341 280.727539062 401 c 0
 271.39453125 431.666992188 263.727539062 460 257.727539062 486 c 1
EndSplineSet
Validated: 524289
EndChar

StartChar: O
Encoding: 79 79 54
Width: 590
GlyphClass: 2
Flags: HMW
HStem: -24 108<252.169 294.838> 612.001 105.999<455.171 462.504>
VStem: 98.1696 111.999<161.501 244.667>
LayerCount: 2
Fore
SplineSet
649.170898438 480 m 0
 648.50390625 477.333007812 648.501953125 477.333984375 649.168945312 480.000976562 c 1
 637.8359375 406.000976562 621.502929688 333.333984375 600.169921875 262.000976562 c 0
 588.169921875 222.66796875 577.169921875 192.334960938 567.169921875 171.001953125 c 0
 551.836914062 139.668945312 535.336914062 112.668945312 517.669921875 90.001953125 c 0
 500.002929688 67.3349609375 481.8359375 48.66796875 463.168945312 34.0009765625 c 0
 444.501953125 19.333984375 423.501953125 7.6669921875 400.168945312 -1 c 0
 376.168945312 -9.6669921875 352.668945312 -15.6669921875 329.668945312 -19 c 0
 306.668945312 -22.3330078125 280.8359375 -24 252.168945312 -24 c 0
 208.168945312 -23.3330078125 172.168945312 -10.666015625 144.168945312 14.0009765625 c 0
 117.501953125 39.333984375 100.501953125 72.6669921875 93.1689453125 114 c 0
 90.181640625 130.295898438 88.6875 147.14453125 88.6875 164.545898438 c 0
 88.6875 189.860351562 91.8486328125 216.344726562 98.169921875 244 c 0
 98.169921875 245.333007812 98.5029296875 247.333007812 99.169921875 250 c 0
 100.502929688 257.333007812 101.8359375 262.666015625 103.168945312 265.999023438 c 0
 109.8359375 294.666015625 115.502929688 317.833007812 120.169921875 335.5 c 0
 124.836914062 353.166992188 131.50390625 376.666992188 140.170898438 406 c 0
 157.50390625 463.333007812 180.50390625 516.666015625 209.170898438 565.999023438 c 0
 236.50390625 610.666015625 274.170898438 647.333007812 322.170898438 676 c 0
 373.50390625 704 427.170898438 718 483.170898438 718 c 0
 511.837890625 718 538.170898438 712.666992188 562.170898438 702 c 0
 585.50390625 691.333007812 604.50390625 676 619.170898438 656 c 0
 633.837890625 636 643.837890625 611 649.170898438 581 c 0
 651.836914062 566 653.170898438 550.083007812 653.170898438 533.25 c 0
 653.170898438 516.416015625 651.836914062 498.666015625 649.170898438 480 c 0
241.668945312 94.0009765625 m 0
 251.3359375 87.333984375 263.170898438 84 277.170898438 84 c 0
 312.50390625 84 345.836914062 92.3330078125 377.169921875 109 c 0
 393.169921875 117 408.502929688 128.166992188 423.169921875 142.5 c 0
 437.836914062 156.833007812 450.50390625 173.333007812 461.170898438 192 c 0
 465.170898438 199.333007812 472.00390625 217.833007812 481.670898438 247.5 c 0
 491.337890625 277.166992188 501.504882812 312.666992188 512.171875 354 c 0
 515.504882812 366 518.504882812 378 521.171875 390 c 0
 527.838867188 418.666992188 533.171875 447.333984375 537.171875 476.000976562 c 0
 538.46484375 485.697265625 539.111328125 494.962890625 539.111328125 503.797851562 c 0
 539.111328125 531.407226562 532.797851562 554.80859375 520.170898438 574.000976562 c 0
 503.50390625 599.333984375 478.836914062 612.000976562 446.169921875 612.000976562 c 0
 413.502929688 612.000976562 383.8359375 600.66796875 357.168945312 578.000976562 c 0
 329.168945312 554.000976562 304.501953125 520.66796875 283.168945312 478.000976562 c 0
 259.8359375 430.000976562 241.168945312 374.66796875 227.168945312 312.000976562 c 0
 217.8359375 272.66796875 212.168945312 239.000976562 210.168945312 211.000976562 c 0
 209.502929688 202.66796875 209.168945312 194.375976562 209.168945312 186.125976562 c 0
 209.168945312 177.875976562 209.502929688 169.66796875 210.168945312 161.500976562 c 0
 211.501953125 145.16796875 214.668945312 131.500976562 219.668945312 120.500976562 c 0
 224.668945312 109.500976562 232.001953125 100.66796875 241.668945312 94.0009765625 c 0
EndSplineSet
Validated: 524289
EndChar

StartChar: P
Encoding: 80 80 55
Width: 590
GlyphClass: 2
Flags: HMW
HStem: -18.998 21G<106.756 122.757> 218 106.003<324.423 333.757 324.423 349.761> 605.003 105.999<416.424 475.425>
VStem: 70.4227 120 199.423 0.999023
LayerCount: 2
Fore
SplineSet
242.423828125 334.002929688 m 1
 263.201171875 327.28125 287.8984375 323.919921875 316.517578125 323.919921875 c 0
 319.120117188 323.919921875 321.755859375 323.947265625 324.422851562 324.002929688 c 0
 343.08984375 324.002929688 360.58984375 325.3359375 376.922851562 328.002929688 c 0
 393.255859375 330.669921875 407.422851562 334.002929688 419.422851562 338.002929688 c 0
 431.422851562 342.002929688 442.422851562 347.3359375 452.422851562 354.002929688 c 0
 462.422851562 360.669921875 471.08984375 367.336914062 478.422851562 374.00390625 c 0
 485.755859375 380.670898438 492.422851562 388.50390625 498.422851562 397.50390625 c 0
 504.422851562 406.50390625 509.422851562 414.670898438 513.422851562 422.00390625 c 0
 517.422851562 429.336914062 521.08984375 438.169921875 524.422851562 448.502929688 c 0
 527.755859375 458.8359375 530.422851562 467.168945312 532.422851562 473.501953125 c 0
 534.422851562 479.834960938 536.422851562 488.001953125 538.422851562 498.001953125 c 0
 540.604492188 506.729492188 541.6953125 514.959960938 541.6953125 522.6953125 c 0
 541.6953125 529.141601562 540.9375 535.244140625 539.422851562 541.001953125 c 0
 536.08984375 553.668945312 530.756835938 563.8359375 523.423828125 571.502929688 c 0
 516.090820312 579.169921875 506.590820312 585.669921875 494.923828125 591.002929688 c 0
 483.256835938 596.3359375 471.756835938 600.002929688 460.423828125 602.002929688 c 0
 449.090820312 604.002929688 438.090820312 605.002929688 427.423828125 605.002929688 c 0
 405.423828125 605.002929688 365.756835938 603.002929688 308.423828125 599.002929688 c 1
 287.756835938 519.669921875 274.08984375 466.002929688 267.422851562 438.002929688 c 0
 258.08984375 400.669921875 249.756835938 366.002929688 242.423828125 334.002929688 c 1
201.427734375 109 m 0
 194.760742188 61 191.08984375 35.3359375 190.422851562 32.0029296875 c 0
 186.422851562 15.3359375 175.755859375 2.6689453125 158.422851562 -5.998046875 c 0
 144.422851562 -14.6650390625 130.08984375 -18.998046875 115.422851562 -18.998046875 c 0
 98.08984375 -18.998046875 85.08984375 -13.6650390625 76.4228515625 -2.998046875 c 0
 71.380859375 3.4189453125 68.8603515625 11.2529296875 68.8603515625 20.505859375 c 0
 68.8603515625 24.7109375 69.380859375 29.2099609375 70.4228515625 34.0009765625 c 0
 71.08984375 36.66796875 72.08984375 41.0009765625 73.4228515625 47.0009765625 c 0
 76.08984375 56.333984375 80.08984375 72.333984375 85.4228515625 95.0009765625 c 0
 94.08984375 132.333984375 105.422851562 183.666992188 119.422851562 249 c 0
 142.755859375 359.666992188 156.422851562 425 160.422851562 445 c 0
 171.728515625 497.540039062 185.024414062 554.059570312 200.310546875 614.560546875 c 1
 199.0703125 609.7109375 198.774414062 610.524414062 199.422851562 617.001953125 c 1
 198.08984375 611.668945312 197.756835938 612.001953125 198.423828125 618.001953125 c 0
 195.090820312 626.668945312 194.423828125 635.3359375 196.423828125 644.002929688 c 0
 197.090820312 646.669921875 197.756835938 649.002929688 198.423828125 651.002929688 c 0
 202.423828125 661.002929688 208.7578125 670.002929688 217.424804688 678.002929688 c 0
 226.091796875 686.002929688 235.091796875 691.002929688 244.424804688 693.002929688 c 0
 268.424804688 698.3359375 303.424804688 703.002929688 349.424804688 707.002929688 c 0
 389.9765625 709.780273438 420.344726562 711.168945312 440.530273438 711.168945312 c 0
 444.569335938 711.168945312 448.201171875 711.11328125 451.424804688 711.001953125 c 0
 499.424804688 711.001953125 540.7578125 703.001953125 575.424804688 687.001953125 c 0
 606.091796875 670.334960938 627.924804688 645.16796875 640.924804688 611.500976562 c 0
 648.272460938 592.471679688 651.946289062 571.47265625 651.946289062 548.50390625 c 0
 651.946289062 530.834960938 649.772460938 512.000976562 645.424804688 492.000976562 c 0
 636.7578125 454.000976562 622.7578125 418.333984375 603.424804688 385.000976562 c 0
 584.091796875 351.66796875 561.258789062 322.66796875 534.92578125 298.000976562 c 0
 508.592773438 273.333984375 477.759765625 253.666992188 442.426757812 239 c 0
 406.426757812 225 369.09375 218 330.426757812 218 c 0
 285.09375 218 248.426757812 220.666992188 220.426757812 226 c 1
 213.09375 188 206.760742188 149 201.427734375 109 c 0
EndSplineSet
Validated: 524289
EndChar

StartChar: Q
Encoding: 81 81 56
Width: 590
GlyphClass: 2
Flags: HMW
HStem: -24.002 21G<261.287 286.287> 612.496 105.504
VStem: 273.952 104.002
LayerCount: 2
Fore
SplineSet
473.951171875 -204 m 0
 464.618164062 -209.333007812 455.2890625 -212.002929688 445.956054688 -212.002929688 c 0
 441.2890625 -212.002929688 436.622070312 -211.3359375 431.955078125 -210.002929688 c 0
 418.622070312 -206.002929688 408.955078125 -197.669921875 402.955078125 -185.002929688 c 0
 396.288085938 -171.669921875 385.62109375 -149.169921875 370.954101562 -117.502929688 c 0
 356.287109375 -85.8359375 342.287109375 -53.6689453125 328.954101562 -21.001953125 c 1
 312.954101562 -23.001953125 295.62109375 -24.001953125 276.954101562 -24.001953125 c 0
 245.62109375 -24.001953125 217.62109375 -19.001953125 192.954101562 -9.001953125 c 0
 168.287109375 0.998046875 148.954101562 14.3310546875 134.954101562 30.998046875 c 0
 120.954101562 48.3310546875 109.954101562 68.3310546875 101.954101562 90.998046875 c 0
 94.2177734375 115.313476562 90.3486328125 142.276367188 90.3486328125 171.885742188 c 0
 90.3486328125 195.85546875 92.8837890625 221.559570312 97.9541015625 248.998046875 c 0
 101.287109375 265.665039062 104.954101562 282.33203125 108.954101562 298.999023438 c 0
 132.954101562 403.666015625 165.954101562 491.333007812 207.954101562 562 c 0
 235.287109375 606.666992188 272.954101562 644 320.954101562 674 c 0
 372.287109375 703.333007812 425.620117188 718 480.953125 718 c 0
 539.620117188 718 584.953125 699.333007812 616.953125 662 c 0
 631.620117188 643.333007812 641.620117188 618.333007812 646.953125 587 c 0
 649.796875 570.290039062 651.219726562 552.252929688 651.219726562 532.888671875 c 0
 651.219726562 515.942382812 650.129882812 497.979492188 647.952148438 479 c 0
 643.28515625 443 635.28515625 401.333007812 623.952148438 354 c 0
 604.619140625 270 585.952148438 207 567.952148438 165 c 0
 539.28515625 97 498.618164062 47 445.951171875 15 c 1
 459.284179688 -14.3330078125 475.951171875 -48 495.951171875 -86 c 0
 507.319335938 -108.104492188 513.00390625 -120.038085938 513.00390625 -121.80078125 c 0
 513.00390625 -121.8984375 512.986328125 -121.96484375 512.951171875 -122 c 0
 515.034179688 -127 516.076171875 -132.130859375 516.076171875 -137.390625 c 0
 516.076171875 -140.546875 515.701171875 -143.75 514.951171875 -147 c 0
 514.284179688 -149 513.6171875 -151.333007812 512.950195312 -154 c 0
 508.950195312 -164 503.283203125 -173.666992188 495.950195312 -183 c 0
 488.6171875 -192.333007812 481.284179688 -199.333007812 473.951171875 -204 c 0
272.955078125 113.997070312 m 0
 271.76953125 121.704101562 271.17578125 129.08203125 271.17578125 136.130859375 c 0
 271.17578125 144.93359375 272.1015625 153.22265625 273.952148438 160.997070312 c 0
 278.619140625 182.330078125 290.286132812 198.997070312 308.953125 210.997070312 c 0
 320.286132812 218.330078125 331.286132812 222.330078125 341.953125 222.997070312 c 0
 350.620117188 222.997070312 358.287109375 219.997070312 364.954101562 213.997070312 c 0
 371.62109375 207.997070312 375.954101562 198.6640625 377.954101562 185.997070312 c 0
 381.954101562 157.330078125 389.62109375 125.663085938 400.954101562 90.99609375 c 1
 425.62109375 108.329101562 445.288085938 133.99609375 459.955078125 167.99609375 c 0
 463.955078125 177.329101562 470.622070312 196.99609375 479.955078125 226.99609375 c 0
 489.288085938 256.99609375 499.288085938 294.663085938 509.955078125 339.99609375 c 2
 513.955078125 355.99609375 l 2
 523.288085938 395.329101562 529.955078125 432.99609375 533.955078125 468.99609375 c 0
 535.008789062 479.08203125 535.536132812 488.692382812 535.536132812 497.827148438 c 0
 535.536132812 529.14453125 529.341796875 554.8671875 516.955078125 574.99609375 c 0
 501.821289062 600 478.081054688 612.502929688 445.735351562 612.502929688 c 0
 445.309570312 612.502929688 444.8828125 612.5 444.455078125 612.49609375 c 0
 411.455078125 612.163085938 381.288085938 600.330078125 353.955078125 576.997070312 c 0
 325.288085938 552.330078125 300.288085938 517.997070312 278.955078125 473.997070312 c 0
 254.955078125 421.997070312 236.622070312 367.997070312 223.955078125 311.997070312 c 0
 219.288085938 291.997070312 215.288085938 271.6640625 211.955078125 250.997070312 c 0
 208.682617188 230.997070312 207.045898438 212.137695312 207.045898438 194.41796875 c 0
 207.045898438 179.65234375 208.182617188 165.678710938 210.455078125 152.497070312 c 0
 215.455078125 123.497070312 225.622070312 100.6640625 240.955078125 83.9970703125 c 0
 253.622070312 70.6640625 268.622070312 62.9970703125 285.955078125 60.9970703125 c 1
 279.288085938 82.330078125 274.955078125 99.9970703125 272.955078125 113.997070312 c 0
EndSplineSet
Validated: 524289
EndChar

